<?xml version="1.0" encoding="utf-8" standalone="no"?>
<!DOCTYPE svg PUBLIC "-//W3C//DTD SVG 1.1//EN"
  "http://www.w3.org/Graphics/SVG/1.1/DTD/svg11.dtd">
<svg xmlns:xlink="http://www.w3.org/1999/xlink" width="484.2468pt" height="411.0396pt" viewBox="0 0 484.2468 411.0396" xmlns="http://www.w3.org/2000/svg" version="1.1">
 <metadata>
  <rdf:RDF xmlns:dc="http://purl.org/dc/elements/1.1/" xmlns:cc="http://creativecommons.org/ns#" xmlns:rdf="http://www.w3.org/1999/02/22-rdf-syntax-ns#">
   <cc:Work>
    <dc:type rdf:resource="http://purl.org/dc/dcmitype/StillImage"/>
    <dc:date>2026-05-20T17:57:48.331268</dc:date>
    <dc:format>image/svg+xml</dc:format>
    <dc:creator>
     <cc:Agent>
      <dc:title>Matplotlib v3.10.9, https://matplotlib.org/</dc:title>
     </cc:Agent>
    </dc:creator>
   </cc:Work>
  </rdf:RDF>
 </metadata>
 <defs>
  <style type="text/css">*{stroke-linejoin: round; stroke-linecap: butt}</style>
 </defs>
 <g id="figure_1">
  <g id="patch_1">
   <path d="M 0 411.0396 
L 484.2468 411.0396 
L 484.2468 0 
L 0 0 
z
" style="fill: #ffffff"/>
  </g>
  <g id="axes_1">
   <g id="patch_2">
    <path d="M 373.236 220.8216 
C 373.236 196.787896 368.501884 172.98789 359.304584 150.783644 
C 350.107284 128.579397 336.625664 108.402726 319.631269 91.408331 
C 302.636874 74.413936 282.460203 60.932316 260.255956 51.735016 
C 238.05171 42.537716 214.251704 37.8036 190.218 37.8036 
C 166.184296 37.8036 142.38429 42.537716 120.180044 51.735016 
C 97.975797 60.932316 77.799126 74.413936 60.804731 91.408331 
C 43.810336 108.402726 30.328716 128.579397 21.131416 150.783644 
C 11.934116 172.98789 7.2 196.787896 7.2 220.8216 
C 7.2 244.855304 11.934116 268.65531 21.131416 290.859556 
C 30.328716 313.063803 43.810336 333.240474 60.804731 350.234869 
C 77.799126 367.229264 97.975797 380.710884 120.180044 389.908184 
C 142.38429 399.105484 166.184296 403.8396 190.218 403.8396 
C 214.251704 403.8396 238.05171 399.105484 260.255956 389.908184 
C 282.460203 380.710884 302.636874 367.229264 319.631269 350.234869 
C 336.625664 333.240474 350.107284 313.063803 359.304584 290.859556 
C 368.501884 268.65531 373.236 244.855304 373.236 220.8216 
M 190.218 220.8216 
C 190.218 220.8216 190.218 220.8216 190.218 220.8216 
C 190.218 220.8216 190.218 220.8216 190.218 220.8216 
C 190.218 220.8216 190.218 220.8216 190.218 220.8216 
C 190.218 220.8216 190.218 220.8216 190.218 220.8216 
C 190.218 220.8216 190.218 220.8216 190.218 220.8216 
C 190.218 220.8216 190.218 220.8216 190.218 220.8216 
C 190.218 220.8216 190.218 220.8216 190.218 220.8216 
C 190.218 220.8216 190.218 220.8216 190.218 220.8216 
C 190.218 220.8216 190.218 220.8216 190.218 220.8216 
C 190.218 220.8216 190.218 220.8216 190.218 220.8216 
C 190.218 220.8216 190.218 220.8216 190.218 220.8216 
C 190.218 220.8216 190.218 220.8216 190.218 220.8216 
C 190.218 220.8216 190.218 220.8216 190.218 220.8216 
C 190.218 220.8216 190.218 220.8216 190.218 220.8216 
C 190.218 220.8216 190.218 220.8216 190.218 220.8216 
C 190.218 220.8216 190.218 220.8216 190.218 220.8216 
z
" style="fill: #ffffff"/>
   </g>
   <g id="patch_3">
    <path d="M 338.46258 220.8216 
L 117.92589 95.607992 
L 112.43535 355.545102 
z
" clip-path="url(#p777190cf8d)" style="fill: #5b8db8; opacity: 0.15; stroke: #5b8db8; stroke-linejoin: miter"/>
   </g>
   <g id="patch_4">
    <path d="M 351.27384 220.8216 
L 111.52026 84.513116 
L 106.94481 365.054996 
z
" clip-path="url(#p777190cf8d)" style="fill: #6fa8a6; opacity: 0.15; stroke: #6fa8a6; stroke-linejoin: miter"/>
   </g>
   <g id="matplotlib.axis_1">
    <g id="xtick_1">
     <g id="line2d_1">
      <path d="M 190.218 220.8216 
L 373.236 220.8216 
" clip-path="url(#p777190cf8d)" style="fill: none; stroke-dasharray: 2.22,0.96; stroke-dashoffset: 0; stroke: #b0b0b0; stroke-opacity: 0.5; stroke-width: 0.6"/>
     </g>
     <g id="text_1">
      <text style="font-size: 12px; font-family: 'Arial', 'Helvetica', 'DejaVu Sans', 'Bitstream Vera Sans', 'Computer Modern Sans Serif', 'Lucida Grande', 'Verdana', 'Geneva', 'Lucid', 'Avant Garde', sans-serif; text-anchor: middle" x="387.236" y="223.853475" transform="rotate(-0 387.236 223.853475)">Accuracy</text>
     </g>
    </g>
    <g id="xtick_2">
     <g id="line2d_2">
      <path d="M 190.218 220.8216 
L 98.709 62.323363 
" clip-path="url(#p777190cf8d)" style="fill: none; stroke-dasharray: 2.22,0.96; stroke-dashoffset: 0; stroke: #b0b0b0; stroke-opacity: 0.5; stroke-width: 0.6"/>
     </g>
     <g id="text_2">
      <text style="font-size: 12px; font-family: 'Arial', 'Helvetica', 'DejaVu Sans', 'Bitstream Vera Sans', 'Computer Modern Sans Serif', 'Lucida Grande', 'Verdana', 'Geneva', 'Lucid', 'Avant Garde', sans-serif; text-anchor: middle" x="91.709" y="53.301194" transform="rotate(-0 91.709 53.301194)">F1</text>
     </g>
    </g>
    <g id="xtick_3">
     <g id="line2d_3">
      <path d="M 190.218 220.8216 
L 98.709 379.319837 
" clip-path="url(#p777190cf8d)" style="fill: none; stroke-dasharray: 2.22,0.96; stroke-dashoffset: 0; stroke: #b0b0b0; stroke-opacity: 0.5; stroke-width: 0.6"/>
     </g>
     <g id="text_3">
      <text style="font-size: 12px; font-family: 'Arial', 'Helvetica', 'DejaVu Sans', 'Bitstream Vera Sans', 'Computer Modern Sans Serif', 'Lucida Grande', 'Verdana', 'Geneva', 'Lucid', 'Avant Garde', sans-serif; text-anchor: middle" x="91.709" y="394.546381" transform="rotate(-0 91.709 394.546381)">AUC</text>
     </g>
    </g>
   </g>
   <g id="matplotlib.axis_2">
    <g id="ytick_1">
     <g id="line2d_4">
      <path d="M 226.8216 220.8216 
C 226.8216 216.014859 225.874777 211.254858 224.035317 206.814009 
C 222.195857 202.373159 219.499533 198.337825 216.100654 194.938946 
C 212.701775 191.540067 208.666441 188.843743 204.225591 187.004283 
C 199.784742 185.164823 195.024741 184.218 190.218 184.218 
C 185.411259 184.218 180.651258 185.164823 176.210409 187.004283 
C 171.769559 188.843743 167.734225 191.540067 164.335346 194.938946 
C 160.936467 198.337825 158.240143 202.373159 156.400683 206.814009 
C 154.561223 211.254858 153.6144 216.014859 153.6144 220.8216 
C 153.6144 225.628341 154.561223 230.388342 156.400683 234.829191 
C 158.240143 239.270041 160.936467 243.305375 164.335346 246.704254 
C 167.734225 250.103133 171.769559 252.799457 176.210409 254.638917 
C 180.651258 256.478377 185.411259 257.4252 190.218 257.4252 
C 195.024741 257.4252 199.784742 256.478377 204.225591 254.638917 
C 208.666441 252.799457 212.701775 250.103133 216.100654 246.704254 
C 219.499533 243.305375 222.195857 239.270041 224.035317 234.829191 
C 225.874777 230.388342 226.8216 225.628341 226.8216 220.8216 
" clip-path="url(#p777190cf8d)" style="fill: none; stroke-dasharray: 2.22,0.96; stroke-dashoffset: 0; stroke: #b0b0b0; stroke-opacity: 0.5; stroke-width: 0.6"/>
     </g>
     <g id="text_4">
      <text style="font-size: 12px; font-family: 'Arial', 'Helvetica', 'DejaVu Sans', 'Bitstream Vera Sans', 'Computer Modern Sans Serif', 'Lucida Grande', 'Verdana', 'Geneva', 'Lucid', 'Avant Garde', sans-serif; text-anchor: start" x="224.035317" y="204.429009" transform="rotate(-0 224.035317 204.429009)">0.2</text>
     </g>
    </g>
    <g id="ytick_2">
     <g id="line2d_5">
      <path d="M 263.4252 220.8216 
C 263.4252 211.208119 261.531554 201.688116 257.852634 192.806417 
C 254.173714 183.924719 248.781065 175.85405 241.983308 169.056292 
C 235.18555 162.258535 227.114881 156.865886 218.233183 153.186966 
C 209.351484 149.508046 199.831481 147.6144 190.218 147.6144 
C 180.604519 147.6144 171.084516 149.508046 162.202817 153.186966 
C 153.321119 156.865886 145.25045 162.258535 138.452692 169.056292 
C 131.654935 175.85405 126.262286 183.924719 122.583366 192.806417 
C 118.904446 201.688116 117.0108 211.208119 117.0108 220.8216 
C 117.0108 230.435081 118.904446 239.955084 122.583366 248.836783 
C 126.262286 257.718481 131.654935 265.78915 138.452692 272.586908 
C 145.25045 279.384665 153.321119 284.777314 162.202817 288.456234 
C 171.084516 292.135154 180.604519 294.0288 190.218 294.0288 
C 199.831481 294.0288 209.351484 292.135154 218.233183 288.456234 
C 227.114881 284.777314 235.18555 279.384665 241.983308 272.586908 
C 248.781065 265.78915 254.173714 257.718481 257.852634 248.836783 
C 261.531554 239.955084 263.4252 230.435081 263.4252 220.8216 
" clip-path="url(#p777190cf8d)" style="fill: none; stroke-dasharray: 2.22,0.96; stroke-dashoffset: 0; stroke: #b0b0b0; stroke-opacity: 0.5; stroke-width: 0.6"/>
     </g>
     <g id="text_5">
      <text style="font-size: 12px; font-family: 'Arial', 'Helvetica', 'DejaVu Sans', 'Bitstream Vera Sans', 'Computer Modern Sans Serif', 'Lucida Grande', 'Verdana', 'Geneva', 'Lucid', 'Avant Garde', sans-serif; text-anchor: start" x="257.852634" y="190.421417" transform="rotate(-0 257.852634 190.421417)">0.4</text>
     </g>
    </g>
    <g id="ytick_3">
     <g id="line2d_6">
      <path d="M 300.0288 220.8216 
C 300.0288 206.401378 297.188331 192.121374 291.669951 178.798826 
C 286.15157 165.476278 278.062598 153.370276 267.865961 143.173639 
C 257.669324 132.977002 245.563322 124.88803 232.240774 119.369649 
C 218.918226 113.851269 204.638222 111.0108 190.218 111.0108 
C 175.797778 111.0108 161.517774 113.851269 148.195226 119.369649 
C 134.872678 124.88803 122.766676 132.977002 112.570039 143.173639 
C 102.373402 153.370276 94.28443 165.476278 88.766049 178.798826 
C 83.247669 192.121374 80.4072 206.401378 80.4072 220.8216 
C 80.4072 235.241822 83.247669 249.521826 88.766049 262.844374 
C 94.28443 276.166922 102.373402 288.272924 112.570039 298.469561 
C 122.766676 308.666198 134.872678 316.75517 148.195226 322.273551 
C 161.517774 327.791931 175.797778 330.6324 190.218 330.6324 
C 204.638222 330.6324 218.918226 327.791931 232.240774 322.273551 
C 245.563322 316.75517 257.669324 308.666198 267.865961 298.469561 
C 278.062598 288.272924 286.15157 276.166922 291.669951 262.844374 
C 297.188331 249.521826 300.0288 235.241822 300.0288 220.8216 
" clip-path="url(#p777190cf8d)" style="fill: none; stroke-dasharray: 2.22,0.96; stroke-dashoffset: 0; stroke: #b0b0b0; stroke-opacity: 0.5; stroke-width: 0.6"/>
     </g>
     <g id="text_6">
      <text style="font-size: 12px; font-family: 'Arial', 'Helvetica', 'DejaVu Sans', 'Bitstream Vera Sans', 'Computer Modern Sans Serif', 'Lucida Grande', 'Verdana', 'Geneva', 'Lucid', 'Avant Garde', sans-serif; text-anchor: start" x="291.669951" y="176.413826" transform="rotate(-0 291.669951 176.413826)">0.6</text>
     </g>
    </g>
    <g id="ytick_4">
     <g id="line2d_7">
      <path d="M 336.6324 220.8216 
C 336.6324 201.594637 332.845108 182.554632 325.487267 164.791235 
C 318.129427 147.027837 307.344131 130.886501 293.748615 117.290985 
C 280.153099 103.695469 264.011763 92.910173 246.248365 85.552333 
C 228.484968 78.194492 209.444963 74.4072 190.218 74.4072 
C 170.991037 74.4072 151.951032 78.194492 134.187635 85.552333 
C 116.424237 92.910173 100.282901 103.695469 86.687385 117.290985 
C 73.091869 130.886501 62.306573 147.027837 54.948733 164.791235 
C 47.590892 182.554632 43.8036 201.594637 43.8036 220.8216 
C 43.8036 240.048563 47.590892 259.088568 54.948733 276.851965 
C 62.306573 294.615363 73.091869 310.756699 86.687385 324.352215 
C 100.282901 337.947731 116.424237 348.733027 134.187635 356.090867 
C 151.951032 363.448708 170.991037 367.236 190.218 367.236 
C 209.444963 367.236 228.484968 363.448708 246.248365 356.090867 
C 264.011763 348.733027 280.153099 337.947731 293.748615 324.352215 
C 307.344131 310.756699 318.129427 294.615363 325.487267 276.851965 
C 332.845108 259.088568 336.6324 240.048563 336.6324 220.8216 
" clip-path="url(#p777190cf8d)" style="fill: none; stroke-dasharray: 2.22,0.96; stroke-dashoffset: 0; stroke: #b0b0b0; stroke-opacity: 0.5; stroke-width: 0.6"/>
     </g>
     <g id="text_7">
      <text style="font-size: 12px; font-family: 'Arial', 'Helvetica', 'DejaVu Sans', 'Bitstream Vera Sans', 'Computer Modern Sans Serif', 'Lucida Grande', 'Verdana', 'Geneva', 'Lucid', 'Avant Garde', sans-serif; text-anchor: start" x="325.487267" y="162.406235" transform="rotate(-0 325.487267 162.406235)">0.8</text>
     </g>
    </g>
    <g id="ytick_5">
     <g id="line2d_8">
      <path d="M 373.236 220.8216 
C 373.236 196.787896 368.501884 172.98789 359.304584 150.783644 
C 350.107284 128.579397 336.625664 108.402726 319.631269 91.408331 
C 302.636874 74.413936 282.460203 60.932316 260.255956 51.735016 
C 238.05171 42.537716 214.251704 37.8036 190.218 37.8036 
C 166.184296 37.8036 142.38429 42.537716 120.180044 51.735016 
C 97.975797 60.932316 77.799126 74.413936 60.804731 91.408331 
C 43.810336 108.402726 30.328716 128.579397 21.131416 150.783644 
C 11.934116 172.98789 7.2 196.787896 7.2 220.8216 
C 7.2 244.855304 11.934116 268.65531 21.131416 290.859556 
C 30.328716 313.063803 43.810336 333.240474 60.804731 350.234869 
C 77.799126 367.229264 97.975797 380.710884 120.180044 389.908184 
C 142.38429 399.105484 166.184296 403.8396 190.218 403.8396 
C 214.251704 403.8396 238.05171 399.105484 260.255956 389.908184 
C 282.460203 380.710884 302.636874 367.229264 319.631269 350.234869 
C 336.625664 333.240474 350.107284 313.063803 359.304584 290.859556 
C 368.501884 268.65531 373.236 244.855304 373.236 220.8216 
" clip-path="url(#p777190cf8d)" style="fill: none; stroke-dasharray: 2.22,0.96; stroke-dashoffset: 0; stroke: #b0b0b0; stroke-opacity: 0.5; stroke-width: 0.6"/>
     </g>
     <g id="text_8">
      <text style="font-size: 12px; font-family: 'Arial', 'Helvetica', 'DejaVu Sans', 'Bitstream Vera Sans', 'Computer Modern Sans Serif', 'Lucida Grande', 'Verdana', 'Geneva', 'Lucid', 'Avant Garde', sans-serif; text-anchor: start" x="359.304584" y="148.398644" transform="rotate(-0 359.304584 148.398644)">1.0</text>
     </g>
    </g>
   </g>
   <g id="line2d_9">
    <path d="M 338.46258 220.8216 
L 117.92589 95.607992 
L 112.43535 355.545102 
L 338.46258 220.8216 
" clip-path="url(#p777190cf8d)" style="fill: none; stroke: #5b8db8; stroke-width: 2; stroke-linecap: square"/>
    <defs>
     <path id="m0424e15207" d="M 0 3 
C 0.795609 3 1.55874 2.683901 2.12132 2.12132 
C 2.683901 1.55874 3 0.795609 3 0 
C 3 -0.795609 2.683901 -1.55874 2.12132 -2.12132 
C 1.55874 -2.683901 0.795609 -3 0 -3 
C -0.795609 -3 -1.55874 -2.683901 -2.12132 -2.12132 
C -2.683901 -1.55874 -3 -0.795609 -3 0 
C -3 0.795609 -2.683901 1.55874 -2.12132 2.12132 
C -1.55874 2.683901 -0.795609 3 0 3 
z
" style="stroke: #5b8db8"/>
    </defs>
    <g clip-path="url(#p777190cf8d)">
     <use xlink:href="#m0424e15207" x="338.46258" y="220.8216" style="fill: #5b8db8; stroke: #5b8db8"/>
     <use xlink:href="#m0424e15207" x="117.92589" y="95.607992" style="fill: #5b8db8; stroke: #5b8db8"/>
     <use xlink:href="#m0424e15207" x="112.43535" y="355.545102" style="fill: #5b8db8; stroke: #5b8db8"/>
     <use xlink:href="#m0424e15207" x="338.46258" y="220.8216" style="fill: #5b8db8; stroke: #5b8db8"/>
    </g>
   </g>
   <g id="line2d_10">
    <path d="M 351.27384 220.8216 
L 111.52026 84.513116 
L 106.94481 365.054996 
L 351.27384 220.8216 
" clip-path="url(#p777190cf8d)" style="fill: none; stroke: #6fa8a6; stroke-width: 2; stroke-linecap: square"/>
    <defs>
     <path id="ma1bded77bc" d="M 0 3 
C 0.795609 3 1.55874 2.683901 2.12132 2.12132 
C 2.683901 1.55874 3 0.795609 3 0 
C 3 -0.795609 2.683901 -1.55874 2.12132 -2.12132 
C 1.55874 -2.683901 0.795609 -3 0 -3 
C -0.795609 -3 -1.55874 -2.683901 -2.12132 -2.12132 
C -2.683901 -1.55874 -3 -0.795609 -3 0 
C -3 0.795609 -2.683901 1.55874 -2.12132 2.12132 
C -1.55874 2.683901 -0.795609 3 0 3 
z
" style="stroke: #6fa8a6"/>
    </defs>
    <g clip-path="url(#p777190cf8d)">
     <use xlink:href="#ma1bded77bc" x="351.27384" y="220.8216" style="fill: #6fa8a6; stroke: #6fa8a6"/>
     <use xlink:href="#ma1bded77bc" x="111.52026" y="84.513116" style="fill: #6fa8a6; stroke: #6fa8a6"/>
     <use xlink:href="#ma1bded77bc" x="106.94481" y="365.054996" style="fill: #6fa8a6; stroke: #6fa8a6"/>
     <use xlink:href="#ma1bded77bc" x="351.27384" y="220.8216" style="fill: #6fa8a6; stroke: #6fa8a6"/>
    </g>
   </g>
   <g id="patch_5">
    <path d="M 373.236 220.8216 
C 373.236 196.787896 368.501884 172.98789 359.304584 150.783644 
C 350.107284 128.579397 336.625664 108.402726 319.631269 91.408331 
C 302.636874 74.413936 282.460203 60.932316 260.255956 51.735016 
C 238.05171 42.537716 214.251704 37.8036 190.218 37.8036 
C 166.184296 37.8036 142.38429 42.537716 120.180044 51.735016 
C 97.975797 60.932316 77.799126 74.413936 60.804731 91.408331 
C 43.810336 108.402726 30.328716 128.579397 21.131416 150.783644 
C 11.934116 172.98789 7.2 196.787896 7.2 220.8216 
C 7.2 244.855304 11.934116 268.65531 21.131416 290.859556 
C 30.328716 313.063803 43.810336 333.240474 60.804731 350.234869 
C 77.799126 367.229264 97.975797 380.710884 120.180044 389.908184 
C 142.38429 399.105484 166.184296 403.8396 190.218 403.8396 
C 214.251704 403.8396 238.05171 399.105484 260.255956 389.908184 
C 282.460203 380.710884 302.636874 367.229264 319.631269 350.234869 
C 336.625664 333.240474 350.107284 313.063803 359.304584 290.859556 
C 368.501884 268.65531 373.236 244.855304 373.236 220.8216 
" style="fill: none; stroke: #000000; stroke-width: 1.2; stroke-linejoin: miter; stroke-linecap: square"/>
   </g>
   <g id="text_9">
    <text style="font-size: 14.4px; font-family: 'Arial', 'Helvetica', 'DejaVu Sans', 'Bitstream Vera Sans', 'Computer Modern Sans Serif', 'Lucida Grande', 'Verdana', 'Geneva', 'Lucid', 'Avant Garde', sans-serif; text-anchor: middle" x="190.218" y="17.8036" transform="rotate(-0 190.218 17.8036)">Multi-Metric Comparison</text>
   </g>
   <g id="legend_1">
    <g id="line2d_11">
     <path d="M 392.617425 16.389375 
L 404.617425 16.389375 
L 416.617425 16.389375 
" style="fill: none; stroke: #5b8db8; stroke-width: 2; stroke-linecap: square"/>
     <g>
      <use xlink:href="#m0424e15207" x="404.617425" y="16.389375" style="fill: #5b8db8; stroke: #5b8db8"/>
     </g>
    </g>
    <g id="text_10">
     <text style="font-size: 12px; font-family: 'Arial', 'Helvetica', 'DejaVu Sans', 'Bitstream Vera Sans', 'Computer Modern Sans Serif', 'Lucida Grande', 'Verdana', 'Geneva', 'Lucid', 'Avant Garde', sans-serif; text-anchor: start" x="426.217425" y="20.589375" transform="rotate(-0 426.217425 20.589375)">Baseline</text>
    </g>
    <g id="line2d_12">
     <path d="M 392.617425 33.36375 
L 404.617425 33.36375 
L 416.617425 33.36375 
" style="fill: none; stroke: #6fa8a6; stroke-width: 2; stroke-linecap: square"/>
     <g>
      <use xlink:href="#ma1bded77bc" x="404.617425" y="33.36375" style="fill: #6fa8a6; stroke: #6fa8a6"/>
     </g>
    </g>
    <g id="text_11">
     <text style="font-size: 12px; font-family: 'Arial', 'Helvetica', 'DejaVu Sans', 'Bitstream Vera Sans', 'Computer Modern Sans Serif', 'Lucida Grande', 'Verdana', 'Geneva', 'Lucid', 'Avant Garde', sans-serif; text-anchor: start" x="426.217425" y="37.56375" transform="rotate(-0 426.217425 37.56375)">Ours</text>
    </g>
   </g>
  </g>
 </g>
 <defs>
  <clipPath id="p777190cf8d">
   <path d="M 373.236 220.8216 
C 373.236 196.787896 368.501884 172.98789 359.304584 150.783644 
C 350.107284 128.579397 336.625664 108.402726 319.631269 91.408331 
C 302.636874 74.413936 282.460203 60.932316 260.255956 51.735016 
C 238.05171 42.537716 214.251704 37.8036 190.218 37.8036 
C 166.184296 37.8036 142.38429 42.537716 120.180044 51.735016 
C 97.975797 60.932316 77.799126 74.413936 60.804731 91.408331 
C 43.810336 108.402726 30.328716 128.579397 21.131416 150.783644 
C 11.934116 172.98789 7.2 196.787896 7.2 220.8216 
C 7.2 244.855304 11.934116 268.65531 21.131416 290.859556 
C 30.328716 313.063803 43.810336 333.240474 60.804731 350.234869 
C 77.799126 367.229264 97.975797 380.710884 120.180044 389.908184 
C 142.38429 399.105484 166.184296 403.8396 190.218 403.8396 
C 214.251704 403.8396 238.05171 399.105484 260.255956 389.908184 
C 282.460203 380.710884 302.636874 367.229264 319.631269 350.234869 
C 336.625664 333.240474 350.107284 313.063803 359.304584 290.859556 
C 368.501884 268.65531 373.236 244.855304 373.236 220.8216 
M 190.218 220.8216 
C 190.218 220.8216 190.218 220.8216 190.218 220.8216 
C 190.218 220.8216 190.218 220.8216 190.218 220.8216 
C 190.218 220.8216 190.218 220.8216 190.218 220.8216 
C 190.218 220.8216 190.218 220.8216 190.218 220.8216 
C 190.218 220.8216 190.218 220.8216 190.218 220.8216 
C 190.218 220.8216 190.218 220.8216 190.218 220.8216 
C 190.218 220.8216 190.218 220.8216 190.218 220.8216 
C 190.218 220.8216 190.218 220.8216 190.218 220.8216 
C 190.218 220.8216 190.218 220.8216 190.218 220.8216 
C 190.218 220.8216 190.218 220.8216 190.218 220.8216 
C 190.218 220.8216 190.218 220.8216 190.218 220.8216 
C 190.218 220.8216 190.218 220.8216 190.218 220.8216 
C 190.218 220.8216 190.218 220.8216 190.218 220.8216 
C 190.218 220.8216 190.218 220.8216 190.218 220.8216 
C 190.218 220.8216 190.218 220.8216 190.218 220.8216 
C 190.218 220.8216 190.218 220.8216 190.218 220.8216 
z
"/>
  </clipPath>
 </defs>
</svg>
