<?xml version="1.0" encoding="utf-8" standalone="no"?>
<!DOCTYPE svg PUBLIC "-//W3C//DTD SVG 1.1//EN"
  "http://www.w3.org/Graphics/SVG/1.1/DTD/svg11.dtd">
<svg xmlns:xlink="http://www.w3.org/1999/xlink" width="561.4875pt" height="417.577125pt" viewBox="0 0 561.4875 417.577125" xmlns="http://www.w3.org/2000/svg" version="1.1">
 <metadata>
  <rdf:RDF xmlns:dc="http://purl.org/dc/elements/1.1/" xmlns:cc="http://creativecommons.org/ns#" xmlns:rdf="http://www.w3.org/1999/02/22-rdf-syntax-ns#">
   <cc:Work>
    <dc:type rdf:resource="http://purl.org/dc/dcmitype/StillImage"/>
    <dc:date>2026-05-20T17:57:48.911917</dc:date>
    <dc:format>image/svg+xml</dc:format>
    <dc:creator>
     <cc:Agent>
      <dc:title>Matplotlib v3.10.9, https://matplotlib.org/</dc:title>
     </cc:Agent>
    </dc:creator>
   </cc:Work>
  </rdf:RDF>
 </metadata>
 <defs>
  <style type="text/css">*{stroke-linejoin: round; stroke-linecap: butt}</style>
 </defs>
 <g id="figure_1">
  <g id="patch_1">
   <path d="M 0 417.577125 
L 561.4875 417.577125 
L 561.4875 0 
L 0 0 
z
" style="fill: #ffffff"/>
  </g>
  <g id="axes_1">
   <g id="patch_2">
    <path d="M 52.5275 392.40275 
L 554.2875 392.40275 
L 554.2875 23.68275 
L 52.5275 23.68275 
z
" style="fill: #ffffff"/>
   </g>
   <g id="FillBetweenPolyCollection_1">
    <path d="M 163.705153 375.64275 
L 108.60318 375.64275 
L 108.318229 374.917209 
L 108.037182 374.191668 
L 107.759951 373.466127 
L 107.486437 372.740585 
L 107.216532 372.015044 
L 106.950118 371.289503 
L 106.687066 370.563962 
L 106.427243 369.838421 
L 106.170506 369.11288 
L 105.916709 368.387339 
L 105.665698 367.661798 
L 105.417319 366.936256 
L 105.171412 366.210715 
L 104.927817 365.485174 
L 104.686374 364.759633 
L 104.446924 364.034092 
L 104.209309 363.308551 
L 103.973375 362.58301 
L 103.738972 361.857469 
L 103.505956 361.131927 
L 103.274189 360.406386 
L 103.043541 359.680845 
L 102.813892 358.955304 
L 102.58513 358.229763 
L 102.357156 357.504222 
L 102.129882 356.778681 
L 101.903232 356.05314 
L 101.677145 355.327598 
L 101.451576 354.602057 
L 101.226494 353.876516 
L 101.001882 353.150975 
L 100.777744 352.425434 
L 100.554099 351.699893 
L 100.330984 350.974352 
L 100.108455 350.248811 
L 99.886586 349.523269 
L 99.66547 348.797728 
L 99.445219 348.072187 
L 99.225965 347.346646 
L 99.007857 346.621105 
L 98.791066 345.895564 
L 98.57578 345.170023 
L 98.362206 344.444482 
L 98.150568 343.71894 
L 97.94111 342.993399 
L 97.734093 342.267858 
L 97.529792 341.542317 
L 97.328502 340.816776 
L 97.130531 340.091235 
L 96.9362 339.365694 
L 96.745847 338.640153 
L 96.559819 337.914611 
L 96.378479 337.18907 
L 96.202195 336.463529 
L 96.031349 335.737988 
L 95.866328 335.012447 
L 95.707527 334.286906 
L 95.555347 333.561365 
L 95.410193 332.835824 
L 95.272472 332.110282 
L 95.142594 331.384741 
L 95.020969 330.6592 
L 94.908004 329.933659 
L 94.804105 329.208118 
L 94.709674 328.482577 
L 94.625107 327.757036 
L 94.550794 327.031495 
L 94.487115 326.305953 
L 94.434442 325.580412 
L 94.393136 324.854871 
L 94.363545 324.12933 
L 94.346004 323.403789 
L 94.340833 322.678248 
L 94.348338 321.952707 
L 94.368804 321.227166 
L 94.402502 320.501624 
L 94.449682 319.776083 
L 94.510574 319.050542 
L 94.585387 318.325001 
L 94.674308 317.59946 
L 94.777502 316.873919 
L 94.895111 316.148378 
L 95.027252 315.422837 
L 95.174018 314.697295 
L 95.335479 313.971754 
L 95.511677 313.246213 
L 95.70263 312.520672 
L 95.90833 311.795131 
L 96.128743 311.06959 
L 96.363809 310.344049 
L 96.613443 309.618508 
L 96.877532 308.892966 
L 97.155939 308.167425 
L 97.448502 307.441884 
L 97.755034 306.716343 
L 98.075322 305.990802 
L 98.409129 305.265261 
L 98.756196 304.53972 
L 99.116241 303.814179 
L 173.192093 303.814179 
L 173.192093 303.814179 
L 173.552137 304.53972 
L 173.899204 305.265261 
L 174.233012 305.990802 
L 174.553299 306.716343 
L 174.859831 307.441884 
L 175.152394 308.167425 
L 175.430802 308.892966 
L 175.694891 309.618508 
L 175.944524 310.344049 
L 176.17959 311.06959 
L 176.400003 311.795131 
L 176.605703 312.520672 
L 176.796656 313.246213 
L 176.972854 313.971754 
L 177.134315 314.697295 
L 177.281082 315.422837 
L 177.413223 316.148378 
L 177.530832 316.873919 
L 177.634026 317.59946 
L 177.722947 318.325001 
L 177.797759 319.050542 
L 177.858651 319.776083 
L 177.905831 320.501624 
L 177.939529 321.227166 
L 177.959996 321.952707 
L 177.9675 322.678248 
L 177.96233 323.403789 
L 177.944789 324.12933 
L 177.915198 324.854871 
L 177.873891 325.580412 
L 177.821218 326.305953 
L 177.75754 327.031495 
L 177.683226 327.757036 
L 177.598659 328.482577 
L 177.504228 329.208118 
L 177.40033 329.933659 
L 177.287365 330.6592 
L 177.165739 331.384741 
L 177.035861 332.110282 
L 176.898141 332.835824 
L 176.752986 333.561365 
L 176.600807 334.286906 
L 176.442006 335.012447 
L 176.276985 335.737988 
L 176.106138 336.463529 
L 175.929855 337.18907 
L 175.748514 337.914611 
L 175.562487 338.640153 
L 175.372133 339.365694 
L 175.177803 340.091235 
L 174.979831 340.816776 
L 174.778541 341.542317 
L 174.57424 342.267858 
L 174.367223 342.993399 
L 174.157765 343.71894 
L 173.946128 344.444482 
L 173.732553 345.170023 
L 173.517267 345.895564 
L 173.300476 346.621105 
L 173.082369 347.346646 
L 172.863114 348.072187 
L 172.642863 348.797728 
L 172.421747 349.523269 
L 172.199878 350.248811 
L 171.977349 350.974352 
L 171.754234 351.699893 
L 171.530589 352.425434 
L 171.306451 353.150975 
L 171.08184 353.876516 
L 170.856757 354.602057 
L 170.631188 355.327598 
L 170.405102 356.05314 
L 170.178452 356.778681 
L 169.951177 357.504222 
L 169.723203 358.229763 
L 169.494441 358.955304 
L 169.264792 359.680845 
L 169.034144 360.406386 
L 168.802377 361.131927 
L 168.569361 361.857469 
L 168.334958 362.58301 
L 168.099024 363.308551 
L 167.861409 364.034092 
L 167.621959 364.759633 
L 167.380516 365.485174 
L 167.136922 366.210715 
L 166.891014 366.936256 
L 166.642635 367.661798 
L 166.391624 368.387339 
L 166.137827 369.11288 
L 165.881091 369.838421 
L 165.621267 370.563962 
L 165.358216 371.289503 
L 165.091801 372.015044 
L 164.821896 372.740585 
L 164.548382 373.466127 
L 164.271151 374.191668 
L 163.990104 374.917209 
L 163.705153 375.64275 
z
" clip-path="url(#p60d8967e0d)" style="fill: #5b8db8; fill-opacity: 0.5"/>
   </g>
   <g id="FillBetweenPolyCollection_2">
    <path d="M 336.177731 231.985607 
L 270.637269 231.985607 
L 270.26539 231.501913 
L 269.900731 231.018219 
L 269.543438 230.534525 
L 269.193643 230.050831 
L 268.851469 229.567137 
L 268.517025 229.083443 
L 268.190407 228.599749 
L 267.871702 228.116054 
L 267.560983 227.63236 
L 267.258316 227.148666 
L 266.963751 226.664972 
L 266.677332 226.181278 
L 266.399091 225.697584 
L 266.129049 225.21389 
L 265.867222 224.730196 
L 265.613612 224.246502 
L 265.368217 223.762808 
L 265.131024 223.279114 
L 264.902016 222.79542 
L 264.681166 222.311725 
L 264.468442 221.828031 
L 264.263808 221.344337 
L 264.06722 220.860643 
L 263.878631 220.376949 
L 263.69799 219.893255 
L 263.525242 219.409561 
L 263.360329 218.925867 
L 263.203191 218.442173 
L 263.053767 217.958479 
L 262.911993 217.474785 
L 262.777805 216.991091 
L 262.651139 216.507396 
L 262.531931 216.023702 
L 262.420117 215.540008 
L 262.315636 215.056314 
L 262.218427 214.57262 
L 262.128431 214.088926 
L 262.045592 213.605232 
L 261.969858 213.121538 
L 261.901178 212.637844 
L 261.839505 212.15415 
L 261.784797 211.670456 
L 261.737015 211.186762 
L 261.696125 210.703067 
L 261.662096 210.219373 
L 261.634904 209.735679 
L 261.614527 209.251985 
L 261.600952 208.768291 
L 261.594167 208.284597 
L 261.594167 207.800903 
L 261.600952 207.317209 
L 261.614527 206.833515 
L 261.634904 206.349821 
L 261.662096 205.866127 
L 261.696125 205.382433 
L 261.737015 204.898738 
L 261.784797 204.415044 
L 261.839505 203.93135 
L 261.901178 203.447656 
L 261.969858 202.963962 
L 262.045592 202.480268 
L 262.128431 201.996574 
L 262.218427 201.51288 
L 262.315636 201.029186 
L 262.420117 200.545492 
L 262.531931 200.061798 
L 262.651139 199.578104 
L 262.777805 199.094409 
L 262.911993 198.610715 
L 263.053767 198.127021 
L 263.203191 197.643327 
L 263.360329 197.159633 
L 263.525242 196.675939 
L 263.69799 196.192245 
L 263.878631 195.708551 
L 264.06722 195.224857 
L 264.263808 194.741163 
L 264.468442 194.257469 
L 264.681166 193.773775 
L 264.902016 193.29008 
L 265.131024 192.806386 
L 265.368217 192.322692 
L 265.613612 191.838998 
L 265.867222 191.355304 
L 266.129049 190.87161 
L 266.399091 190.387916 
L 266.677332 189.904222 
L 266.963751 189.420528 
L 267.258316 188.936834 
L 267.560983 188.45314 
L 267.871702 187.969446 
L 268.190407 187.485751 
L 268.517025 187.002057 
L 268.851469 186.518363 
L 269.193643 186.034669 
L 269.543438 185.550975 
L 269.900731 185.067281 
L 270.26539 184.583587 
L 270.637269 184.099893 
L 336.177731 184.099893 
L 336.177731 184.099893 
L 336.54961 184.583587 
L 336.914269 185.067281 
L 337.271562 185.550975 
L 337.621357 186.034669 
L 337.963531 186.518363 
L 338.297975 187.002057 
L 338.624593 187.485751 
L 338.943298 187.969446 
L 339.254017 188.45314 
L 339.556684 188.936834 
L 339.851249 189.420528 
L 340.137668 189.904222 
L 340.415909 190.387916 
L 340.685951 190.87161 
L 340.947778 191.355304 
L 341.201388 191.838998 
L 341.446783 192.322692 
L 341.683976 192.806386 
L 341.912984 193.29008 
L 342.133834 193.773775 
L 342.346558 194.257469 
L 342.551192 194.741163 
L 342.74778 195.224857 
L 342.936369 195.708551 
L 343.11701 196.192245 
L 343.289758 196.675939 
L 343.454671 197.159633 
L 343.611809 197.643327 
L 343.761233 198.127021 
L 343.903007 198.610715 
L 344.037195 199.094409 
L 344.163861 199.578104 
L 344.283069 200.061798 
L 344.394883 200.545492 
L 344.499364 201.029186 
L 344.596573 201.51288 
L 344.686569 201.996574 
L 344.769408 202.480268 
L 344.845142 202.963962 
L 344.913822 203.447656 
L 344.975495 203.93135 
L 345.030203 204.415044 
L 345.077985 204.898738 
L 345.118875 205.382433 
L 345.152904 205.866127 
L 345.180096 206.349821 
L 345.200473 206.833515 
L 345.214048 207.317209 
L 345.220833 207.800903 
L 345.220833 208.284597 
L 345.214048 208.768291 
L 345.200473 209.251985 
L 345.180096 209.735679 
L 345.152904 210.219373 
L 345.118875 210.703067 
L 345.077985 211.186762 
L 345.030203 211.670456 
L 344.975495 212.15415 
L 344.913822 212.637844 
L 344.845142 213.121538 
L 344.769408 213.605232 
L 344.686569 214.088926 
L 344.596573 214.57262 
L 344.499364 215.056314 
L 344.394883 215.540008 
L 344.283069 216.023702 
L 344.163861 216.507396 
L 344.037195 216.991091 
L 343.903007 217.474785 
L 343.761233 217.958479 
L 343.611809 218.442173 
L 343.454671 218.925867 
L 343.289758 219.409561 
L 343.11701 219.893255 
L 342.936369 220.376949 
L 342.74778 220.860643 
L 342.551192 221.344337 
L 342.346558 221.828031 
L 342.133834 222.311725 
L 341.912984 222.79542 
L 341.683976 223.279114 
L 341.446783 223.762808 
L 341.201388 224.246502 
L 340.947778 224.730196 
L 340.685951 225.21389 
L 340.415909 225.697584 
L 340.137668 226.181278 
L 339.851249 226.664972 
L 339.556684 227.148666 
L 339.254017 227.63236 
L 338.943298 228.116054 
L 338.624593 228.599749 
L 338.297975 229.083443 
L 337.963531 229.567137 
L 337.621357 230.050831 
L 337.271562 230.534525 
L 336.914269 231.018219 
L 336.54961 231.501913 
L 336.177731 231.985607 
z
" clip-path="url(#p60d8967e0d)" style="fill: #6fa8a6; fill-opacity: 0.5"/>
   </g>
   <g id="FillBetweenPolyCollection_3">
    <path d="M 503.431065 88.328464 
L 437.890602 88.328464 
L 437.518723 87.84477 
L 437.154064 87.361076 
L 436.796771 86.877382 
L 436.446977 86.393688 
L 436.104803 85.909994 
L 435.770358 85.4263 
L 435.44374 84.942606 
L 435.125035 84.458912 
L 434.814317 83.975218 
L 434.511649 83.491523 
L 434.217085 83.007829 
L 433.930665 82.524135 
L 433.652424 82.040441 
L 433.382383 81.556747 
L 433.120555 81.073053 
L 432.866945 80.589359 
L 432.62155 80.105665 
L 432.384358 79.621971 
L 432.155349 79.138277 
L 431.934499 78.654583 
L 431.721776 78.170889 
L 431.517141 77.687194 
L 431.320553 77.2035 
L 431.131964 76.719806 
L 430.951323 76.236112 
L 430.778575 75.752418 
L 430.613662 75.268724 
L 430.456525 74.78503 
L 430.307101 74.301336 
L 430.165326 73.817642 
L 430.031138 73.333948 
L 429.904472 72.850254 
L 429.785264 72.36656 
L 429.67345 71.882865 
L 429.568969 71.399171 
L 429.47176 70.915477 
L 429.381764 70.431783 
L 429.298926 69.948089 
L 429.223191 69.464395 
L 429.154511 68.980701 
L 429.092838 68.497007 
L 429.038131 68.013313 
L 428.990349 67.529619 
L 428.949458 67.045925 
L 428.915429 66.562231 
L 428.888237 66.078536 
L 428.867861 65.594842 
L 428.854285 65.111148 
L 428.8475 64.627454 
L 428.8475 64.14376 
L 428.854285 63.660066 
L 428.867861 63.176372 
L 428.888237 62.692678 
L 428.915429 62.208984 
L 428.949458 61.72529 
L 428.990349 61.241596 
L 429.038131 60.757902 
L 429.092838 60.274207 
L 429.154511 59.790513 
L 429.223191 59.306819 
L 429.298926 58.823125 
L 429.381764 58.339431 
L 429.47176 57.855737 
L 429.568969 57.372043 
L 429.67345 56.888349 
L 429.785264 56.404655 
L 429.904472 55.920961 
L 430.031138 55.437267 
L 430.165326 54.953573 
L 430.307101 54.469878 
L 430.456525 53.986184 
L 430.613662 53.50249 
L 430.778575 53.018796 
L 430.951323 52.535102 
L 431.131964 52.051408 
L 431.320553 51.567714 
L 431.517141 51.08402 
L 431.721776 50.600326 
L 431.934499 50.116632 
L 432.155349 49.632938 
L 432.384358 49.149244 
L 432.62155 48.665549 
L 432.866945 48.181855 
L 433.120555 47.698161 
L 433.382383 47.214467 
L 433.652424 46.730773 
L 433.930665 46.247079 
L 434.217085 45.763385 
L 434.511649 45.279691 
L 434.814317 44.795997 
L 435.125035 44.312303 
L 435.44374 43.828609 
L 435.770358 43.344915 
L 436.104803 42.86122 
L 436.446977 42.377526 
L 436.796771 41.893832 
L 437.154064 41.410138 
L 437.518723 40.926444 
L 437.890602 40.44275 
L 503.431065 40.44275 
L 503.431065 40.44275 
L 503.802944 40.926444 
L 504.167603 41.410138 
L 504.524896 41.893832 
L 504.87469 42.377526 
L 505.216864 42.86122 
L 505.551309 43.344915 
L 505.877927 43.828609 
L 506.196632 44.312303 
L 506.50735 44.795997 
L 506.810018 45.279691 
L 507.104582 45.763385 
L 507.391001 46.247079 
L 507.669243 46.730773 
L 507.939284 47.214467 
L 508.201112 47.698161 
L 508.454721 48.181855 
L 508.700116 48.665549 
L 508.937309 49.149244 
L 509.166317 49.632938 
L 509.387167 50.116632 
L 509.599891 50.600326 
L 509.804525 51.08402 
L 510.001113 51.567714 
L 510.189702 52.051408 
L 510.370343 52.535102 
L 510.543092 53.018796 
L 510.708004 53.50249 
L 510.865142 53.986184 
L 511.014566 54.469878 
L 511.15634 54.953573 
L 511.290528 55.437267 
L 511.417194 55.920961 
L 511.536403 56.404655 
L 511.648216 56.888349 
L 511.752697 57.372043 
L 511.849907 57.855737 
L 511.939903 58.339431 
L 512.022741 58.823125 
L 512.098475 59.306819 
L 512.167156 59.790513 
L 512.228828 60.274207 
L 512.283536 60.757902 
L 512.331318 61.241596 
L 512.372208 61.72529 
L 512.406237 62.208984 
L 512.43343 62.692678 
L 512.453806 63.176372 
L 512.467381 63.660066 
L 512.474167 64.14376 
L 512.474167 64.627454 
L 512.467381 65.111148 
L 512.453806 65.594842 
L 512.43343 66.078536 
L 512.406237 66.562231 
L 512.372208 67.045925 
L 512.331318 67.529619 
L 512.283536 68.013313 
L 512.228828 68.497007 
L 512.167156 68.980701 
L 512.098475 69.464395 
L 512.022741 69.948089 
L 511.939903 70.431783 
L 511.849907 70.915477 
L 511.752697 71.399171 
L 511.648216 71.882865 
L 511.536403 72.36656 
L 511.417194 72.850254 
L 511.290528 73.333948 
L 511.15634 73.817642 
L 511.014566 74.301336 
L 510.865142 74.78503 
L 510.708004 75.268724 
L 510.543092 75.752418 
L 510.370343 76.236112 
L 510.189702 76.719806 
L 510.001113 77.2035 
L 509.804525 77.687194 
L 509.599891 78.170889 
L 509.387167 78.654583 
L 509.166317 79.138277 
L 508.937309 79.621971 
L 508.700116 80.105665 
L 508.454721 80.589359 
L 508.201112 81.073053 
L 507.939284 81.556747 
L 507.669243 82.040441 
L 507.391001 82.524135 
L 507.104582 83.007829 
L 506.810018 83.491523 
L 506.50735 83.975218 
L 506.196632 84.458912 
L 505.877927 84.942606 
L 505.551309 85.4263 
L 505.216864 85.909994 
L 504.87469 86.393688 
L 504.524896 86.877382 
L 504.167603 87.361076 
L 503.802944 87.84477 
L 503.431065 88.328464 
z
" clip-path="url(#p60d8967e0d)" style="fill: #9ccb9e; fill-opacity: 0.5"/>
   </g>
   <g id="matplotlib.axis_1">
    <g id="xtick_1">
     <g id="line2d_1">
      <defs>
       <path id="m58f8f713cd" d="M 0 0 
L 0 3.5 
" style="stroke: #000000; stroke-width: 0.8"/>
      </defs>
      <g>
       <use xlink:href="#m58f8f713cd" x="136.154167" y="392.40275" style="stroke: #000000; stroke-width: 0.8"/>
      </g>
     </g>
     <g id="text_1">
      <text style="font-size: 12px; font-family: 'Arial', 'Helvetica', 'DejaVu Sans', 'Bitstream Vera Sans', 'Computer Modern Sans Serif', 'Lucida Grande', 'Verdana', 'Geneva', 'Lucid', 'Avant Garde', sans-serif; text-anchor: middle" x="136.154167" y="407.992125" transform="rotate(-0 136.154167 407.992125)">Baseline</text>
     </g>
    </g>
    <g id="xtick_2">
     <g id="line2d_2">
      <g>
       <use xlink:href="#m58f8f713cd" x="303.4075" y="392.40275" style="stroke: #000000; stroke-width: 0.8"/>
      </g>
     </g>
     <g id="text_2">
      <text style="font-size: 12px; font-family: 'Arial', 'Helvetica', 'DejaVu Sans', 'Bitstream Vera Sans', 'Computer Modern Sans Serif', 'Lucida Grande', 'Verdana', 'Geneva', 'Lucid', 'Avant Garde', sans-serif; text-anchor: middle" x="303.4075" y="407.992125" transform="rotate(-0 303.4075 407.992125)">Method A</text>
     </g>
    </g>
    <g id="xtick_3">
     <g id="line2d_3">
      <g>
       <use xlink:href="#m58f8f713cd" x="470.660833" y="392.40275" style="stroke: #000000; stroke-width: 0.8"/>
      </g>
     </g>
     <g id="text_3">
      <text style="font-size: 12px; font-family: 'Arial', 'Helvetica', 'DejaVu Sans', 'Bitstream Vera Sans', 'Computer Modern Sans Serif', 'Lucida Grande', 'Verdana', 'Geneva', 'Lucid', 'Avant Garde', sans-serif; text-anchor: middle" x="470.660833" y="407.992125" transform="rotate(-0 470.660833 407.992125)">Ours</text>
     </g>
    </g>
   </g>
   <g id="matplotlib.axis_2">
    <g id="ytick_1">
     <g id="line2d_4">
      <path d="M 52.5275 375.64275 
L 554.2875 375.64275 
" clip-path="url(#p60d8967e0d)" style="fill: none; stroke-dasharray: 2.22,0.96; stroke-dashoffset: 0; stroke: #b0b0b0; stroke-opacity: 0.35; stroke-width: 0.6"/>
     </g>
     <g id="line2d_5">
      <defs>
       <path id="m3e78919e3e" d="M 0 0 
L -3.5 0 
" style="stroke: #000000; stroke-width: 0.8"/>
      </defs>
      <g>
       <use xlink:href="#m3e78919e3e" x="52.5275" y="375.64275" style="stroke: #000000; stroke-width: 0.8"/>
      </g>
     </g>
     <g id="text_4">
      <text style="font-size: 12px; font-family: 'Arial', 'Helvetica', 'DejaVu Sans', 'Bitstream Vera Sans', 'Computer Modern Sans Serif', 'Lucida Grande', 'Verdana', 'Geneva', 'Lucid', 'Avant Garde', sans-serif; text-anchor: end" x="45.5275" y="379.937437" transform="rotate(-0 45.5275 379.937437)">0.72</text>
     </g>
    </g>
    <g id="ytick_2">
     <g id="line2d_6">
      <path d="M 52.5275 327.757036 
L 554.2875 327.757036 
" clip-path="url(#p60d8967e0d)" style="fill: none; stroke-dasharray: 2.22,0.96; stroke-dashoffset: 0; stroke: #b0b0b0; stroke-opacity: 0.35; stroke-width: 0.6"/>
     </g>
     <g id="line2d_7">
      <g>
       <use xlink:href="#m3e78919e3e" x="52.5275" y="327.757036" style="stroke: #000000; stroke-width: 0.8"/>
      </g>
     </g>
     <g id="text_5">
      <text style="font-size: 12px; font-family: 'Arial', 'Helvetica', 'DejaVu Sans', 'Bitstream Vera Sans', 'Computer Modern Sans Serif', 'Lucida Grande', 'Verdana', 'Geneva', 'Lucid', 'Avant Garde', sans-serif; text-anchor: end" x="45.5275" y="332.051723" transform="rotate(-0 45.5275 332.051723)">0.74</text>
     </g>
    </g>
    <g id="ytick_3">
     <g id="line2d_8">
      <path d="M 52.5275 279.871321 
L 554.2875 279.871321 
" clip-path="url(#p60d8967e0d)" style="fill: none; stroke-dasharray: 2.22,0.96; stroke-dashoffset: 0; stroke: #b0b0b0; stroke-opacity: 0.35; stroke-width: 0.6"/>
     </g>
     <g id="line2d_9">
      <g>
       <use xlink:href="#m3e78919e3e" x="52.5275" y="279.871321" style="stroke: #000000; stroke-width: 0.8"/>
      </g>
     </g>
     <g id="text_6">
      <text style="font-size: 12px; font-family: 'Arial', 'Helvetica', 'DejaVu Sans', 'Bitstream Vera Sans', 'Computer Modern Sans Serif', 'Lucida Grande', 'Verdana', 'Geneva', 'Lucid', 'Avant Garde', sans-serif; text-anchor: end" x="45.5275" y="284.166009" transform="rotate(-0 45.5275 284.166009)">0.76</text>
     </g>
    </g>
    <g id="ytick_4">
     <g id="line2d_10">
      <path d="M 52.5275 231.985607 
L 554.2875 231.985607 
" clip-path="url(#p60d8967e0d)" style="fill: none; stroke-dasharray: 2.22,0.96; stroke-dashoffset: 0; stroke: #b0b0b0; stroke-opacity: 0.35; stroke-width: 0.6"/>
     </g>
     <g id="line2d_11">
      <g>
       <use xlink:href="#m3e78919e3e" x="52.5275" y="231.985607" style="stroke: #000000; stroke-width: 0.8"/>
      </g>
     </g>
     <g id="text_7">
      <text style="font-size: 12px; font-family: 'Arial', 'Helvetica', 'DejaVu Sans', 'Bitstream Vera Sans', 'Computer Modern Sans Serif', 'Lucida Grande', 'Verdana', 'Geneva', 'Lucid', 'Avant Garde', sans-serif; text-anchor: end" x="45.5275" y="236.280295" transform="rotate(-0 45.5275 236.280295)">0.78</text>
     </g>
    </g>
    <g id="ytick_5">
     <g id="line2d_12">
      <path d="M 52.5275 184.099893 
L 554.2875 184.099893 
" clip-path="url(#p60d8967e0d)" style="fill: none; stroke-dasharray: 2.22,0.96; stroke-dashoffset: 0; stroke: #b0b0b0; stroke-opacity: 0.35; stroke-width: 0.6"/>
     </g>
     <g id="line2d_13">
      <g>
       <use xlink:href="#m3e78919e3e" x="52.5275" y="184.099893" style="stroke: #000000; stroke-width: 0.8"/>
      </g>
     </g>
     <g id="text_8">
      <text style="font-size: 12px; font-family: 'Arial', 'Helvetica', 'DejaVu Sans', 'Bitstream Vera Sans', 'Computer Modern Sans Serif', 'Lucida Grande', 'Verdana', 'Geneva', 'Lucid', 'Avant Garde', sans-serif; text-anchor: end" x="45.5275" y="188.39458" transform="rotate(-0 45.5275 188.39458)">0.80</text>
     </g>
    </g>
    <g id="ytick_6">
     <g id="line2d_14">
      <path d="M 52.5275 136.214179 
L 554.2875 136.214179 
" clip-path="url(#p60d8967e0d)" style="fill: none; stroke-dasharray: 2.22,0.96; stroke-dashoffset: 0; stroke: #b0b0b0; stroke-opacity: 0.35; stroke-width: 0.6"/>
     </g>
     <g id="line2d_15">
      <g>
       <use xlink:href="#m3e78919e3e" x="52.5275" y="136.214179" style="stroke: #000000; stroke-width: 0.8"/>
      </g>
     </g>
     <g id="text_9">
      <text style="font-size: 12px; font-family: 'Arial', 'Helvetica', 'DejaVu Sans', 'Bitstream Vera Sans', 'Computer Modern Sans Serif', 'Lucida Grande', 'Verdana', 'Geneva', 'Lucid', 'Avant Garde', sans-serif; text-anchor: end" x="45.5275" y="140.508866" transform="rotate(-0 45.5275 140.508866)">0.82</text>
     </g>
    </g>
    <g id="ytick_7">
     <g id="line2d_16">
      <path d="M 52.5275 88.328464 
L 554.2875 88.328464 
" clip-path="url(#p60d8967e0d)" style="fill: none; stroke-dasharray: 2.22,0.96; stroke-dashoffset: 0; stroke: #b0b0b0; stroke-opacity: 0.35; stroke-width: 0.6"/>
     </g>
     <g id="line2d_17">
      <g>
       <use xlink:href="#m3e78919e3e" x="52.5275" y="88.328464" style="stroke: #000000; stroke-width: 0.8"/>
      </g>
     </g>
     <g id="text_10">
      <text style="font-size: 12px; font-family: 'Arial', 'Helvetica', 'DejaVu Sans', 'Bitstream Vera Sans', 'Computer Modern Sans Serif', 'Lucida Grande', 'Verdana', 'Geneva', 'Lucid', 'Avant Garde', sans-serif; text-anchor: end" x="45.5275" y="92.623152" transform="rotate(-0 45.5275 92.623152)">0.84</text>
     </g>
    </g>
    <g id="ytick_8">
     <g id="line2d_18">
      <path d="M 52.5275 40.44275 
L 554.2875 40.44275 
" clip-path="url(#p60d8967e0d)" style="fill: none; stroke-dasharray: 2.22,0.96; stroke-dashoffset: 0; stroke: #b0b0b0; stroke-opacity: 0.35; stroke-width: 0.6"/>
     </g>
     <g id="line2d_19">
      <g>
       <use xlink:href="#m3e78919e3e" x="52.5275" y="40.44275" style="stroke: #000000; stroke-width: 0.8"/>
      </g>
     </g>
     <g id="text_11">
      <text style="font-size: 12px; font-family: 'Arial', 'Helvetica', 'DejaVu Sans', 'Bitstream Vera Sans', 'Computer Modern Sans Serif', 'Lucida Grande', 'Verdana', 'Geneva', 'Lucid', 'Avant Garde', sans-serif; text-anchor: end" x="45.5275" y="44.737437" transform="rotate(-0 45.5275 44.737437)">0.86</text>
     </g>
    </g>
    <g id="text_12">
     <text style="font-size: 12px; font-family: 'Arial', 'Helvetica', 'DejaVu Sans', 'Bitstream Vera Sans', 'Computer Modern Sans Serif', 'Lucida Grande', 'Verdana', 'Geneva', 'Lucid', 'Avant Garde', sans-serif; text-anchor: middle" x="15.789375" y="208.04275" transform="rotate(-90 15.789375 208.04275)">Value</text>
    </g>
   </g>
   <g id="patch_3">
    <path d="M 123.610167 351.699893 
L 148.698167 351.699893 
L 148.698167 315.785607 
L 123.610167 315.785607 
L 123.610167 351.699893 
z
" clip-path="url(#p60d8967e0d)" style="fill: #ffffff; stroke: #808080; stroke-width: 1.2; stroke-linejoin: miter"/>
   </g>
   <g id="line2d_20">
    <path d="M 136.154167 351.699893 
L 136.154167 375.64275 
" clip-path="url(#p60d8967e0d)" style="fill: none; stroke: #808080; stroke-width: 1.2; stroke-linecap: square"/>
   </g>
   <g id="line2d_21">
    <path d="M 136.154167 315.785607 
L 136.154167 303.814179 
" clip-path="url(#p60d8967e0d)" style="fill: none; stroke: #808080; stroke-width: 1.2; stroke-linecap: square"/>
   </g>
   <g id="line2d_22">
    <path d="M 129.882167 375.64275 
L 142.426167 375.64275 
" clip-path="url(#p60d8967e0d)" style="fill: none; stroke: #808080; stroke-width: 1.2; stroke-linecap: square"/>
   </g>
   <g id="line2d_23">
    <path d="M 129.882167 303.814179 
L 142.426167 303.814179 
" clip-path="url(#p60d8967e0d)" style="fill: none; stroke: #808080; stroke-width: 1.2; stroke-linecap: square"/>
   </g>
   <g id="patch_4">
    <path d="M 290.8635 220.014179 
L 315.9515 220.014179 
L 315.9515 196.071321 
L 290.8635 196.071321 
L 290.8635 220.014179 
z
" clip-path="url(#p60d8967e0d)" style="fill: #ffffff; stroke: #808080; stroke-width: 1.2; stroke-linejoin: miter"/>
   </g>
   <g id="line2d_24">
    <path d="M 303.4075 220.014179 
L 303.4075 231.985607 
" clip-path="url(#p60d8967e0d)" style="fill: none; stroke: #808080; stroke-width: 1.2; stroke-linecap: square"/>
   </g>
   <g id="line2d_25">
    <path d="M 303.4075 196.071321 
L 303.4075 184.099893 
" clip-path="url(#p60d8967e0d)" style="fill: none; stroke: #808080; stroke-width: 1.2; stroke-linecap: square"/>
   </g>
   <g id="line2d_26">
    <path d="M 297.1355 231.985607 
L 309.6795 231.985607 
" clip-path="url(#p60d8967e0d)" style="fill: none; stroke: #808080; stroke-width: 1.2; stroke-linecap: square"/>
   </g>
   <g id="line2d_27">
    <path d="M 297.1355 184.099893 
L 309.6795 184.099893 
" clip-path="url(#p60d8967e0d)" style="fill: none; stroke: #808080; stroke-width: 1.2; stroke-linecap: square"/>
   </g>
   <g id="patch_5">
    <path d="M 458.116833 76.357036 
L 483.204833 76.357036 
L 483.204833 52.414179 
L 458.116833 52.414179 
L 458.116833 76.357036 
z
" clip-path="url(#p60d8967e0d)" style="fill: #ffffff; stroke: #808080; stroke-width: 1.2; stroke-linejoin: miter"/>
   </g>
   <g id="line2d_28">
    <path d="M 470.660833 76.357036 
L 470.660833 88.328464 
" clip-path="url(#p60d8967e0d)" style="fill: none; stroke: #808080; stroke-width: 1.2; stroke-linecap: square"/>
   </g>
   <g id="line2d_29">
    <path d="M 470.660833 52.414179 
L 470.660833 40.44275 
" clip-path="url(#p60d8967e0d)" style="fill: none; stroke: #808080; stroke-width: 1.2; stroke-linecap: square"/>
   </g>
   <g id="line2d_30">
    <path d="M 464.388833 88.328464 
L 476.932833 88.328464 
" clip-path="url(#p60d8967e0d)" style="fill: none; stroke: #808080; stroke-width: 1.2; stroke-linecap: square"/>
   </g>
   <g id="line2d_31">
    <path d="M 464.388833 40.44275 
L 476.932833 40.44275 
" clip-path="url(#p60d8967e0d)" style="fill: none; stroke: #808080; stroke-width: 1.2; stroke-linecap: square"/>
   </g>
   <g id="line2d_32">
    <path d="M 123.610167 327.757036 
L 148.698167 327.757036 
" clip-path="url(#p60d8967e0d)" style="fill: none; stroke: #000000; stroke-width: 1.5"/>
   </g>
   <g id="line2d_33">
    <path d="M 290.8635 208.04275 
L 315.9515 208.04275 
" clip-path="url(#p60d8967e0d)" style="fill: none; stroke: #000000; stroke-width: 1.5"/>
   </g>
   <g id="line2d_34">
    <path d="M 458.116833 64.385607 
L 483.204833 64.385607 
" clip-path="url(#p60d8967e0d)" style="fill: none; stroke: #000000; stroke-width: 1.5"/>
   </g>
   <g id="patch_6">
    <path d="M 52.5275 392.40275 
L 52.5275 23.68275 
" style="fill: none; stroke: #000000; stroke-width: 1.2; stroke-linejoin: miter; stroke-linecap: square"/>
   </g>
   <g id="patch_7">
    <path d="M 52.5275 392.40275 
L 554.2875 392.40275 
" style="fill: none; stroke: #000000; stroke-width: 1.2; stroke-linejoin: miter; stroke-linecap: square"/>
   </g>
   <g id="PathCollection_1">
    <defs>
     <path id="me063132565" d="M 0 2.5 
C 0.663008 2.5 1.29895 2.236584 1.767767 1.767767 
C 2.236584 1.29895 2.5 0.663008 2.5 0 
C 2.5 -0.663008 2.236584 -1.29895 1.767767 -1.767767 
C 1.29895 -2.236584 0.663008 -2.5 0 -2.5 
C -0.663008 -2.5 -1.29895 -2.236584 -1.767767 -1.767767 
C -2.236584 -1.29895 -2.5 -0.663008 -2.5 0 
C -2.5 0.663008 -2.236584 1.29895 -1.767767 1.767767 
C -1.29895 2.236584 -0.663008 2.5 0 2.5 
z
" style="stroke: #ffffff; stroke-opacity: 0.6; stroke-width: 0.5"/>
    </defs>
    <g clip-path="url(#p60d8967e0d)">
     <use xlink:href="#me063132565" x="137.350989" y="375.64275" style="fill: #5b8db8; fill-opacity: 0.6; stroke: #ffffff; stroke-opacity: 0.6; stroke-width: 0.5"/>
     <use xlink:href="#me063132565" x="138.030028" y="303.814179" style="fill: #5b8db8; fill-opacity: 0.6; stroke: #ffffff; stroke-opacity: 0.6; stroke-width: 0.5"/>
     <use xlink:href="#me063132565" x="139.777045" y="327.757036" style="fill: #5b8db8; fill-opacity: 0.6; stroke: #ffffff; stroke-opacity: 0.6; stroke-width: 0.5"/>
    </g>
   </g>
   <g id="PathCollection_2">
    <defs>
     <path id="mf1b5b56454" d="M 0 2.5 
C 0.663008 2.5 1.29895 2.236584 1.767767 1.767767 
C 2.236584 1.29895 2.5 0.663008 2.5 0 
C 2.5 -0.663008 2.236584 -1.29895 1.767767 -1.767767 
C 1.29895 -2.236584 0.663008 -2.5 0 -2.5 
C -0.663008 -2.5 -1.29895 -2.236584 -1.767767 -1.767767 
C -2.236584 -1.29895 -2.5 -0.663008 -2.5 0 
C -2.5 0.663008 -2.236584 1.29895 -1.767767 1.767767 
C -1.29895 2.236584 -0.663008 2.5 0 2.5 
z
" style="stroke: #ffffff; stroke-opacity: 0.6; stroke-width: 0.5"/>
    </defs>
    <g clip-path="url(#p60d8967e0d)">
     <use xlink:href="#mf1b5b56454" x="306.932538" y="231.985607" style="fill: #6fa8a6; fill-opacity: 0.6; stroke: #ffffff; stroke-opacity: 0.6; stroke-width: 0.5"/>
     <use xlink:href="#mf1b5b56454" x="298.799104" y="208.04275" style="fill: #6fa8a6; fill-opacity: 0.6; stroke: #ffffff; stroke-opacity: 0.6; stroke-width: 0.5"/>
     <use xlink:href="#mf1b5b56454" x="300.270413" y="184.099893" style="fill: #6fa8a6; fill-opacity: 0.6; stroke: #ffffff; stroke-opacity: 0.6; stroke-width: 0.5"/>
    </g>
   </g>
   <g id="PathCollection_3">
    <defs>
     <path id="m82329763ee" d="M 0 2.5 
C 0.663008 2.5 1.29895 2.236584 1.767767 1.767767 
C 2.236584 1.29895 2.5 0.663008 2.5 0 
C 2.5 -0.663008 2.236584 -1.29895 1.767767 -1.767767 
C 1.29895 -2.236584 0.663008 -2.5 0 -2.5 
C -0.663008 -2.5 -1.29895 -2.236584 -1.767767 -1.767767 
C -2.236584 -1.29895 -2.5 -0.663008 -2.5 0 
C -2.5 0.663008 -2.236584 1.29895 -1.767767 1.767767 
C -1.29895 2.236584 -0.663008 2.5 0 2.5 
z
" style="stroke: #ffffff; stroke-opacity: 0.6; stroke-width: 0.5"/>
    </defs>
    <g clip-path="url(#p60d8967e0d)">
     <use xlink:href="#m82329763ee" x="472.383661" y="88.328464" style="fill: #9ccb9e; fill-opacity: 0.6; stroke: #ffffff; stroke-opacity: 0.6; stroke-width: 0.5"/>
     <use xlink:href="#m82329763ee" x="472.379482" y="64.385607" style="fill: #9ccb9e; fill-opacity: 0.6; stroke: #ffffff; stroke-opacity: 0.6; stroke-width: 0.5"/>
     <use xlink:href="#m82329763ee" x="472.383702" y="40.44275" style="fill: #9ccb9e; fill-opacity: 0.6; stroke: #ffffff; stroke-opacity: 0.6; stroke-width: 0.5"/>
    </g>
   </g>
   <g id="text_13">
    <text style="font-size: 14.4px; font-family: 'Arial', 'Helvetica', 'DejaVu Sans', 'Bitstream Vera Sans', 'Computer Modern Sans Serif', 'Lucida Grande', 'Verdana', 'Geneva', 'Lucid', 'Avant Garde', sans-serif; text-anchor: middle" x="303.4075" y="17.68275" transform="rotate(-0 303.4075 17.68275)">Raincloud Plot: Distribution Comparison</text>
   </g>
  </g>
 </g>
 <defs>
  <clipPath id="p60d8967e0d">
   <rect x="52.5275" y="23.68275" width="501.76" height="368.72"/>
  </clipPath>
 </defs>
</svg>
