<?xml version="1.0" encoding="utf-8" standalone="no"?>
<!DOCTYPE svg PUBLIC "-//W3C//DTD SVG 1.1//EN"
  "http://www.w3.org/Graphics/SVG/1.1/DTD/svg11.dtd">
<svg xmlns:xlink="http://www.w3.org/1999/xlink" width="417.5175pt" height="309.457125pt" viewBox="0 0 417.5175 309.457125" xmlns="http://www.w3.org/2000/svg" version="1.1">
 <metadata>
  <rdf:RDF xmlns:dc="http://purl.org/dc/elements/1.1/" xmlns:cc="http://creativecommons.org/ns#" xmlns:rdf="http://www.w3.org/1999/02/22-rdf-syntax-ns#">
   <cc:Work>
    <dc:type rdf:resource="http://purl.org/dc/dcmitype/StillImage"/>
    <dc:date>2026-05-20T17:51:57.841884</dc:date>
    <dc:format>image/svg+xml</dc:format>
    <dc:creator>
     <cc:Agent>
      <dc:title>Matplotlib v3.10.9, https://matplotlib.org/</dc:title>
     </cc:Agent>
    </dc:creator>
   </cc:Work>
  </rdf:RDF>
 </metadata>
 <defs>
  <style type="text/css">*{stroke-linejoin: round; stroke-linecap: butt}</style>
 </defs>
 <g id="figure_1">
  <g id="patch_1">
   <path d="M 0 309.457125 
L 417.5175 309.457125 
L 417.5175 0 
L 0 0 
z
" style="fill: #ffffff"/>
  </g>
  <g id="axes_1">
   <g id="patch_2">
    <path d="M 52.5275 284.28275 
L 410.3175 284.28275 
L 410.3175 23.68275 
L 52.5275 23.68275 
z
" style="fill: #ffffff"/>
   </g>
   <g id="matplotlib.axis_1">
    <g id="xtick_1">
     <g id="line2d_1">
      <defs>
       <path id="mca2b38122c" d="M 0 0 
L 0 3.5 
" style="stroke: #000000; stroke-width: 0.8"/>
      </defs>
      <g>
       <use xlink:href="#mca2b38122c" x="112.159167" y="284.28275" style="stroke: #000000; stroke-width: 0.8"/>
      </g>
     </g>
     <g id="text_1">
      <text style="font-size: 12px; font-family: 'Arial', 'Helvetica', 'DejaVu Sans', 'Bitstream Vera Sans', 'Computer Modern Sans Serif', 'Lucida Grande', 'Verdana', 'Geneva', 'Lucid', 'Avant Garde', sans-serif; text-anchor: middle" x="112.159167" y="299.872125" transform="rotate(-0 112.159167 299.872125)">Baseline</text>
     </g>
    </g>
    <g id="xtick_2">
     <g id="line2d_2">
      <g>
       <use xlink:href="#mca2b38122c" x="231.4225" y="284.28275" style="stroke: #000000; stroke-width: 0.8"/>
      </g>
     </g>
     <g id="text_2">
      <text style="font-size: 12px; font-family: 'Arial', 'Helvetica', 'DejaVu Sans', 'Bitstream Vera Sans', 'Computer Modern Sans Serif', 'Lucida Grande', 'Verdana', 'Geneva', 'Lucid', 'Avant Garde', sans-serif; text-anchor: middle" x="231.4225" y="299.872125" transform="rotate(-0 231.4225 299.872125)">CNN</text>
     </g>
    </g>
    <g id="xtick_3">
     <g id="line2d_3">
      <g>
       <use xlink:href="#mca2b38122c" x="350.685833" y="284.28275" style="stroke: #000000; stroke-width: 0.8"/>
      </g>
     </g>
     <g id="text_3">
      <text style="font-size: 12px; font-family: 'Arial', 'Helvetica', 'DejaVu Sans', 'Bitstream Vera Sans', 'Computer Modern Sans Serif', 'Lucida Grande', 'Verdana', 'Geneva', 'Lucid', 'Avant Garde', sans-serif; text-anchor: middle" x="350.685833" y="299.872125" transform="rotate(-0 350.685833 299.872125)">Transformer</text>
     </g>
    </g>
   </g>
   <g id="matplotlib.axis_2">
    <g id="ytick_1">
     <g id="line2d_4">
      <path d="M 52.5275 276.349032 
L 410.3175 276.349032 
" clip-path="url(#pdc0dc6a4e6)" style="fill: none; stroke-dasharray: 2.96,1.28; stroke-dashoffset: 0; stroke: #b0b0b0; stroke-opacity: 0.3; stroke-width: 0.8"/>
     </g>
     <g id="line2d_5">
      <defs>
       <path id="m17882e4d50" d="M 0 0 
L -3.5 0 
" style="stroke: #000000; stroke-width: 0.8"/>
      </defs>
      <g>
       <use xlink:href="#m17882e4d50" x="52.5275" y="276.349032" style="stroke: #000000; stroke-width: 0.8"/>
      </g>
     </g>
     <g id="text_4">
      <text style="font-size: 12px; font-family: 'Arial', 'Helvetica', 'DejaVu Sans', 'Bitstream Vera Sans', 'Computer Modern Sans Serif', 'Lucida Grande', 'Verdana', 'Geneva', 'Lucid', 'Avant Garde', sans-serif; text-anchor: end" x="45.5275" y="280.643719" transform="rotate(-0 45.5275 280.643719)">0.65</text>
     </g>
    </g>
    <g id="ytick_2">
     <g id="line2d_6">
      <path d="M 52.5275 231.241245 
L 410.3175 231.241245 
" clip-path="url(#pdc0dc6a4e6)" style="fill: none; stroke-dasharray: 2.96,1.28; stroke-dashoffset: 0; stroke: #b0b0b0; stroke-opacity: 0.3; stroke-width: 0.8"/>
     </g>
     <g id="line2d_7">
      <g>
       <use xlink:href="#m17882e4d50" x="52.5275" y="231.241245" style="stroke: #000000; stroke-width: 0.8"/>
      </g>
     </g>
     <g id="text_5">
      <text style="font-size: 12px; font-family: 'Arial', 'Helvetica', 'DejaVu Sans', 'Bitstream Vera Sans', 'Computer Modern Sans Serif', 'Lucida Grande', 'Verdana', 'Geneva', 'Lucid', 'Avant Garde', sans-serif; text-anchor: end" x="45.5275" y="235.535933" transform="rotate(-0 45.5275 235.535933)">0.70</text>
     </g>
    </g>
    <g id="ytick_3">
     <g id="line2d_8">
      <path d="M 52.5275 186.133459 
L 410.3175 186.133459 
" clip-path="url(#pdc0dc6a4e6)" style="fill: none; stroke-dasharray: 2.96,1.28; stroke-dashoffset: 0; stroke: #b0b0b0; stroke-opacity: 0.3; stroke-width: 0.8"/>
     </g>
     <g id="line2d_9">
      <g>
       <use xlink:href="#m17882e4d50" x="52.5275" y="186.133459" style="stroke: #000000; stroke-width: 0.8"/>
      </g>
     </g>
     <g id="text_6">
      <text style="font-size: 12px; font-family: 'Arial', 'Helvetica', 'DejaVu Sans', 'Bitstream Vera Sans', 'Computer Modern Sans Serif', 'Lucida Grande', 'Verdana', 'Geneva', 'Lucid', 'Avant Garde', sans-serif; text-anchor: end" x="45.5275" y="190.428146" transform="rotate(-0 45.5275 190.428146)">0.75</text>
     </g>
    </g>
    <g id="ytick_4">
     <g id="line2d_10">
      <path d="M 52.5275 141.025673 
L 410.3175 141.025673 
" clip-path="url(#pdc0dc6a4e6)" style="fill: none; stroke-dasharray: 2.96,1.28; stroke-dashoffset: 0; stroke: #b0b0b0; stroke-opacity: 0.3; stroke-width: 0.8"/>
     </g>
     <g id="line2d_11">
      <g>
       <use xlink:href="#m17882e4d50" x="52.5275" y="141.025673" style="stroke: #000000; stroke-width: 0.8"/>
      </g>
     </g>
     <g id="text_7">
      <text style="font-size: 12px; font-family: 'Arial', 'Helvetica', 'DejaVu Sans', 'Bitstream Vera Sans', 'Computer Modern Sans Serif', 'Lucida Grande', 'Verdana', 'Geneva', 'Lucid', 'Avant Garde', sans-serif; text-anchor: end" x="45.5275" y="145.32036" transform="rotate(-0 45.5275 145.32036)">0.80</text>
     </g>
    </g>
    <g id="ytick_5">
     <g id="line2d_12">
      <path d="M 52.5275 95.917886 
L 410.3175 95.917886 
" clip-path="url(#pdc0dc6a4e6)" style="fill: none; stroke-dasharray: 2.96,1.28; stroke-dashoffset: 0; stroke: #b0b0b0; stroke-opacity: 0.3; stroke-width: 0.8"/>
     </g>
     <g id="line2d_13">
      <g>
       <use xlink:href="#m17882e4d50" x="52.5275" y="95.917886" style="stroke: #000000; stroke-width: 0.8"/>
      </g>
     </g>
     <g id="text_8">
      <text style="font-size: 12px; font-family: 'Arial', 'Helvetica', 'DejaVu Sans', 'Bitstream Vera Sans', 'Computer Modern Sans Serif', 'Lucida Grande', 'Verdana', 'Geneva', 'Lucid', 'Avant Garde', sans-serif; text-anchor: end" x="45.5275" y="100.212574" transform="rotate(-0 45.5275 100.212574)">0.85</text>
     </g>
    </g>
    <g id="ytick_6">
     <g id="line2d_14">
      <path d="M 52.5275 50.8101 
L 410.3175 50.8101 
" clip-path="url(#pdc0dc6a4e6)" style="fill: none; stroke-dasharray: 2.96,1.28; stroke-dashoffset: 0; stroke: #b0b0b0; stroke-opacity: 0.3; stroke-width: 0.8"/>
     </g>
     <g id="line2d_15">
      <g>
       <use xlink:href="#m17882e4d50" x="52.5275" y="50.8101" style="stroke: #000000; stroke-width: 0.8"/>
      </g>
     </g>
     <g id="text_9">
      <text style="font-size: 12px; font-family: 'Arial', 'Helvetica', 'DejaVu Sans', 'Bitstream Vera Sans', 'Computer Modern Sans Serif', 'Lucida Grande', 'Verdana', 'Geneva', 'Lucid', 'Avant Garde', sans-serif; text-anchor: end" x="45.5275" y="55.104787" transform="rotate(-0 45.5275 55.104787)">0.90</text>
     </g>
    </g>
    <g id="text_10">
     <text style="font-size: 12px; font-family: 'Arial', 'Helvetica', 'DejaVu Sans', 'Bitstream Vera Sans', 'Computer Modern Sans Serif', 'Lucida Grande', 'Verdana', 'Geneva', 'Lucid', 'Avant Garde', sans-serif; text-anchor: middle" x="15.789375" y="153.98275" transform="rotate(-90 15.789375 153.98275)">Performance Score</text>
    </g>
   </g>
   <g id="FillBetweenPolyCollection_1">
    <path d="M 120.996425 272.437295 
L 103.321909 272.437295 
L 102.809304 270.845996 
L 102.295531 269.254697 
L 101.781905 267.663398 
L 101.269479 266.072098 
L 100.759013 264.480799 
L 100.250938 262.8895 
L 99.745334 261.2982 
L 99.241914 259.706901 
L 98.740019 258.115602 
L 98.238623 256.524302 
L 97.736344 254.933003 
L 97.231474 253.341704 
L 96.722015 251.750405 
L 96.20573 250.159105 
L 95.680204 248.567806 
L 95.142913 246.976507 
L 94.591311 245.385207 
L 94.022917 243.793908 
L 93.435413 242.202609 
L 92.826744 240.611309 
L 92.195221 239.02001 
L 91.539622 237.428711 
L 90.859283 235.837412 
L 90.154189 234.246112 
L 89.42504 232.654813 
L 88.673312 231.063514 
L 87.901288 229.472214 
L 87.112074 227.880915 
L 86.309585 226.289616 
L 85.49851 224.698316 
L 84.684239 223.107017 
L 83.872784 221.515718 
L 83.070654 219.924418 
L 82.284729 218.333119 
L 81.522102 216.74182 
L 80.789922 215.150521 
L 80.095223 213.559221 
L 79.444756 211.967922 
L 78.844831 210.376623 
L 78.301167 208.785323 
L 77.818764 207.194024 
L 77.401801 205.602725 
L 77.053556 204.011425 
L 76.776361 202.420126 
L 76.57159 200.828827 
L 76.439679 199.237528 
L 76.380167 197.646228 
L 76.39178 196.054929 
L 76.472527 194.46363 
L 76.619816 192.87233 
L 76.830581 191.281031 
L 77.10142 189.689732 
L 77.428719 188.098432 
L 77.808783 186.507133 
L 78.237942 184.915834 
L 78.712643 183.324535 
L 79.229519 181.733235 
L 79.785437 180.141936 
L 80.377512 178.550637 
L 81.003102 176.959337 
L 81.659782 175.368038 
L 82.345293 173.776739 
L 83.057474 172.185439 
L 83.794191 170.59414 
L 84.55325 169.002841 
L 85.332325 167.411542 
L 86.128876 165.820242 
L 86.940093 164.228943 
L 87.76285 162.637644 
L 88.593679 161.046344 
L 89.428774 159.455045 
L 90.264009 157.863746 
L 91.094992 156.272446 
L 91.917135 154.681147 
L 92.725746 153.089848 
L 93.516145 151.498549 
L 94.283779 149.907249 
L 95.024358 148.31595 
L 95.733986 146.724651 
L 96.409281 145.133351 
L 97.047496 143.542052 
L 97.646613 141.950753 
L 98.20542 140.359453 
L 98.723558 138.768154 
L 99.201545 137.176855 
L 99.640766 135.585556 
L 100.043429 133.994256 
L 100.412501 132.402957 
L 100.751604 130.811658 
L 101.0649 129.220358 
L 101.356953 127.629059 
L 101.632572 126.03776 
L 101.896656 124.44646 
L 102.154035 122.855161 
L 102.409315 121.263862 
L 102.666738 119.672562 
L 102.930053 118.081263 
L 103.20242 116.489964 
L 103.486324 114.898665 
L 120.832009 114.898665 
L 120.832009 114.898665 
L 121.115913 116.489964 
L 121.38828 118.081263 
L 121.651596 119.672562 
L 121.909018 121.263862 
L 122.164298 122.855161 
L 122.421677 124.44646 
L 122.685761 126.03776 
L 122.96138 127.629059 
L 123.253433 129.220358 
L 123.56673 130.811658 
L 123.905833 132.402957 
L 124.274904 133.994256 
L 124.677567 135.585556 
L 125.116788 137.176855 
L 125.594776 138.768154 
L 126.112914 140.359453 
L 126.67172 141.950753 
L 127.270837 143.542052 
L 127.909053 145.133351 
L 128.584348 146.724651 
L 129.293975 148.31595 
L 130.034555 149.907249 
L 130.802189 151.498549 
L 131.592587 153.089848 
L 132.401199 154.681147 
L 133.223342 156.272446 
L 134.054325 157.863746 
L 134.88956 159.455045 
L 135.724654 161.046344 
L 136.555484 162.637644 
L 137.37824 164.228943 
L 138.189457 165.820242 
L 138.986008 167.411542 
L 139.765083 169.002841 
L 140.524143 170.59414 
L 141.260859 172.185439 
L 141.97304 173.776739 
L 142.658551 175.368038 
L 143.315232 176.959337 
L 143.940822 178.550637 
L 144.532896 180.141936 
L 145.088814 181.733235 
L 145.605691 183.324535 
L 146.080392 184.915834 
L 146.509551 186.507133 
L 146.889615 188.098432 
L 147.216914 189.689732 
L 147.487752 191.281031 
L 147.698517 192.87233 
L 147.845806 194.46363 
L 147.926553 196.054929 
L 147.938167 197.646228 
L 147.878655 199.237528 
L 147.746743 200.828827 
L 147.541973 202.420126 
L 147.264778 204.011425 
L 146.916532 205.602725 
L 146.499569 207.194024 
L 146.017166 208.785323 
L 145.473502 210.376623 
L 144.873577 211.967922 
L 144.22311 213.559221 
L 143.528411 215.150521 
L 142.796231 216.74182 
L 142.033605 218.333119 
L 141.247679 219.924418 
L 140.44555 221.515718 
L 139.634094 223.107017 
L 138.819824 224.698316 
L 138.008748 226.289616 
L 137.20626 227.880915 
L 136.417046 229.472214 
L 135.645022 231.063514 
L 134.893293 232.654813 
L 134.164144 234.246112 
L 133.45905 235.837412 
L 132.778711 237.428711 
L 132.123112 239.02001 
L 131.491589 240.611309 
L 130.88292 242.202609 
L 130.295416 243.793908 
L 129.727022 245.385207 
L 129.17542 246.976507 
L 128.63813 248.567806 
L 128.112603 250.159105 
L 127.596319 251.750405 
L 127.08686 253.341704 
L 126.58199 254.933003 
L 126.07971 256.524302 
L 125.578314 258.115602 
L 125.076419 259.706901 
L 124.572999 261.2982 
L 124.067395 262.8895 
L 123.55932 264.480799 
L 123.048854 266.072098 
L 122.536429 267.663398 
L 122.022802 269.254697 
L 121.509029 270.845996 
L 120.996425 272.437295 
z
" clip-path="url(#pdc0dc6a4e6)" style="fill: #5b8db8; fill-opacity: 0.6"/>
   </g>
   <g id="FillBetweenPolyCollection_2">
    <path d="M 241.191672 193.699663 
L 221.653328 193.699663 
L 221.041025 192.31018 
L 220.424367 190.920697 
L 219.80507 189.531213 
L 219.184639 188.14173 
L 218.56434 186.752247 
L 217.945181 185.362764 
L 217.327906 183.97328 
L 216.71299 182.583797 
L 216.100647 181.194314 
L 215.49085 179.804831 
L 214.883346 178.415347 
L 214.277696 177.025864 
L 213.673308 175.636381 
L 213.069482 174.246898 
L 212.465456 172.857415 
L 211.860464 171.467931 
L 211.253784 170.078448 
L 210.644794 168.688965 
L 210.033023 167.299482 
L 209.418199 165.909998 
L 208.800291 164.520515 
L 208.17954 163.131032 
L 207.556488 161.741549 
L 206.931981 160.352065 
L 206.307178 158.962582 
L 205.68353 157.573099 
L 205.062758 156.183616 
L 204.446814 154.794133 
L 203.837829 153.404649 
L 203.238064 152.015166 
L 202.649839 150.625683 
L 202.075479 149.2362 
L 201.517243 147.846716 
L 200.977272 146.457233 
L 200.457536 145.06775 
L 199.959796 143.678267 
L 199.485579 142.288783 
L 199.036163 140.8993 
L 198.612576 139.509817 
L 198.215618 138.120334 
L 197.84588 136.730851 
L 197.503783 135.341367 
L 197.189624 133.951884 
L 196.903616 132.562401 
L 196.645941 131.172918 
L 196.416792 129.783434 
L 196.216408 128.393951 
L 196.045109 127.004468 
L 195.903313 125.614985 
L 195.791553 124.225501 
L 195.710476 122.836018 
L 195.66084 121.446535 
L 195.6435 120.057052 
L 195.659399 118.667569 
L 195.709546 117.278085 
L 195.795001 115.888602 
L 195.916863 114.499119 
L 196.076254 113.109636 
L 196.274314 111.720152 
L 196.512194 110.330669 
L 196.791046 108.941186 
L 197.112024 107.551703 
L 197.476267 106.162219 
L 197.884881 104.772736 
L 198.33892 103.383253 
L 198.83934 101.99377 
L 199.386958 100.604286 
L 199.982386 99.214803 
L 200.625962 97.82532 
L 201.317671 96.435837 
L 202.057062 95.046354 
L 202.843165 93.65687 
L 203.674418 92.267387 
L 204.5486 90.877904 
L 205.462786 89.488421 
L 206.413327 88.098937 
L 207.395853 86.709454 
L 208.405308 85.319971 
L 209.436014 83.930488 
L 210.481767 82.541004 
L 211.535963 81.151521 
L 212.591739 79.762038 
L 213.642139 78.372555 
L 214.680283 76.983072 
L 215.699544 75.593588 
L 216.693712 74.204105 
L 217.657151 72.814622 
L 218.584929 71.425139 
L 219.472923 70.035655 
L 220.31789 68.646172 
L 221.117512 67.256689 
L 221.870394 65.867206 
L 222.576039 64.477722 
L 223.234787 63.088239 
L 223.847727 61.698756 
L 224.41659 60.309273 
L 224.943629 58.91979 
L 225.431485 57.530306 
L 225.883057 56.140823 
L 236.961943 56.140823 
L 236.961943 56.140823 
L 237.413515 57.530306 
L 237.901371 58.91979 
L 238.42841 60.309273 
L 238.997273 61.698756 
L 239.610213 63.088239 
L 240.268961 64.477722 
L 240.974606 65.867206 
L 241.727488 67.256689 
L 242.52711 68.646172 
L 243.372077 70.035655 
L 244.260071 71.425139 
L 245.187849 72.814622 
L 246.151288 74.204105 
L 247.145456 75.593588 
L 248.164717 76.983072 
L 249.202861 78.372555 
L 250.253261 79.762038 
L 251.309037 81.151521 
L 252.363233 82.541004 
L 253.408986 83.930488 
L 254.439692 85.319971 
L 255.449147 86.709454 
L 256.431673 88.098937 
L 257.382214 89.488421 
L 258.2964 90.877904 
L 259.170582 92.267387 
L 260.001835 93.65687 
L 260.787938 95.046354 
L 261.527329 96.435837 
L 262.219038 97.82532 
L 262.862614 99.214803 
L 263.458042 100.604286 
L 264.00566 101.99377 
L 264.50608 103.383253 
L 264.960119 104.772736 
L 265.368733 106.162219 
L 265.732976 107.551703 
L 266.053954 108.941186 
L 266.332806 110.330669 
L 266.570686 111.720152 
L 266.768746 113.109636 
L 266.928137 114.499119 
L 267.049999 115.888602 
L 267.135454 117.278085 
L 267.185601 118.667569 
L 267.2015 120.057052 
L 267.18416 121.446535 
L 267.134524 122.836018 
L 267.053447 124.225501 
L 266.941687 125.614985 
L 266.799891 127.004468 
L 266.628592 128.393951 
L 266.428208 129.783434 
L 266.199059 131.172918 
L 265.941384 132.562401 
L 265.655376 133.951884 
L 265.341217 135.341367 
L 264.99912 136.730851 
L 264.629382 138.120334 
L 264.232424 139.509817 
L 263.808837 140.8993 
L 263.359421 142.288783 
L 262.885204 143.678267 
L 262.387464 145.06775 
L 261.867728 146.457233 
L 261.327757 147.846716 
L 260.769521 149.2362 
L 260.195161 150.625683 
L 259.606936 152.015166 
L 259.007171 153.404649 
L 258.398186 154.794133 
L 257.782242 156.183616 
L 257.16147 157.573099 
L 256.537822 158.962582 
L 255.913019 160.352065 
L 255.288512 161.741549 
L 254.66546 163.131032 
L 254.044709 164.520515 
L 253.426801 165.909998 
L 252.811977 167.299482 
L 252.200206 168.688965 
L 251.591216 170.078448 
L 250.984536 171.467931 
L 250.379544 172.857415 
L 249.775518 174.246898 
L 249.171692 175.636381 
L 248.567304 177.025864 
L 247.961654 178.415347 
L 247.35415 179.804831 
L 246.744353 181.194314 
L 246.13201 182.583797 
L 245.517094 183.97328 
L 244.899819 185.362764 
L 244.28066 186.752247 
L 243.660361 188.14173 
L 243.03993 189.531213 
L 242.420633 190.920697 
L 241.803975 192.31018 
L 241.191672 193.699663 
z
" clip-path="url(#pdc0dc6a4e6)" style="fill: #6fa8a6; fill-opacity: 0.6"/>
   </g>
   <g id="FillBetweenPolyCollection_3">
    <path d="M 354.334381 148.777313 
L 347.037286 148.777313 
L 346.904395 147.633383 
L 346.78016 146.489452 
L 346.664497 145.345522 
L 346.557019 144.201592 
L 346.457025 143.057661 
L 346.363494 141.913731 
L 346.275089 140.7698 
L 346.190157 139.62587 
L 346.106738 138.48194 
L 346.022574 137.338009 
L 345.935125 136.194079 
L 345.841589 135.050148 
L 345.738927 133.906218 
L 345.623888 132.762288 
L 345.493051 131.618357 
L 345.342855 130.474427 
L 345.169656 129.330496 
L 344.969767 128.186566 
L 344.739518 127.042636 
L 344.475317 125.898705 
L 344.173705 124.754775 
L 343.831422 123.610845 
L 343.44547 122.466914 
L 343.013172 121.322984 
L 342.532233 120.179053 
L 342.000793 119.035123 
L 341.417479 117.891193 
L 340.781451 116.747262 
L 340.09244 115.603332 
L 339.350784 114.459401 
L 338.557455 113.315471 
L 337.714077 112.171541 
L 336.82294 111.02761 
L 335.887008 109.88368 
L 334.909911 108.739749 
L 333.895933 107.595819 
L 332.84999 106.451889 
L 331.777592 105.307958 
L 330.684799 104.164028 
L 329.578159 103.020098 
L 328.464636 101.876167 
L 327.351524 100.732237 
L 326.246354 99.588306 
L 325.156782 98.444376 
L 324.090482 97.300446 
L 323.055026 96.156515 
L 322.057762 95.012585 
L 321.105705 93.868654 
L 320.20542 92.724724 
L 319.362926 91.580794 
L 318.583608 90.436863 
L 317.872145 89.292933 
L 317.232459 88.149002 
L 316.667675 87.005072 
L 316.180106 85.861142 
L 315.771255 84.717211 
L 315.441831 83.573281 
L 315.191779 82.429351 
L 315.020326 81.28542 
L 314.926029 80.14149 
L 314.906833 78.997559 
L 314.960138 77.853629 
L 315.082853 76.709699 
L 315.271467 75.565768 
L 315.522105 74.421838 
L 315.830589 73.277907 
L 316.192496 72.133977 
L 316.603213 70.990047 
L 317.057994 69.846116 
L 317.552012 68.702186 
L 318.080416 67.558255 
L 318.638391 66.414325 
L 319.221214 65.270395 
L 319.824315 64.126464 
L 320.443342 62.982534 
L 321.074225 61.838604 
L 321.713235 60.694673 
L 322.357047 59.550743 
L 323.002796 58.406812 
L 323.648124 57.262882 
L 324.291217 56.118952 
L 324.930837 54.975021 
L 325.566329 53.831091 
L 326.197618 52.68716 
L 326.825188 51.54323 
L 327.450038 50.3993 
L 328.073619 49.255369 
L 328.697762 48.111439 
L 329.324574 46.967508 
L 329.956333 45.823578 
L 330.595366 44.679648 
L 331.243923 43.535717 
L 331.904048 42.391787 
L 332.577459 41.247856 
L 333.265432 40.103926 
L 333.968702 38.959996 
L 334.687389 37.816065 
L 335.420941 36.672135 
L 336.168104 35.528205 
L 365.203563 35.528205 
L 365.203563 35.528205 
L 365.950726 36.672135 
L 366.684277 37.816065 
L 367.402965 38.959996 
L 368.106235 40.103926 
L 368.794208 41.247856 
L 369.467619 42.391787 
L 370.127744 43.535717 
L 370.7763 44.679648 
L 371.415333 45.823578 
L 372.047092 46.967508 
L 372.673904 48.111439 
L 373.298047 49.255369 
L 373.921629 50.3993 
L 374.546478 51.54323 
L 375.174048 52.68716 
L 375.805338 53.831091 
L 376.44083 54.975021 
L 377.08045 56.118952 
L 377.723543 57.262882 
L 378.36887 58.406812 
L 379.014619 59.550743 
L 379.658432 60.694673 
L 380.297442 61.838604 
L 380.928324 62.982534 
L 381.547352 64.126464 
L 382.150453 65.270395 
L 382.733276 66.414325 
L 383.291251 67.558255 
L 383.819655 68.702186 
L 384.313673 69.846116 
L 384.768453 70.990047 
L 385.17917 72.133977 
L 385.541077 73.277907 
L 385.849561 74.421838 
L 386.100199 75.565768 
L 386.288813 76.709699 
L 386.411529 77.853629 
L 386.464833 78.997559 
L 386.445638 80.14149 
L 386.351341 81.28542 
L 386.179887 82.429351 
L 385.929836 83.573281 
L 385.600412 84.717211 
L 385.191561 85.861142 
L 384.703992 87.005072 
L 384.139208 88.149002 
L 383.499521 89.292933 
L 382.788059 90.436863 
L 382.008741 91.580794 
L 381.166247 92.724724 
L 380.265962 93.868654 
L 379.313904 95.012585 
L 378.316641 96.156515 
L 377.281185 97.300446 
L 376.214885 98.444376 
L 375.125313 99.588306 
L 374.020142 100.732237 
L 372.907031 101.876167 
L 371.793508 103.020098 
L 370.686868 104.164028 
L 369.594075 105.307958 
L 368.521677 106.451889 
L 367.475733 107.595819 
L 366.461755 108.739749 
L 365.484658 109.88368 
L 364.548726 111.02761 
L 363.65759 112.171541 
L 362.814212 113.315471 
L 362.020883 114.459401 
L 361.279227 115.603332 
L 360.590216 116.747262 
L 359.954188 117.891193 
L 359.370874 119.035123 
L 358.839433 120.179053 
L 358.358494 121.322984 
L 357.926197 122.466914 
L 357.540245 123.610845 
L 357.197962 124.754775 
L 356.89635 125.898705 
L 356.632148 127.042636 
L 356.4019 128.186566 
L 356.202011 129.330496 
L 356.028811 130.474427 
L 355.878616 131.618357 
L 355.747778 132.762288 
L 355.63274 133.906218 
L 355.530077 135.050148 
L 355.436542 136.194079 
L 355.349093 137.338009 
L 355.264928 138.48194 
L 355.181509 139.62587 
L 355.096578 140.7698 
L 355.008173 141.913731 
L 354.914642 143.057661 
L 354.814647 144.201592 
L 354.707169 145.345522 
L 354.591507 146.489452 
L 354.467272 147.633383 
L 354.334381 148.777313 
z
" clip-path="url(#pdc0dc6a4e6)" style="fill: #9ccb9e; fill-opacity: 0.6"/>
   </g>
   <g id="patch_3">
    <path d="M 94.269667 212.794457 
L 130.048667 212.794457 
L 130.048667 169.879529 
L 94.269667 169.879529 
L 94.269667 212.794457 
z
" clip-path="url(#pdc0dc6a4e6)" style="fill: #ffffff; stroke: #808080; stroke-linejoin: miter"/>
   </g>
   <g id="line2d_16">
    <path d="M 112.159167 212.794457 
L 112.159167 272.437295 
" clip-path="url(#pdc0dc6a4e6)" style="fill: none; stroke: #808080; stroke-linecap: square"/>
   </g>
   <g id="line2d_17">
    <path d="M 112.159167 169.879529 
L 112.159167 114.898665 
" clip-path="url(#pdc0dc6a4e6)" style="fill: none; stroke: #808080; stroke-linecap: square"/>
   </g>
   <g id="line2d_18">
    <path d="M 103.214417 272.437295 
L 121.103917 272.437295 
" clip-path="url(#pdc0dc6a4e6)" style="fill: none; stroke: #808080; stroke-linecap: square"/>
   </g>
   <g id="line2d_19">
    <path d="M 103.214417 114.898665 
L 121.103917 114.898665 
" clip-path="url(#pdc0dc6a4e6)" style="fill: none; stroke: #808080; stroke-linecap: square"/>
   </g>
   <g id="patch_4">
    <path d="M 213.533 148.571796 
L 249.312 148.571796 
L 249.312 103.327768 
L 213.533 103.327768 
L 213.533 148.571796 
z
" clip-path="url(#pdc0dc6a4e6)" style="fill: #ffffff; stroke: #808080; stroke-linejoin: miter"/>
   </g>
   <g id="line2d_20">
    <path d="M 231.4225 148.571796 
L 231.4225 193.699663 
" clip-path="url(#pdc0dc6a4e6)" style="fill: none; stroke: #808080; stroke-linecap: square"/>
   </g>
   <g id="line2d_21">
    <path d="M 231.4225 103.327768 
L 231.4225 56.140823 
" clip-path="url(#pdc0dc6a4e6)" style="fill: none; stroke: #808080; stroke-linecap: square"/>
   </g>
   <g id="line2d_22">
    <path d="M 222.47775 193.699663 
L 240.36725 193.699663 
" clip-path="url(#pdc0dc6a4e6)" style="fill: none; stroke: #808080; stroke-linecap: square"/>
   </g>
   <g id="line2d_23">
    <path d="M 222.47775 56.140823 
L 240.36725 56.140823 
" clip-path="url(#pdc0dc6a4e6)" style="fill: none; stroke: #808080; stroke-linecap: square"/>
   </g>
   <g id="patch_5">
    <path d="M 332.796333 91.789854 
L 368.575333 91.789854 
L 368.575333 57.908859 
L 332.796333 57.908859 
L 332.796333 91.789854 
z
" clip-path="url(#pdc0dc6a4e6)" style="fill: #ffffff; stroke: #808080; stroke-linejoin: miter"/>
   </g>
   <g id="line2d_24">
    <path d="M 350.685833 91.789854 
L 350.685833 131.667672 
" clip-path="url(#pdc0dc6a4e6)" style="fill: none; stroke: #808080; stroke-linecap: square"/>
   </g>
   <g id="line2d_25">
    <path d="M 350.685833 57.908859 
L 350.685833 35.528205 
" clip-path="url(#pdc0dc6a4e6)" style="fill: none; stroke: #808080; stroke-linecap: square"/>
   </g>
   <g id="line2d_26">
    <path d="M 341.741083 131.667672 
L 359.630583 131.667672 
" clip-path="url(#pdc0dc6a4e6)" style="fill: none; stroke: #808080; stroke-linecap: square"/>
   </g>
   <g id="line2d_27">
    <path d="M 341.741083 35.528205 
L 359.630583 35.528205 
" clip-path="url(#pdc0dc6a4e6)" style="fill: none; stroke: #808080; stroke-linecap: square"/>
   </g>
   <g id="line2d_28">
    <path d="M 94.269667 196.695229 
L 130.048667 196.695229 
" clip-path="url(#pdc0dc6a4e6)" style="fill: none; stroke: #808080; stroke-width: 1.5"/>
   </g>
   <g id="line2d_29">
    <path d="M 213.533 125.312745 
L 249.312 125.312745 
" clip-path="url(#pdc0dc6a4e6)" style="fill: none; stroke: #808080; stroke-width: 1.5"/>
   </g>
   <g id="line2d_30">
    <path d="M 332.796333 77.181631 
L 368.575333 77.181631 
" clip-path="url(#pdc0dc6a4e6)" style="fill: none; stroke: #808080; stroke-width: 1.5"/>
   </g>
   <g id="patch_6">
    <path d="M 52.5275 284.28275 
L 52.5275 23.68275 
" style="fill: none; stroke: #000000; stroke-width: 1.2; stroke-linejoin: miter; stroke-linecap: square"/>
   </g>
   <g id="patch_7">
    <path d="M 52.5275 284.28275 
L 410.3175 284.28275 
" style="fill: none; stroke: #000000; stroke-width: 1.2; stroke-linejoin: miter; stroke-linecap: square"/>
   </g>
   <g id="PathCollection_1">
    <defs>
     <path id="m6363f6d6bf" d="M 0 1.936492 
C 0.513564 1.936492 1.006162 1.732451 1.369306 1.369306 
C 1.732451 1.006162 1.936492 0.513564 1.936492 0 
C 1.936492 -0.513564 1.732451 -1.006162 1.369306 -1.369306 
C 1.006162 -1.732451 0.513564 -1.936492 0 -1.936492 
C -0.513564 -1.936492 -1.006162 -1.732451 -1.369306 -1.369306 
C -1.732451 -1.006162 -1.936492 -0.513564 -1.936492 0 
C -1.936492 0.513564 -1.732451 1.006162 -1.369306 1.369306 
C -1.006162 1.732451 -0.513564 1.936492 0 1.936492 
z
" style="stroke: #5b8db8; stroke-opacity: 0.5"/>
    </defs>
    <g clip-path="url(#pdc0dc6a4e6)">
     <use xlink:href="#m6363f6d6bf" x="112.622278" y="163.727783" style="fill: #5b8db8; fill-opacity: 0.5; stroke: #5b8db8; stroke-opacity: 0.5"/>
     <use xlink:href="#m6363f6d6bf" x="116.78012" y="192.370255" style="fill: #5b8db8; fill-opacity: 0.5; stroke: #5b8db8; stroke-opacity: 0.5"/>
     <use xlink:href="#m6363f6d6bf" x="108.809999" y="156.917663" style="fill: #5b8db8; fill-opacity: 0.5; stroke: #5b8db8; stroke-opacity: 0.5"/>
     <use xlink:href="#m6363f6d6bf" x="110.596043" y="117.432954" style="fill: #5b8db8; fill-opacity: 0.5; stroke: #5b8db8; stroke-opacity: 0.5"/>
     <use xlink:href="#m6363f6d6bf" x="110.288602" y="196.695599" style="fill: #5b8db8; fill-opacity: 0.5; stroke: #5b8db8; stroke-opacity: 0.5"/>
     <use xlink:href="#m6363f6d6bf" x="105.17742" y="196.694859" style="fill: #5b8db8; fill-opacity: 0.5; stroke: #5b8db8; stroke-opacity: 0.5"/>
     <use xlink:href="#m6363f6d6bf" x="113.571818" y="114.898665" style="fill: #5b8db8; fill-opacity: 0.5; stroke: #5b8db8; stroke-opacity: 0.5"/>
     <use xlink:href="#m6363f6d6bf" x="113.40454" y="151.516177" style="fill: #5b8db8; fill-opacity: 0.5; stroke: #5b8db8; stroke-opacity: 0.5"/>
     <use xlink:href="#m6363f6d6bf" x="112.183561" y="207.310409" style="fill: #5b8db8; fill-opacity: 0.5; stroke: #5b8db8; stroke-opacity: 0.5"/>
     <use xlink:href="#m6363f6d6bf" x="111.040061" y="161.659776" style="fill: #5b8db8; fill-opacity: 0.5; stroke: #5b8db8; stroke-opacity: 0.5"/>
     <use xlink:href="#m6363f6d6bf" x="105.407093" y="207.037205" style="fill: #5b8db8; fill-opacity: 0.5; stroke: #5b8db8; stroke-opacity: 0.5"/>
     <use xlink:href="#m6363f6d6bf" x="110.152464" y="207.141497" style="fill: #5b8db8; fill-opacity: 0.5; stroke: #5b8db8; stroke-opacity: 0.5"/>
     <use xlink:href="#m6363f6d6bf" x="110.524236" y="175.219076" style="fill: #5b8db8; fill-opacity: 0.5; stroke: #5b8db8; stroke-opacity: 0.5"/>
     <use xlink:href="#m6363f6d6bf" x="108.331876" y="272.437295" style="fill: #5b8db8; fill-opacity: 0.5; stroke: #5b8db8; stroke-opacity: 0.5"/>
     <use xlink:href="#m6363f6d6bf" x="111.389748" y="263.940684" style="fill: #5b8db8; fill-opacity: 0.5; stroke: #5b8db8; stroke-opacity: 0.5"/>
     <use xlink:href="#m6363f6d6bf" x="114.086705" y="211.497005" style="fill: #5b8db8; fill-opacity: 0.5; stroke: #5b8db8; stroke-opacity: 0.5"/>
     <use xlink:href="#m6363f6d6bf" x="121.157279" y="231.820029" style="fill: #5b8db8; fill-opacity: 0.5; stroke: #5b8db8; stroke-opacity: 0.5"/>
     <use xlink:href="#m6363f6d6bf" x="112.991996" y="171.958457" style="fill: #5b8db8; fill-opacity: 0.5; stroke: #5b8db8; stroke-opacity: 0.5"/>
     <use xlink:href="#m6363f6d6bf" x="113.387819" y="227.092415" style="fill: #5b8db8; fill-opacity: 0.5; stroke: #5b8db8; stroke-opacity: 0.5"/>
     <use xlink:href="#m6363f6d6bf" x="111.80402" y="249.839353" style="fill: #5b8db8; fill-opacity: 0.5; stroke: #5b8db8; stroke-opacity: 0.5"/>
     <use xlink:href="#m6363f6d6bf" x="103.005605" y="120.021287" style="fill: #5b8db8; fill-opacity: 0.5; stroke: #5b8db8; stroke-opacity: 0.5"/>
     <use xlink:href="#m6363f6d6bf" x="112.032681" y="196.317728" style="fill: #5b8db8; fill-opacity: 0.5; stroke: #5b8db8; stroke-opacity: 0.5"/>
     <use xlink:href="#m6363f6d6bf" x="112.446497" y="183.087411" style="fill: #5b8db8; fill-opacity: 0.5; stroke: #5b8db8; stroke-opacity: 0.5"/>
     <use xlink:href="#m6363f6d6bf" x="123.910145" y="250.400696" style="fill: #5b8db8; fill-opacity: 0.5; stroke: #5b8db8; stroke-opacity: 0.5"/>
     <use xlink:href="#m6363f6d6bf" x="111.241502" y="210.689359" style="fill: #5b8db8; fill-opacity: 0.5; stroke: #5b8db8; stroke-opacity: 0.5"/>
     <use xlink:href="#m6363f6d6bf" x="113.597708" y="181.129986" style="fill: #5b8db8; fill-opacity: 0.5; stroke: #5b8db8; stroke-opacity: 0.5"/>
     <use xlink:href="#m6363f6d6bf" x="111.993573" y="238.052231" style="fill: #5b8db8; fill-opacity: 0.5; stroke: #5b8db8; stroke-opacity: 0.5"/>
     <use xlink:href="#m6363f6d6bf" x="106.583949" y="169.186553" style="fill: #5b8db8; fill-opacity: 0.5; stroke: #5b8db8; stroke-opacity: 0.5"/>
     <use xlink:href="#m6363f6d6bf" x="117.611041" y="213.226941" style="fill: #5b8db8; fill-opacity: 0.5; stroke: #5b8db8; stroke-opacity: 0.5"/>
     <use xlink:href="#m6363f6d6bf" x="115.746288" y="199.291118" style="fill: #5b8db8; fill-opacity: 0.5; stroke: #5b8db8; stroke-opacity: 0.5"/>
    </g>
   </g>
   <g id="PathCollection_2">
    <defs>
     <path id="ma1109fed1b" d="M 0 1.936492 
C 0.513564 1.936492 1.006162 1.732451 1.369306 1.369306 
C 1.732451 1.006162 1.936492 0.513564 1.936492 0 
C 1.936492 -0.513564 1.732451 -1.006162 1.369306 -1.369306 
C 1.006162 -1.732451 0.513564 -1.936492 0 -1.936492 
C -0.513564 -1.936492 -1.006162 -1.732451 -1.369306 -1.369306 
C -1.732451 -1.006162 -1.936492 -0.513564 -1.936492 0 
C -1.936492 0.513564 -1.732451 1.006162 -1.369306 1.369306 
C -1.006162 1.732451 -0.513564 1.936492 0 1.936492 
z
" style="stroke: #6fa8a6; stroke-opacity: 0.5"/>
    </defs>
    <g clip-path="url(#pdc0dc6a4e6)">
     <use xlink:href="#ma1109fed1b" x="235.196144" y="144.695881" style="fill: #6fa8a6; fill-opacity: 0.5; stroke: #6fa8a6; stroke-opacity: 0.5"/>
     <use xlink:href="#ma1109fed1b" x="227.084237" y="56.140823" style="fill: #6fa8a6; fill-opacity: 0.5; stroke: #6fa8a6; stroke-opacity: 0.5"/>
     <use xlink:href="#ma1109fed1b" x="238.114577" y="123.469622" style="fill: #6fa8a6; fill-opacity: 0.5; stroke: #6fa8a6; stroke-opacity: 0.5"/>
     <use xlink:href="#ma1109fed1b" x="224.734923" y="161.151357" style="fill: #6fa8a6; fill-opacity: 0.5; stroke: #6fa8a6; stroke-opacity: 0.5"/>
     <use xlink:href="#ma1109fed1b" x="234.222121" y="93.300014" style="fill: #6fa8a6; fill-opacity: 0.5; stroke: #6fa8a6; stroke-opacity: 0.5"/>
     <use xlink:href="#ma1109fed1b" x="241.872142" y="167.038202" style="fill: #6fa8a6; fill-opacity: 0.5; stroke: #6fa8a6; stroke-opacity: 0.5"/>
     <use xlink:href="#ma1109fed1b" x="226.697113" y="115.445458" style="fill: #6fa8a6; fill-opacity: 0.5; stroke: #6fa8a6; stroke-opacity: 0.5"/>
     <use xlink:href="#ma1109fed1b" x="228.720958" y="193.699663" style="fill: #6fa8a6; fill-opacity: 0.5; stroke: #6fa8a6; stroke-opacity: 0.5"/>
     <use xlink:href="#ma1109fed1b" x="231.89789" y="170.911784" style="fill: #6fa8a6; fill-opacity: 0.5; stroke: #6fa8a6; stroke-opacity: 0.5"/>
     <use xlink:href="#ma1109fed1b" x="229.020653" y="115.878578" style="fill: #6fa8a6; fill-opacity: 0.5; stroke: #6fa8a6; stroke-opacity: 0.5"/>
     <use xlink:href="#ma1109fed1b" x="224.025008" y="96.334084" style="fill: #6fa8a6; fill-opacity: 0.5; stroke: #6fa8a6; stroke-opacity: 0.5"/>
     <use xlink:href="#ma1109fed1b" x="231.749582" y="116.798523" style="fill: #6fa8a6; fill-opacity: 0.5; stroke: #6fa8a6; stroke-opacity: 0.5"/>
     <use xlink:href="#ma1109fed1b" x="226.354745" y="127.155868" style="fill: #6fa8a6; fill-opacity: 0.5; stroke: #6fa8a6; stroke-opacity: 0.5"/>
     <use xlink:href="#ma1109fed1b" x="233.681788" y="133.848255" style="fill: #6fa8a6; fill-opacity: 0.5; stroke: #6fa8a6; stroke-opacity: 0.5"/>
     <use xlink:href="#ma1109fed1b" x="227.036356" y="176.336841" style="fill: #6fa8a6; fill-opacity: 0.5; stroke: #6fa8a6; stroke-opacity: 0.5"/>
     <use xlink:href="#ma1109fed1b" x="238.816514" y="148.959021" style="fill: #6fa8a6; fill-opacity: 0.5; stroke: #6fa8a6; stroke-opacity: 0.5"/>
     <use xlink:href="#ma1109fed1b" x="227.685964" y="139.605274" style="fill: #6fa8a6; fill-opacity: 0.5; stroke: #6fa8a6; stroke-opacity: 0.5"/>
     <use xlink:href="#ma1109fed1b" x="229.886095" y="84.835003" style="fill: #6fa8a6; fill-opacity: 0.5; stroke: #6fa8a6; stroke-opacity: 0.5"/>
     <use xlink:href="#ma1109fed1b" x="235.303411" y="110.58267" style="fill: #6fa8a6; fill-opacity: 0.5; stroke: #6fa8a6; stroke-opacity: 0.5"/>
     <use xlink:href="#ma1109fed1b" x="225.550621" y="186.604029" style="fill: #6fa8a6; fill-opacity: 0.5; stroke: #6fa8a6; stroke-opacity: 0.5"/>
     <use xlink:href="#ma1109fed1b" x="232.507605" y="111.28759" style="fill: #6fa8a6; fill-opacity: 0.5; stroke: #6fa8a6; stroke-opacity: 0.5"/>
     <use xlink:href="#ma1109fed1b" x="237.658268" y="136.878725" style="fill: #6fa8a6; fill-opacity: 0.5; stroke: #6fa8a6; stroke-opacity: 0.5"/>
     <use xlink:href="#ma1109fed1b" x="223.753948" y="147.41012" style="fill: #6fa8a6; fill-opacity: 0.5; stroke: #6fa8a6; stroke-opacity: 0.5"/>
     <use xlink:href="#ma1109fed1b" x="232.303302" y="100.909467" style="fill: #6fa8a6; fill-opacity: 0.5; stroke: #6fa8a6; stroke-opacity: 0.5"/>
     <use xlink:href="#ma1109fed1b" x="232.66228" y="85.777673" style="fill: #6fa8a6; fill-opacity: 0.5; stroke: #6fa8a6; stroke-opacity: 0.5"/>
     <use xlink:href="#ma1109fed1b" x="235.152212" y="89.37617" style="fill: #6fa8a6; fill-opacity: 0.5; stroke: #6fa8a6; stroke-opacity: 0.5"/>
     <use xlink:href="#ma1109fed1b" x="225.521585" y="153.266754" style="fill: #6fa8a6; fill-opacity: 0.5; stroke: #6fa8a6; stroke-opacity: 0.5"/>
     <use xlink:href="#ma1109fed1b" x="225.123218" y="134.140867" style="fill: #6fa8a6; fill-opacity: 0.5; stroke: #6fa8a6; stroke-opacity: 0.5"/>
     <use xlink:href="#ma1109fed1b" x="233.91244" y="111.02851" style="fill: #6fa8a6; fill-opacity: 0.5; stroke: #6fa8a6; stroke-opacity: 0.5"/>
     <use xlink:href="#ma1109fed1b" x="232.839275" y="87.778813" style="fill: #6fa8a6; fill-opacity: 0.5; stroke: #6fa8a6; stroke-opacity: 0.5"/>
    </g>
   </g>
   <g id="PathCollection_3">
    <defs>
     <path id="mf25a12f0cc" d="M 0 1.936492 
C 0.513564 1.936492 1.006162 1.732451 1.369306 1.369306 
C 1.732451 1.006162 1.936492 0.513564 1.936492 0 
C 1.936492 -0.513564 1.732451 -1.006162 1.369306 -1.369306 
C 1.006162 -1.732451 0.513564 -1.936492 0 -1.936492 
C -0.513564 -1.936492 -1.006162 -1.732451 -1.369306 -1.369306 
C -1.732451 -1.006162 -1.936492 -0.513564 -1.936492 0 
C -1.936492 0.513564 -1.732451 1.006162 -1.369306 1.369306 
C -1.006162 1.732451 -0.513564 1.936492 0 1.936492 
z
" style="stroke: #9ccb9e; stroke-opacity: 0.5"/>
    </defs>
    <g clip-path="url(#pdc0dc6a4e6)">
     <use xlink:href="#mf25a12f0cc" x="351.880818" y="90.843465" style="fill: #9ccb9e; fill-opacity: 0.5; stroke: #9ccb9e; stroke-opacity: 0.5"/>
     <use xlink:href="#mf25a12f0cc" x="352.338576" y="82.899571" style="fill: #9ccb9e; fill-opacity: 0.5; stroke: #9ccb9e; stroke-opacity: 0.5"/>
     <use xlink:href="#mf25a12f0cc" x="347.441753" y="107.817365" style="fill: #9ccb9e; fill-opacity: 0.5; stroke: #9ccb9e; stroke-opacity: 0.5"/>
     <use xlink:href="#mf25a12f0cc" x="351.793807" y="110.249711" style="fill: #9ccb9e; fill-opacity: 0.5; stroke: #9ccb9e; stroke-opacity: 0.5"/>
     <use xlink:href="#mf25a12f0cc" x="352.083945" y="55.884027" style="fill: #9ccb9e; fill-opacity: 0.5; stroke: #9ccb9e; stroke-opacity: 0.5"/>
     <use xlink:href="#mf25a12f0cc" x="347.277996" y="41.16858" style="fill: #9ccb9e; fill-opacity: 0.5; stroke: #9ccb9e; stroke-opacity: 0.5"/>
     <use xlink:href="#mf25a12f0cc" x="359.586573" y="79.823702" style="fill: #9ccb9e; fill-opacity: 0.5; stroke: #9ccb9e; stroke-opacity: 0.5"/>
     <use xlink:href="#mf25a12f0cc" x="352.946269" y="50.714483" style="fill: #9ccb9e; fill-opacity: 0.5; stroke: #9ccb9e; stroke-opacity: 0.5"/>
     <use xlink:href="#mf25a12f0cc" x="345.00268" y="68.087211" style="fill: #9ccb9e; fill-opacity: 0.5; stroke: #9ccb9e; stroke-opacity: 0.5"/>
     <use xlink:href="#mf25a12f0cc" x="353.817944" y="95.334726" style="fill: #9ccb9e; fill-opacity: 0.5; stroke: #9ccb9e; stroke-opacity: 0.5"/>
     <use xlink:href="#mf25a12f0cc" x="346.036082" y="68.093718" style="fill: #9ccb9e; fill-opacity: 0.5; stroke: #9ccb9e; stroke-opacity: 0.5"/>
     <use xlink:href="#mf25a12f0cc" x="354.440647" y="36.248317" style="fill: #9ccb9e; fill-opacity: 0.5; stroke: #9ccb9e; stroke-opacity: 0.5"/>
     <use xlink:href="#mf25a12f0cc" x="356.212952" y="78.844392" style="fill: #9ccb9e; fill-opacity: 0.5; stroke: #9ccb9e; stroke-opacity: 0.5"/>
     <use xlink:href="#mf25a12f0cc" x="346.770741" y="35.528205" style="fill: #9ccb9e; fill-opacity: 0.5; stroke: #9ccb9e; stroke-opacity: 0.5"/>
     <use xlink:href="#mf25a12f0cc" x="355.281651" y="148.777313" style="fill: #9ccb9e; fill-opacity: 0.5; stroke: #9ccb9e; stroke-opacity: 0.5"/>
     <use xlink:href="#mf25a12f0cc" x="352.655019" y="55.63025" style="fill: #9ccb9e; fill-opacity: 0.5; stroke: #9ccb9e; stroke-opacity: 0.5"/>
     <use xlink:href="#mf25a12f0cc" x="354.607499" y="75.518871" style="fill: #9ccb9e; fill-opacity: 0.5; stroke: #9ccb9e; stroke-opacity: 0.5"/>
     <use xlink:href="#mf25a12f0cc" x="359.734547" y="85.967307" style="fill: #9ccb9e; fill-opacity: 0.5; stroke: #9ccb9e; stroke-opacity: 0.5"/>
     <use xlink:href="#mf25a12f0cc" x="349.515201" y="75.391296" style="fill: #9ccb9e; fill-opacity: 0.5; stroke: #9ccb9e; stroke-opacity: 0.5"/>
     <use xlink:href="#mf25a12f0cc" x="347.09011" y="131.667672" style="fill: #9ccb9e; fill-opacity: 0.5; stroke: #9ccb9e; stroke-opacity: 0.5"/>
     <use xlink:href="#mf25a12f0cc" x="346.442375" y="83.820119" style="fill: #9ccb9e; fill-opacity: 0.5; stroke: #9ccb9e; stroke-opacity: 0.5"/>
     <use xlink:href="#mf25a12f0cc" x="346.793983" y="68.209637" style="fill: #9ccb9e; fill-opacity: 0.5; stroke: #9ccb9e; stroke-opacity: 0.5"/>
     <use xlink:href="#mf25a12f0cc" x="350.318017" y="37.876054" style="fill: #9ccb9e; fill-opacity: 0.5; stroke: #9ccb9e; stroke-opacity: 0.5"/>
     <use xlink:href="#mf25a12f0cc" x="352.31331" y="91.901585" style="fill: #9ccb9e; fill-opacity: 0.5; stroke: #9ccb9e; stroke-opacity: 0.5"/>
     <use xlink:href="#mf25a12f0cc" x="352.005796" y="99.756386" style="fill: #9ccb9e; fill-opacity: 0.5; stroke: #9ccb9e; stroke-opacity: 0.5"/>
     <use xlink:href="#mf25a12f0cc" x="354.631939" y="91.454661" style="fill: #9ccb9e; fill-opacity: 0.5; stroke: #9ccb9e; stroke-opacity: 0.5"/>
     <use xlink:href="#mf25a12f0cc" x="350.747859" y="53.099714" style="fill: #9ccb9e; fill-opacity: 0.5; stroke: #9ccb9e; stroke-opacity: 0.5"/>
     <use xlink:href="#mf25a12f0cc" x="357.619966" y="68.977231" style="fill: #9ccb9e; fill-opacity: 0.5; stroke: #9ccb9e; stroke-opacity: 0.5"/>
     <use xlink:href="#mf25a12f0cc" x="349.423279" y="92.212558" style="fill: #9ccb9e; fill-opacity: 0.5; stroke: #9ccb9e; stroke-opacity: 0.5"/>
     <use xlink:href="#mf25a12f0cc" x="363.662491" y="63.983357" style="fill: #9ccb9e; fill-opacity: 0.5; stroke: #9ccb9e; stroke-opacity: 0.5"/>
    </g>
   </g>
   <g id="text_11">
    <text style="font-size: 14.4px; font-family: 'Arial', 'Helvetica', 'DejaVu Sans', 'Bitstream Vera Sans', 'Computer Modern Sans Serif', 'Lucida Grande', 'Verdana', 'Geneva', 'Lucid', 'Avant Garde', sans-serif; text-anchor: middle" x="231.4225" y="17.68275" transform="rotate(-0 231.4225 17.68275)">Model Performance Comparison</text>
   </g>
  </g>
 </g>
 <defs>
  <clipPath id="pdc0dc6a4e6">
   <rect x="52.5275" y="23.68275" width="357.79" height="260.6"/>
  </clipPath>
 </defs>
</svg>
