<?xml version="1.0" encoding="utf-8" standalone="no"?>
<!DOCTYPE svg PUBLIC "-//W3C//DTD SVG 1.1//EN"
  "http://www.w3.org/Graphics/SVG/1.1/DTD/svg11.dtd">
<svg xmlns:xlink="http://www.w3.org/1999/xlink" width="489.55125pt" height="345.456pt" viewBox="0 0 489.55125 345.456" xmlns="http://www.w3.org/2000/svg" version="1.1">
 <metadata>
  <rdf:RDF xmlns:dc="http://purl.org/dc/elements/1.1/" xmlns:cc="http://creativecommons.org/ns#" xmlns:rdf="http://www.w3.org/1999/02/22-rdf-syntax-ns#">
   <cc:Work>
    <dc:type rdf:resource="http://purl.org/dc/dcmitype/StillImage"/>
    <dc:date>2026-05-20T17:57:48.784962</dc:date>
    <dc:format>image/svg+xml</dc:format>
    <dc:creator>
     <cc:Agent>
      <dc:title>Matplotlib v3.10.9, https://matplotlib.org/</dc:title>
     </cc:Agent>
    </dc:creator>
   </cc:Work>
  </rdf:RDF>
 </metadata>
 <defs>
  <style type="text/css">*{stroke-linejoin: round; stroke-linecap: butt}</style>
 </defs>
 <g id="figure_1">
  <g id="patch_1">
   <path d="M 0 345.456 
L 489.55125 345.456 
L 489.55125 0 
L 0 0 
z
" style="fill: #ffffff"/>
  </g>
  <g id="axes_1">
   <g id="patch_2">
    <path d="M 42.66125 305.30725 
L 482.35125 305.30725 
L 482.35125 23.50725 
L 42.66125 23.50725 
z
" style="fill: #ffffff"/>
   </g>
   <g id="patch_3">
    <path d="M 353.901304 305.30725 
L 356.612905 305.30725 
L 356.612905 298.597726 
L 353.901304 298.597726 
z
" clip-path="url(#paa40561743)" style="fill: #5b8db8; opacity: 0.6; stroke: #000000; stroke-width: 0.8; stroke-linejoin: miter"/>
   </g>
   <g id="patch_4">
    <path d="M 356.612905 305.30725 
L 359.324506 305.30725 
L 359.324506 305.30725 
L 356.612905 305.30725 
z
" clip-path="url(#paa40561743)" style="fill: #5b8db8; opacity: 0.6; stroke: #000000; stroke-width: 0.8; stroke-linejoin: miter"/>
   </g>
   <g id="patch_5">
    <path d="M 359.324506 305.30725 
L 362.036107 305.30725 
L 362.036107 298.597726 
L 359.324506 298.597726 
z
" clip-path="url(#paa40561743)" style="fill: #5b8db8; opacity: 0.6; stroke: #000000; stroke-width: 0.8; stroke-linejoin: miter"/>
   </g>
   <g id="patch_6">
    <path d="M 362.036107 305.30725 
L 364.747707 305.30725 
L 364.747707 291.888202 
L 362.036107 291.888202 
z
" clip-path="url(#paa40561743)" style="fill: #5b8db8; opacity: 0.6; stroke: #000000; stroke-width: 0.8; stroke-linejoin: miter"/>
   </g>
   <g id="patch_7">
    <path d="M 364.747707 305.30725 
L 367.459308 305.30725 
L 367.459308 291.888202 
L 364.747707 291.888202 
z
" clip-path="url(#paa40561743)" style="fill: #5b8db8; opacity: 0.6; stroke: #000000; stroke-width: 0.8; stroke-linejoin: miter"/>
   </g>
   <g id="patch_8">
    <path d="M 367.459308 305.30725 
L 370.170909 305.30725 
L 370.170909 278.469155 
L 367.459308 278.469155 
z
" clip-path="url(#paa40561743)" style="fill: #5b8db8; opacity: 0.6; stroke: #000000; stroke-width: 0.8; stroke-linejoin: miter"/>
   </g>
   <g id="patch_9">
    <path d="M 370.170909 305.30725 
L 372.88251 305.30725 
L 372.88251 285.178679 
L 370.170909 285.178679 
z
" clip-path="url(#paa40561743)" style="fill: #5b8db8; opacity: 0.6; stroke: #000000; stroke-width: 0.8; stroke-linejoin: miter"/>
   </g>
   <g id="patch_10">
    <path d="M 372.88251 305.30725 
L 375.594111 305.30725 
L 375.594111 291.888202 
L 372.88251 291.888202 
z
" clip-path="url(#paa40561743)" style="fill: #5b8db8; opacity: 0.6; stroke: #000000; stroke-width: 0.8; stroke-linejoin: miter"/>
   </g>
   <g id="patch_11">
    <path d="M 375.594111 305.30725 
L 378.305712 305.30725 
L 378.305712 265.050107 
L 375.594111 265.050107 
z
" clip-path="url(#paa40561743)" style="fill: #5b8db8; opacity: 0.6; stroke: #000000; stroke-width: 0.8; stroke-linejoin: miter"/>
   </g>
   <g id="patch_12">
    <path d="M 378.305712 305.30725 
L 381.017313 305.30725 
L 381.017313 265.050107 
L 378.305712 265.050107 
z
" clip-path="url(#paa40561743)" style="fill: #5b8db8; opacity: 0.6; stroke: #000000; stroke-width: 0.8; stroke-linejoin: miter"/>
   </g>
   <g id="patch_13">
    <path d="M 381.017313 305.30725 
L 383.728914 305.30725 
L 383.728914 285.178679 
L 381.017313 285.178679 
z
" clip-path="url(#paa40561743)" style="fill: #5b8db8; opacity: 0.6; stroke: #000000; stroke-width: 0.8; stroke-linejoin: miter"/>
   </g>
   <g id="patch_14">
    <path d="M 383.728914 305.30725 
L 386.440515 305.30725 
L 386.440515 298.597726 
L 383.728914 298.597726 
z
" clip-path="url(#paa40561743)" style="fill: #5b8db8; opacity: 0.6; stroke: #000000; stroke-width: 0.8; stroke-linejoin: miter"/>
   </g>
   <g id="patch_15">
    <path d="M 386.440515 305.30725 
L 389.152116 305.30725 
L 389.152116 285.178679 
L 386.440515 285.178679 
z
" clip-path="url(#paa40561743)" style="fill: #5b8db8; opacity: 0.6; stroke: #000000; stroke-width: 0.8; stroke-linejoin: miter"/>
   </g>
   <g id="patch_16">
    <path d="M 389.152116 305.30725 
L 391.863717 305.30725 
L 391.863717 291.888202 
L 389.152116 291.888202 
z
" clip-path="url(#paa40561743)" style="fill: #5b8db8; opacity: 0.6; stroke: #000000; stroke-width: 0.8; stroke-linejoin: miter"/>
   </g>
   <g id="patch_17">
    <path d="M 391.863717 305.30725 
L 394.575318 305.30725 
L 394.575318 278.469155 
L 391.863717 278.469155 
z
" clip-path="url(#paa40561743)" style="fill: #5b8db8; opacity: 0.6; stroke: #000000; stroke-width: 0.8; stroke-linejoin: miter"/>
   </g>
   <g id="patch_18">
    <path d="M 394.575318 305.30725 
L 397.286919 305.30725 
L 397.286919 278.469155 
L 394.575318 278.469155 
z
" clip-path="url(#paa40561743)" style="fill: #5b8db8; opacity: 0.6; stroke: #000000; stroke-width: 0.8; stroke-linejoin: miter"/>
   </g>
   <g id="patch_19">
    <path d="M 397.286919 305.30725 
L 399.99852 305.30725 
L 399.99852 285.178679 
L 397.286919 285.178679 
z
" clip-path="url(#paa40561743)" style="fill: #5b8db8; opacity: 0.6; stroke: #000000; stroke-width: 0.8; stroke-linejoin: miter"/>
   </g>
   <g id="patch_20">
    <path d="M 399.99852 305.30725 
L 402.71012 305.30725 
L 402.71012 271.759631 
L 399.99852 271.759631 
z
" clip-path="url(#paa40561743)" style="fill: #5b8db8; opacity: 0.6; stroke: #000000; stroke-width: 0.8; stroke-linejoin: miter"/>
   </g>
   <g id="patch_21">
    <path d="M 402.71012 305.30725 
L 405.421721 305.30725 
L 405.421721 238.212012 
L 402.71012 238.212012 
z
" clip-path="url(#paa40561743)" style="fill: #5b8db8; opacity: 0.6; stroke: #000000; stroke-width: 0.8; stroke-linejoin: miter"/>
   </g>
   <g id="patch_22">
    <path d="M 405.421721 305.30725 
L 408.133322 305.30725 
L 408.133322 265.050107 
L 405.421721 265.050107 
z
" clip-path="url(#paa40561743)" style="fill: #5b8db8; opacity: 0.6; stroke: #000000; stroke-width: 0.8; stroke-linejoin: miter"/>
   </g>
   <g id="patch_23">
    <path d="M 408.133322 305.30725 
L 410.844923 305.30725 
L 410.844923 265.050107 
L 408.133322 265.050107 
z
" clip-path="url(#paa40561743)" style="fill: #5b8db8; opacity: 0.6; stroke: #000000; stroke-width: 0.8; stroke-linejoin: miter"/>
   </g>
   <g id="patch_24">
    <path d="M 410.844923 305.30725 
L 413.556524 305.30725 
L 413.556524 285.178679 
L 410.844923 285.178679 
z
" clip-path="url(#paa40561743)" style="fill: #5b8db8; opacity: 0.6; stroke: #000000; stroke-width: 0.8; stroke-linejoin: miter"/>
   </g>
   <g id="patch_25">
    <path d="M 413.556524 305.30725 
L 416.268125 305.30725 
L 416.268125 291.888202 
L 413.556524 291.888202 
z
" clip-path="url(#paa40561743)" style="fill: #5b8db8; opacity: 0.6; stroke: #000000; stroke-width: 0.8; stroke-linejoin: miter"/>
   </g>
   <g id="patch_26">
    <path d="M 416.268125 305.30725 
L 418.979726 305.30725 
L 418.979726 251.63106 
L 416.268125 251.63106 
z
" clip-path="url(#paa40561743)" style="fill: #5b8db8; opacity: 0.6; stroke: #000000; stroke-width: 0.8; stroke-linejoin: miter"/>
   </g>
   <g id="patch_27">
    <path d="M 418.979726 305.30725 
L 421.691327 305.30725 
L 421.691327 298.597726 
L 418.979726 298.597726 
z
" clip-path="url(#paa40561743)" style="fill: #5b8db8; opacity: 0.6; stroke: #000000; stroke-width: 0.8; stroke-linejoin: miter"/>
   </g>
   <g id="patch_28">
    <path d="M 421.691327 305.30725 
L 424.402928 305.30725 
L 424.402928 305.30725 
L 421.691327 305.30725 
z
" clip-path="url(#paa40561743)" style="fill: #5b8db8; opacity: 0.6; stroke: #000000; stroke-width: 0.8; stroke-linejoin: miter"/>
   </g>
   <g id="patch_29">
    <path d="M 424.402928 305.30725 
L 427.114529 305.30725 
L 427.114529 291.888202 
L 424.402928 291.888202 
z
" clip-path="url(#paa40561743)" style="fill: #5b8db8; opacity: 0.6; stroke: #000000; stroke-width: 0.8; stroke-linejoin: miter"/>
   </g>
   <g id="patch_30">
    <path d="M 427.114529 305.30725 
L 429.82613 305.30725 
L 429.82613 298.597726 
L 427.114529 298.597726 
z
" clip-path="url(#paa40561743)" style="fill: #5b8db8; opacity: 0.6; stroke: #000000; stroke-width: 0.8; stroke-linejoin: miter"/>
   </g>
   <g id="patch_31">
    <path d="M 429.82613 305.30725 
L 432.537731 305.30725 
L 432.537731 298.597726 
L 429.82613 298.597726 
z
" clip-path="url(#paa40561743)" style="fill: #5b8db8; opacity: 0.6; stroke: #000000; stroke-width: 0.8; stroke-linejoin: miter"/>
   </g>
   <g id="patch_32">
    <path d="M 432.537731 305.30725 
L 435.249332 305.30725 
L 435.249332 291.888202 
L 432.537731 291.888202 
z
" clip-path="url(#paa40561743)" style="fill: #5b8db8; opacity: 0.6; stroke: #000000; stroke-width: 0.8; stroke-linejoin: miter"/>
   </g>
   <g id="patch_33">
    <path d="M 435.249332 305.30725 
L 437.960933 305.30725 
L 437.960933 305.30725 
L 435.249332 305.30725 
z
" clip-path="url(#paa40561743)" style="fill: #5b8db8; opacity: 0.6; stroke: #000000; stroke-width: 0.8; stroke-linejoin: miter"/>
   </g>
   <g id="patch_34">
    <path d="M 437.960933 305.30725 
L 440.672533 305.30725 
L 440.672533 305.30725 
L 437.960933 305.30725 
z
" clip-path="url(#paa40561743)" style="fill: #5b8db8; opacity: 0.6; stroke: #000000; stroke-width: 0.8; stroke-linejoin: miter"/>
   </g>
   <g id="patch_35">
    <path d="M 440.672533 305.30725 
L 443.384134 305.30725 
L 443.384134 285.178679 
L 440.672533 285.178679 
z
" clip-path="url(#paa40561743)" style="fill: #5b8db8; opacity: 0.6; stroke: #000000; stroke-width: 0.8; stroke-linejoin: miter"/>
   </g>
   <g id="patch_36">
    <path d="M 443.384134 305.30725 
L 446.095735 305.30725 
L 446.095735 305.30725 
L 443.384134 305.30725 
z
" clip-path="url(#paa40561743)" style="fill: #5b8db8; opacity: 0.6; stroke: #000000; stroke-width: 0.8; stroke-linejoin: miter"/>
   </g>
   <g id="patch_37">
    <path d="M 446.095735 305.30725 
L 448.807336 305.30725 
L 448.807336 305.30725 
L 446.095735 305.30725 
z
" clip-path="url(#paa40561743)" style="fill: #5b8db8; opacity: 0.6; stroke: #000000; stroke-width: 0.8; stroke-linejoin: miter"/>
   </g>
   <g id="patch_38">
    <path d="M 448.807336 305.30725 
L 451.518937 305.30725 
L 451.518937 298.597726 
L 448.807336 298.597726 
z
" clip-path="url(#paa40561743)" style="fill: #5b8db8; opacity: 0.6; stroke: #000000; stroke-width: 0.8; stroke-linejoin: miter"/>
   </g>
   <g id="patch_39">
    <path d="M 451.518937 305.30725 
L 454.230538 305.30725 
L 454.230538 305.30725 
L 451.518937 305.30725 
z
" clip-path="url(#paa40561743)" style="fill: #5b8db8; opacity: 0.6; stroke: #000000; stroke-width: 0.8; stroke-linejoin: miter"/>
   </g>
   <g id="patch_40">
    <path d="M 454.230538 305.30725 
L 456.942139 305.30725 
L 456.942139 298.597726 
L 454.230538 298.597726 
z
" clip-path="url(#paa40561743)" style="fill: #5b8db8; opacity: 0.6; stroke: #000000; stroke-width: 0.8; stroke-linejoin: miter"/>
   </g>
   <g id="patch_41">
    <path d="M 456.942139 305.30725 
L 459.65374 305.30725 
L 459.65374 305.30725 
L 456.942139 305.30725 
z
" clip-path="url(#paa40561743)" style="fill: #5b8db8; opacity: 0.6; stroke: #000000; stroke-width: 0.8; stroke-linejoin: miter"/>
   </g>
   <g id="patch_42">
    <path d="M 459.65374 305.30725 
L 462.365341 305.30725 
L 462.365341 298.597726 
L 459.65374 298.597726 
z
" clip-path="url(#paa40561743)" style="fill: #5b8db8; opacity: 0.6; stroke: #000000; stroke-width: 0.8; stroke-linejoin: miter"/>
   </g>
   <g id="patch_43">
    <path d="M 353.901304 305.30725 
L 356.612905 305.30725 
L 356.612905 305.30725 
L 353.901304 305.30725 
z
" clip-path="url(#paa40561743)" style="fill: #e15759; opacity: 0.3"/>
   </g>
   <g id="patch_44">
    <path d="M 356.612905 305.30725 
L 359.324506 305.30725 
L 359.324506 305.30725 
L 356.612905 305.30725 
z
" clip-path="url(#paa40561743)" style="fill: #e15759; opacity: 0.3"/>
   </g>
   <g id="patch_45">
    <path d="M 359.324506 305.30725 
L 362.036107 305.30725 
L 362.036107 305.30725 
L 359.324506 305.30725 
z
" clip-path="url(#paa40561743)" style="fill: #e15759; opacity: 0.3"/>
   </g>
   <g id="patch_46">
    <path d="M 362.036107 305.30725 
L 364.747707 305.30725 
L 364.747707 305.30725 
L 362.036107 305.30725 
z
" clip-path="url(#paa40561743)" style="fill: #e15759; opacity: 0.3"/>
   </g>
   <g id="patch_47">
    <path d="M 364.747707 305.30725 
L 367.459308 305.30725 
L 367.459308 305.30725 
L 364.747707 305.30725 
z
" clip-path="url(#paa40561743)" style="fill: #e15759; opacity: 0.3"/>
   </g>
   <g id="patch_48">
    <path d="M 367.459308 305.30725 
L 370.170909 305.30725 
L 370.170909 305.30725 
L 367.459308 305.30725 
z
" clip-path="url(#paa40561743)" style="fill: #e15759; opacity: 0.3"/>
   </g>
   <g id="patch_49">
    <path d="M 370.170909 305.30725 
L 372.88251 305.30725 
L 372.88251 305.30725 
L 370.170909 305.30725 
z
" clip-path="url(#paa40561743)" style="fill: #e15759; opacity: 0.3"/>
   </g>
   <g id="patch_50">
    <path d="M 372.88251 305.30725 
L 375.594111 305.30725 
L 375.594111 305.30725 
L 372.88251 305.30725 
z
" clip-path="url(#paa40561743)" style="fill: #e15759; opacity: 0.3"/>
   </g>
   <g id="patch_51">
    <path d="M 375.594111 305.30725 
L 378.305712 305.30725 
L 378.305712 305.30725 
L 375.594111 305.30725 
z
" clip-path="url(#paa40561743)" style="fill: #e15759; opacity: 0.3"/>
   </g>
   <g id="patch_52">
    <path d="M 378.305712 305.30725 
L 381.017313 305.30725 
L 381.017313 305.30725 
L 378.305712 305.30725 
z
" clip-path="url(#paa40561743)" style="fill: #e15759; opacity: 0.3"/>
   </g>
   <g id="patch_53">
    <path d="M 381.017313 305.30725 
L 383.728914 305.30725 
L 383.728914 305.30725 
L 381.017313 305.30725 
z
" clip-path="url(#paa40561743)" style="fill: #e15759; opacity: 0.3"/>
   </g>
   <g id="patch_54">
    <path d="M 383.728914 305.30725 
L 386.440515 305.30725 
L 386.440515 305.30725 
L 383.728914 305.30725 
z
" clip-path="url(#paa40561743)" style="fill: #e15759; opacity: 0.3"/>
   </g>
   <g id="patch_55">
    <path d="M 386.440515 305.30725 
L 389.152116 305.30725 
L 389.152116 305.30725 
L 386.440515 305.30725 
z
" clip-path="url(#paa40561743)" style="fill: #e15759; opacity: 0.3"/>
   </g>
   <g id="patch_56">
    <path d="M 389.152116 305.30725 
L 391.863717 305.30725 
L 391.863717 305.30725 
L 389.152116 305.30725 
z
" clip-path="url(#paa40561743)" style="fill: #e15759; opacity: 0.3"/>
   </g>
   <g id="patch_57">
    <path d="M 391.863717 305.30725 
L 394.575318 305.30725 
L 394.575318 305.30725 
L 391.863717 305.30725 
z
" clip-path="url(#paa40561743)" style="fill: #e15759; opacity: 0.3"/>
   </g>
   <g id="patch_58">
    <path d="M 394.575318 305.30725 
L 397.286919 305.30725 
L 397.286919 305.30725 
L 394.575318 305.30725 
z
" clip-path="url(#paa40561743)" style="fill: #e15759; opacity: 0.3"/>
   </g>
   <g id="patch_59">
    <path d="M 397.286919 305.30725 
L 399.99852 305.30725 
L 399.99852 305.30725 
L 397.286919 305.30725 
z
" clip-path="url(#paa40561743)" style="fill: #e15759; opacity: 0.3"/>
   </g>
   <g id="patch_60">
    <path d="M 399.99852 305.30725 
L 402.71012 305.30725 
L 402.71012 305.30725 
L 399.99852 305.30725 
z
" clip-path="url(#paa40561743)" style="fill: #e15759; opacity: 0.3"/>
   </g>
   <g id="patch_61">
    <path d="M 402.71012 305.30725 
L 405.421721 305.30725 
L 405.421721 305.30725 
L 402.71012 305.30725 
z
" clip-path="url(#paa40561743)" style="fill: #e15759; opacity: 0.3"/>
   </g>
   <g id="patch_62">
    <path d="M 405.421721 305.30725 
L 408.133322 305.30725 
L 408.133322 305.30725 
L 405.421721 305.30725 
z
" clip-path="url(#paa40561743)" style="fill: #e15759; opacity: 0.3"/>
   </g>
   <g id="patch_63">
    <path d="M 408.133322 305.30725 
L 410.844923 305.30725 
L 410.844923 305.30725 
L 408.133322 305.30725 
z
" clip-path="url(#paa40561743)" style="fill: #e15759; opacity: 0.3"/>
   </g>
   <g id="patch_64">
    <path d="M 410.844923 305.30725 
L 413.556524 305.30725 
L 413.556524 305.30725 
L 410.844923 305.30725 
z
" clip-path="url(#paa40561743)" style="fill: #e15759; opacity: 0.3"/>
   </g>
   <g id="patch_65">
    <path d="M 413.556524 305.30725 
L 416.268125 305.30725 
L 416.268125 305.30725 
L 413.556524 305.30725 
z
" clip-path="url(#paa40561743)" style="fill: #e15759; opacity: 0.3"/>
   </g>
   <g id="patch_66">
    <path d="M 416.268125 305.30725 
L 418.979726 305.30725 
L 418.979726 305.30725 
L 416.268125 305.30725 
z
" clip-path="url(#paa40561743)" style="fill: #e15759; opacity: 0.3"/>
   </g>
   <g id="patch_67">
    <path d="M 418.979726 305.30725 
L 421.691327 305.30725 
L 421.691327 305.30725 
L 418.979726 305.30725 
z
" clip-path="url(#paa40561743)" style="fill: #e15759; opacity: 0.3"/>
   </g>
   <g id="patch_68">
    <path d="M 421.691327 305.30725 
L 424.402928 305.30725 
L 424.402928 305.30725 
L 421.691327 305.30725 
z
" clip-path="url(#paa40561743)" style="fill: #e15759; opacity: 0.3"/>
   </g>
   <g id="patch_69">
    <path d="M 424.402928 305.30725 
L 427.114529 305.30725 
L 427.114529 305.30725 
L 424.402928 305.30725 
z
" clip-path="url(#paa40561743)" style="fill: #e15759; opacity: 0.3"/>
   </g>
   <g id="patch_70">
    <path d="M 427.114529 305.30725 
L 429.82613 305.30725 
L 429.82613 305.30725 
L 427.114529 305.30725 
z
" clip-path="url(#paa40561743)" style="fill: #e15759; opacity: 0.3"/>
   </g>
   <g id="patch_71">
    <path d="M 429.82613 305.30725 
L 432.537731 305.30725 
L 432.537731 305.30725 
L 429.82613 305.30725 
z
" clip-path="url(#paa40561743)" style="fill: #e15759; opacity: 0.3"/>
   </g>
   <g id="patch_72">
    <path d="M 432.537731 305.30725 
L 435.249332 305.30725 
L 435.249332 305.30725 
L 432.537731 305.30725 
z
" clip-path="url(#paa40561743)" style="fill: #e15759; opacity: 0.3"/>
   </g>
   <g id="patch_73">
    <path d="M 435.249332 305.30725 
L 437.960933 305.30725 
L 437.960933 305.30725 
L 435.249332 305.30725 
z
" clip-path="url(#paa40561743)" style="fill: #e15759; opacity: 0.3"/>
   </g>
   <g id="patch_74">
    <path d="M 437.960933 305.30725 
L 440.672533 305.30725 
L 440.672533 305.30725 
L 437.960933 305.30725 
z
" clip-path="url(#paa40561743)" style="fill: #e15759; opacity: 0.3"/>
   </g>
   <g id="patch_75">
    <path d="M 440.672533 305.30725 
L 443.384134 305.30725 
L 443.384134 36.926298 
L 440.672533 36.926298 
z
" clip-path="url(#paa40561743)" style="fill: #e15759; opacity: 0.3"/>
   </g>
   <g id="patch_76">
    <path d="M 443.384134 305.30725 
L 446.095735 305.30725 
L 446.095735 305.30725 
L 443.384134 305.30725 
z
" clip-path="url(#paa40561743)" style="fill: #e15759; opacity: 0.3"/>
   </g>
   <g id="patch_77">
    <path d="M 446.095735 305.30725 
L 448.807336 305.30725 
L 448.807336 305.30725 
L 446.095735 305.30725 
z
" clip-path="url(#paa40561743)" style="fill: #e15759; opacity: 0.3"/>
   </g>
   <g id="patch_78">
    <path d="M 448.807336 305.30725 
L 451.518937 305.30725 
L 451.518937 171.116774 
L 448.807336 171.116774 
z
" clip-path="url(#paa40561743)" style="fill: #e15759; opacity: 0.3"/>
   </g>
   <g id="patch_79">
    <path d="M 451.518937 305.30725 
L 454.230538 305.30725 
L 454.230538 305.30725 
L 451.518937 305.30725 
z
" clip-path="url(#paa40561743)" style="fill: #e15759; opacity: 0.3"/>
   </g>
   <g id="patch_80">
    <path d="M 454.230538 305.30725 
L 456.942139 305.30725 
L 456.942139 171.116774 
L 454.230538 171.116774 
z
" clip-path="url(#paa40561743)" style="fill: #e15759; opacity: 0.3"/>
   </g>
   <g id="patch_81">
    <path d="M 456.942139 305.30725 
L 459.65374 305.30725 
L 459.65374 305.30725 
L 456.942139 305.30725 
z
" clip-path="url(#paa40561743)" style="fill: #e15759; opacity: 0.3"/>
   </g>
   <g id="patch_82">
    <path d="M 459.65374 305.30725 
L 462.365341 305.30725 
L 462.365341 171.116774 
L 459.65374 171.116774 
z
" clip-path="url(#paa40561743)" style="fill: #e15759; opacity: 0.3"/>
   </g>
   <g id="patch_83">
    <path d="M 0 0 
z
" clip-path="url(#paa40561743)" style="fill: #e15759; opacity: 0.3"/>
   </g>
   <g id="patch_84">
    <path d="M 0 0 
z
" clip-path="url(#paa40561743)" style="fill: #e15759; opacity: 0.3"/>
   </g>
   <g id="patch_85">
    <path d="M 0 0 
z
" clip-path="url(#paa40561743)" style="fill: #e15759; opacity: 0.3"/>
   </g>
   <g id="patch_86">
    <path d="M 0 0 
z
" clip-path="url(#paa40561743)" style="fill: #e15759; opacity: 0.3"/>
   </g>
   <g id="patch_87">
    <path d="M 0 0 
z
" clip-path="url(#paa40561743)" style="fill: #e15759; opacity: 0.3"/>
   </g>
   <g id="patch_88">
    <path d="M 0 0 
z
" clip-path="url(#paa40561743)" style="fill: #e15759; opacity: 0.3"/>
   </g>
   <g id="patch_89">
    <path d="M 0 0 
z
" clip-path="url(#paa40561743)" style="fill: #e15759; opacity: 0.3"/>
   </g>
   <g id="patch_90">
    <path d="M 0 0 
z
" clip-path="url(#paa40561743)" style="fill: #e15759; opacity: 0.3"/>
   </g>
   <g id="patch_91">
    <path d="M 0 0 
z
" clip-path="url(#paa40561743)" style="fill: #e15759; opacity: 0.3"/>
   </g>
   <g id="patch_92">
    <path d="M 0 0 
z
" clip-path="url(#paa40561743)" style="fill: #e15759; opacity: 0.3"/>
   </g>
   <g id="patch_93">
    <path d="M 0 0 
z
" clip-path="url(#paa40561743)" style="fill: #e15759; opacity: 0.3"/>
   </g>
   <g id="patch_94">
    <path d="M 0 0 
z
" clip-path="url(#paa40561743)" style="fill: #e15759; opacity: 0.3"/>
   </g>
   <g id="patch_95">
    <path d="M 0 0 
z
" clip-path="url(#paa40561743)" style="fill: #e15759; opacity: 0.3"/>
   </g>
   <g id="patch_96">
    <path d="M 0 0 
z
" clip-path="url(#paa40561743)" style="fill: #e15759; opacity: 0.3"/>
   </g>
   <g id="patch_97">
    <path d="M 0 0 
z
" clip-path="url(#paa40561743)" style="fill: #e15759; opacity: 0.3"/>
   </g>
   <g id="patch_98">
    <path d="M 0 0 
z
" clip-path="url(#paa40561743)" style="fill: #e15759; opacity: 0.3"/>
   </g>
   <g id="patch_99">
    <path d="M 0 0 
z
" clip-path="url(#paa40561743)" style="fill: #e15759; opacity: 0.3"/>
   </g>
   <g id="patch_100">
    <path d="M 0 0 
z
" clip-path="url(#paa40561743)" style="fill: #e15759; opacity: 0.3"/>
   </g>
   <g id="patch_101">
    <path d="M 0 0 
z
" clip-path="url(#paa40561743)" style="fill: #e15759; opacity: 0.3"/>
   </g>
   <g id="patch_102">
    <path d="M 0 0 
z
" clip-path="url(#paa40561743)" style="fill: #e15759; opacity: 0.3"/>
   </g>
   <g id="patch_103">
    <path d="M 0 0 
z
" clip-path="url(#paa40561743)" style="fill: #e15759; opacity: 0.3"/>
   </g>
   <g id="patch_104">
    <path d="M 0 0 
z
" clip-path="url(#paa40561743)" style="fill: #e15759; opacity: 0.3"/>
   </g>
   <g id="patch_105">
    <path d="M 0 0 
z
" clip-path="url(#paa40561743)" style="fill: #e15759; opacity: 0.3"/>
   </g>
   <g id="patch_106">
    <path d="M 0 0 
z
" clip-path="url(#paa40561743)" style="fill: #e15759; opacity: 0.3"/>
   </g>
   <g id="patch_107">
    <path d="M 0 0 
z
" clip-path="url(#paa40561743)" style="fill: #e15759; opacity: 0.3"/>
   </g>
   <g id="patch_108">
    <path d="M 0 0 
z
" clip-path="url(#paa40561743)" style="fill: #e15759; opacity: 0.3"/>
   </g>
   <g id="patch_109">
    <path d="M 0 0 
z
" clip-path="url(#paa40561743)" style="fill: #e15759; opacity: 0.3"/>
   </g>
   <g id="patch_110">
    <path d="M 0 0 
z
" clip-path="url(#paa40561743)" style="fill: #e15759; opacity: 0.3"/>
   </g>
   <g id="patch_111">
    <path d="M 0 0 
z
" clip-path="url(#paa40561743)" style="fill: #e15759; opacity: 0.3"/>
   </g>
   <g id="patch_112">
    <path d="M 0 0 
z
" clip-path="url(#paa40561743)" style="fill: #e15759; opacity: 0.3"/>
   </g>
   <g id="patch_113">
    <path d="M 0 0 
z
" clip-path="url(#paa40561743)" style="fill: #e15759; opacity: 0.3"/>
   </g>
   <g id="patch_114">
    <path d="M 0 0 
z
" clip-path="url(#paa40561743)" style="fill: #e15759; opacity: 0.3"/>
   </g>
   <g id="patch_115">
    <path d="M 0 0 
z
" clip-path="url(#paa40561743)" style="fill: #e15759; opacity: 0.3"/>
   </g>
   <g id="patch_116">
    <path d="M 0 0 
z
" clip-path="url(#paa40561743)" style="fill: #e15759; opacity: 0.3"/>
   </g>
   <g id="patch_117">
    <path d="M 0 0 
z
" clip-path="url(#paa40561743)" style="fill: #e15759; opacity: 0.3"/>
   </g>
   <g id="patch_118">
    <path d="M 0 0 
z
" clip-path="url(#paa40561743)" style="fill: #e15759; opacity: 0.3"/>
   </g>
   <g id="patch_119">
    <path d="M 0 0 
z
" clip-path="url(#paa40561743)" style="fill: #e15759; opacity: 0.3"/>
   </g>
   <g id="patch_120">
    <path d="M 0 0 
z
" clip-path="url(#paa40561743)" style="fill: #e15759; opacity: 0.3"/>
   </g>
   <g id="patch_121">
    <path d="M 0 0 
z
" clip-path="url(#paa40561743)" style="fill: #e15759; opacity: 0.3"/>
   </g>
   <g id="patch_122">
    <path d="M 0 0 
z
" clip-path="url(#paa40561743)" style="fill: #e15759; opacity: 0.3"/>
   </g>
   <g id="matplotlib.axis_1">
    <g id="xtick_1">
     <g id="line2d_1">
      <defs>
       <path id="m99999e7a44" d="M 0 0 
L 0 3.5 
" style="stroke: #000000; stroke-width: 0.8"/>
      </defs>
      <g>
       <use xlink:href="#m99999e7a44" x="77.261015" y="305.30725" style="stroke: #000000; stroke-width: 0.8"/>
      </g>
     </g>
     <g id="text_1">
      <text style="font-size: 12px; font-family: 'Arial', 'Helvetica', 'DejaVu Sans', 'Bitstream Vera Sans', 'Computer Modern Sans Serif', 'Lucida Grande', 'Verdana', 'Geneva', 'Lucid', 'Avant Garde', sans-serif; text-anchor: middle" x="77.261015" y="320.896625" transform="rotate(-0 77.261015 320.896625)">−0.6</text>
     </g>
    </g>
    <g id="xtick_2">
     <g id="line2d_2">
      <g>
       <use xlink:href="#m99999e7a44" x="135.716438" y="305.30725" style="stroke: #000000; stroke-width: 0.8"/>
      </g>
     </g>
     <g id="text_2">
      <text style="font-size: 12px; font-family: 'Arial', 'Helvetica', 'DejaVu Sans', 'Bitstream Vera Sans', 'Computer Modern Sans Serif', 'Lucida Grande', 'Verdana', 'Geneva', 'Lucid', 'Avant Garde', sans-serif; text-anchor: middle" x="135.716438" y="320.896625" transform="rotate(-0 135.716438 320.896625)">−0.4</text>
     </g>
    </g>
    <g id="xtick_3">
     <g id="line2d_3">
      <g>
       <use xlink:href="#m99999e7a44" x="194.171861" y="305.30725" style="stroke: #000000; stroke-width: 0.8"/>
      </g>
     </g>
     <g id="text_3">
      <text style="font-size: 12px; font-family: 'Arial', 'Helvetica', 'DejaVu Sans', 'Bitstream Vera Sans', 'Computer Modern Sans Serif', 'Lucida Grande', 'Verdana', 'Geneva', 'Lucid', 'Avant Garde', sans-serif; text-anchor: middle" x="194.171861" y="320.896625" transform="rotate(-0 194.171861 320.896625)">−0.2</text>
     </g>
    </g>
    <g id="xtick_4">
     <g id="line2d_4">
      <g>
       <use xlink:href="#m99999e7a44" x="252.627284" y="305.30725" style="stroke: #000000; stroke-width: 0.8"/>
      </g>
     </g>
     <g id="text_4">
      <text style="font-size: 12px; font-family: 'Arial', 'Helvetica', 'DejaVu Sans', 'Bitstream Vera Sans', 'Computer Modern Sans Serif', 'Lucida Grande', 'Verdana', 'Geneva', 'Lucid', 'Avant Garde', sans-serif; text-anchor: middle" x="252.627284" y="320.896625" transform="rotate(-0 252.627284 320.896625)">0.0</text>
     </g>
    </g>
    <g id="xtick_5">
     <g id="line2d_5">
      <g>
       <use xlink:href="#m99999e7a44" x="311.082706" y="305.30725" style="stroke: #000000; stroke-width: 0.8"/>
      </g>
     </g>
     <g id="text_5">
      <text style="font-size: 12px; font-family: 'Arial', 'Helvetica', 'DejaVu Sans', 'Bitstream Vera Sans', 'Computer Modern Sans Serif', 'Lucida Grande', 'Verdana', 'Geneva', 'Lucid', 'Avant Garde', sans-serif; text-anchor: middle" x="311.082706" y="320.896625" transform="rotate(-0 311.082706 320.896625)">0.2</text>
     </g>
    </g>
    <g id="xtick_6">
     <g id="line2d_6">
      <g>
       <use xlink:href="#m99999e7a44" x="369.538129" y="305.30725" style="stroke: #000000; stroke-width: 0.8"/>
      </g>
     </g>
     <g id="text_6">
      <text style="font-size: 12px; font-family: 'Arial', 'Helvetica', 'DejaVu Sans', 'Bitstream Vera Sans', 'Computer Modern Sans Serif', 'Lucida Grande', 'Verdana', 'Geneva', 'Lucid', 'Avant Garde', sans-serif; text-anchor: middle" x="369.538129" y="320.896625" transform="rotate(-0 369.538129 320.896625)">0.4</text>
     </g>
    </g>
    <g id="xtick_7">
     <g id="line2d_7">
      <g>
       <use xlink:href="#m99999e7a44" x="427.993552" y="305.30725" style="stroke: #000000; stroke-width: 0.8"/>
      </g>
     </g>
     <g id="text_7">
      <text style="font-size: 12px; font-family: 'Arial', 'Helvetica', 'DejaVu Sans', 'Bitstream Vera Sans', 'Computer Modern Sans Serif', 'Lucida Grande', 'Verdana', 'Geneva', 'Lucid', 'Avant Garde', sans-serif; text-anchor: middle" x="427.993552" y="320.896625" transform="rotate(-0 427.993552 320.896625)">0.6</text>
     </g>
    </g>
    <g id="text_8">
     <text style="font-size: 12px; font-family: 'Arial', 'Helvetica', 'DejaVu Sans', 'Bitstream Vera Sans', 'Computer Modern Sans Serif', 'Lucida Grande', 'Verdana', 'Geneva', 'Lucid', 'Avant Garde', sans-serif; text-anchor: middle" x="262.50625" y="335.871" transform="rotate(-0 262.50625 335.871)">Test Statistic</text>
    </g>
   </g>
   <g id="matplotlib.axis_2">
    <g id="ytick_1">
     <g id="line2d_8">
      <path d="M 42.66125 305.30725 
L 482.35125 305.30725 
" clip-path="url(#paa40561743)" style="fill: none; stroke-dasharray: 2.22,0.96; stroke-dashoffset: 0; stroke: #b0b0b0; stroke-opacity: 0.35; stroke-width: 0.6"/>
     </g>
     <g id="line2d_9">
      <defs>
       <path id="mf6778ef007" d="M 0 0 
L -3.5 0 
" style="stroke: #000000; stroke-width: 0.8"/>
      </defs>
      <g>
       <use xlink:href="#mf6778ef007" x="42.66125" y="305.30725" style="stroke: #000000; stroke-width: 0.8"/>
      </g>
     </g>
     <g id="text_9">
      <text style="font-size: 12px; font-family: 'Arial', 'Helvetica', 'DejaVu Sans', 'Bitstream Vera Sans', 'Computer Modern Sans Serif', 'Lucida Grande', 'Verdana', 'Geneva', 'Lucid', 'Avant Garde', sans-serif; text-anchor: end" x="35.66125" y="309.601937" transform="rotate(-0 35.66125 309.601937)">0</text>
     </g>
    </g>
    <g id="ytick_2">
     <g id="line2d_10">
      <path d="M 42.66125 243.059643 
L 482.35125 243.059643 
" clip-path="url(#paa40561743)" style="fill: none; stroke-dasharray: 2.22,0.96; stroke-dashoffset: 0; stroke: #b0b0b0; stroke-opacity: 0.35; stroke-width: 0.6"/>
     </g>
     <g id="line2d_11">
      <g>
       <use xlink:href="#mf6778ef007" x="42.66125" y="243.059643" style="stroke: #000000; stroke-width: 0.8"/>
      </g>
     </g>
     <g id="text_10">
      <text style="font-size: 12px; font-family: 'Arial', 'Helvetica', 'DejaVu Sans', 'Bitstream Vera Sans', 'Computer Modern Sans Serif', 'Lucida Grande', 'Verdana', 'Geneva', 'Lucid', 'Avant Garde', sans-serif; text-anchor: end" x="35.66125" y="247.35433" transform="rotate(-0 35.66125 247.35433)">10</text>
     </g>
    </g>
    <g id="ytick_3">
     <g id="line2d_12">
      <path d="M 42.66125 180.812036 
L 482.35125 180.812036 
" clip-path="url(#paa40561743)" style="fill: none; stroke-dasharray: 2.22,0.96; stroke-dashoffset: 0; stroke: #b0b0b0; stroke-opacity: 0.35; stroke-width: 0.6"/>
     </g>
     <g id="line2d_13">
      <g>
       <use xlink:href="#mf6778ef007" x="42.66125" y="180.812036" style="stroke: #000000; stroke-width: 0.8"/>
      </g>
     </g>
     <g id="text_11">
      <text style="font-size: 12px; font-family: 'Arial', 'Helvetica', 'DejaVu Sans', 'Bitstream Vera Sans', 'Computer Modern Sans Serif', 'Lucida Grande', 'Verdana', 'Geneva', 'Lucid', 'Avant Garde', sans-serif; text-anchor: end" x="35.66125" y="185.106723" transform="rotate(-0 35.66125 185.106723)">20</text>
     </g>
    </g>
    <g id="ytick_4">
     <g id="line2d_14">
      <path d="M 42.66125 118.564429 
L 482.35125 118.564429 
" clip-path="url(#paa40561743)" style="fill: none; stroke-dasharray: 2.22,0.96; stroke-dashoffset: 0; stroke: #b0b0b0; stroke-opacity: 0.35; stroke-width: 0.6"/>
     </g>
     <g id="line2d_15">
      <g>
       <use xlink:href="#mf6778ef007" x="42.66125" y="118.564429" style="stroke: #000000; stroke-width: 0.8"/>
      </g>
     </g>
     <g id="text_12">
      <text style="font-size: 12px; font-family: 'Arial', 'Helvetica', 'DejaVu Sans', 'Bitstream Vera Sans', 'Computer Modern Sans Serif', 'Lucida Grande', 'Verdana', 'Geneva', 'Lucid', 'Avant Garde', sans-serif; text-anchor: end" x="35.66125" y="122.859116" transform="rotate(-0 35.66125 122.859116)">30</text>
     </g>
    </g>
    <g id="ytick_5">
     <g id="line2d_16">
      <path d="M 42.66125 56.316821 
L 482.35125 56.316821 
" clip-path="url(#paa40561743)" style="fill: none; stroke-dasharray: 2.22,0.96; stroke-dashoffset: 0; stroke: #b0b0b0; stroke-opacity: 0.35; stroke-width: 0.6"/>
     </g>
     <g id="line2d_17">
      <g>
       <use xlink:href="#mf6778ef007" x="42.66125" y="56.316821" style="stroke: #000000; stroke-width: 0.8"/>
      </g>
     </g>
     <g id="text_13">
      <text style="font-size: 12px; font-family: 'Arial', 'Helvetica', 'DejaVu Sans', 'Bitstream Vera Sans', 'Computer Modern Sans Serif', 'Lucida Grande', 'Verdana', 'Geneva', 'Lucid', 'Avant Garde', sans-serif; text-anchor: end" x="35.66125" y="60.611509" transform="rotate(-0 35.66125 60.611509)">40</text>
     </g>
    </g>
    <g id="text_14">
     <text style="font-size: 12px; font-family: 'Arial', 'Helvetica', 'DejaVu Sans', 'Bitstream Vera Sans', 'Computer Modern Sans Serif', 'Lucida Grande', 'Verdana', 'Geneva', 'Lucid', 'Avant Garde', sans-serif; text-anchor: middle" x="15.789375" y="164.40725" transform="rotate(-90 15.789375 164.40725)">Density</text>
    </g>
   </g>
   <g id="line2d_18">
    <path d="M 442.607408 305.30725 
L 442.607408 23.50725 
" clip-path="url(#paa40561743)" style="fill: none; stroke-dasharray: 9.25,4; stroke-dashoffset: 0; stroke: #e15759; stroke-width: 2.5"/>
   </g>
   <g id="line2d_19">
    <path d="M 62.647159 305.30725 
L 62.647159 23.50725 
" clip-path="url(#paa40561743)" style="fill: none; stroke-dasharray: 9.25,4; stroke-dashoffset: 0; stroke: #e15759; stroke-width: 2.5"/>
   </g>
   <g id="patch_123">
    <path d="M 42.66125 305.30725 
L 42.66125 23.50725 
" style="fill: none; stroke: #000000; stroke-width: 1.2; stroke-linejoin: miter; stroke-linecap: square"/>
   </g>
   <g id="patch_124">
    <path d="M 42.66125 305.30725 
L 482.35125 305.30725 
" style="fill: none; stroke: #000000; stroke-width: 1.2; stroke-linejoin: miter; stroke-linecap: square"/>
   </g>
   <g id="text_15">
    <g id="patch_125">
     <path d="M 402.66175 52.190375 
L 460.36675 52.190375 
Q 463.96675 52.190375 463.96675 48.590375 
L 463.96675 37.59725 
Q 463.96675 33.99725 460.36675 33.99725 
L 402.66175 33.99725 
Q 399.06175 33.99725 399.06175 37.59725 
L 399.06175 48.590375 
Q 399.06175 52.190375 402.66175 52.190375 
z
" style="fill: #ffffff; opacity: 0.8; stroke: #000000; stroke-linejoin: miter"/>
    </g>
    <text style="font-weight: 700; font-size: 12px; font-family: 'Arial', 'Helvetica', 'DejaVu Sans', 'Bitstream Vera Sans', 'Computer Modern Sans Serif', 'Lucida Grande', 'Verdana', 'Geneva', 'Lucid', 'Avant Garde', sans-serif; text-anchor: end" x="460.36675" y="46.22225" transform="rotate(-0 460.36675 46.22225)">p = 0.0500</text>
   </g>
   <g id="text_16">
    <text style="font-size: 14.4px; font-family: 'Arial', 'Helvetica', 'DejaVu Sans', 'Bitstream Vera Sans', 'Computer Modern Sans Serif', 'Lucida Grande', 'Verdana', 'Geneva', 'Lucid', 'Avant Garde', sans-serif; text-anchor: middle" x="262.50625" y="17.50725" transform="rotate(-0 262.50625 17.50725)">Permutation Test: Null Distribution vs. Observed</text>
   </g>
   <g id="legend_1">
    <g id="patch_126">
     <path d="M 342.226875 42.93225 
L 366.226875 42.93225 
L 366.226875 34.53225 
L 342.226875 34.53225 
z
" style="fill: #e15759; opacity: 0.3"/>
    </g>
    <g id="text_17">
     <text style="font-size: 12px; font-family: 'Arial', 'Helvetica', 'DejaVu Sans', 'Bitstream Vera Sans', 'Computer Modern Sans Serif', 'Lucida Grande', 'Verdana', 'Geneva', 'Lucid', 'Avant Garde', sans-serif; text-anchor: start" x="375.826875" y="42.93225" transform="rotate(-0 375.826875 42.93225)">p = 0.050</text>
    </g>
    <g id="line2d_20">
     <path d="M 342.226875 55.706625 
L 354.226875 55.706625 
L 366.226875 55.706625 
" style="fill: none; stroke-dasharray: 9.25,4; stroke-dashoffset: 0; stroke: #e15759; stroke-width: 2.5"/>
    </g>
    <g id="text_18">
     <text style="font-size: 12px; font-family: 'Arial', 'Helvetica', 'DejaVu Sans', 'Bitstream Vera Sans', 'Computer Modern Sans Serif', 'Lucida Grande', 'Verdana', 'Geneva', 'Lucid', 'Avant Garde', sans-serif; text-anchor: start" x="375.826875" y="59.906625" transform="rotate(-0 375.826875 59.906625)">Observed = 0.650</text>
    </g>
   </g>
  </g>
 </g>
 <defs>
  <clipPath id="paa40561743">
   <rect x="42.66125" y="23.50725" width="439.69" height="281.8"/>
  </clipPath>
 </defs>
</svg>
