<?xml version="1.0" encoding="utf-8" standalone="no"?>
<!DOCTYPE svg PUBLIC "-//W3C//DTD SVG 1.1//EN"
  "http://www.w3.org/Graphics/SVG/1.1/DTD/svg11.dtd">
<svg xmlns:xlink="http://www.w3.org/1999/xlink" width="489.525pt" height="345.577125pt" viewBox="0 0 489.525 345.577125" xmlns="http://www.w3.org/2000/svg" version="1.1">
 <metadata>
  <rdf:RDF xmlns:dc="http://purl.org/dc/elements/1.1/" xmlns:cc="http://creativecommons.org/ns#" xmlns:rdf="http://www.w3.org/1999/02/22-rdf-syntax-ns#">
   <cc:Work>
    <dc:type rdf:resource="http://purl.org/dc/dcmitype/StillImage"/>
    <dc:date>2026-05-20T17:57:47.065641</dc:date>
    <dc:format>image/svg+xml</dc:format>
    <dc:creator>
     <cc:Agent>
      <dc:title>Matplotlib v3.10.9, https://matplotlib.org/</dc:title>
     </cc:Agent>
    </dc:creator>
   </cc:Work>
  </rdf:RDF>
 </metadata>
 <defs>
  <style type="text/css">*{stroke-linejoin: round; stroke-linecap: butt}</style>
 </defs>
 <g id="figure_1">
  <g id="patch_1">
   <path d="M 0 345.577125 
L 489.525 345.577125 
L 489.525 0 
L 0 0 
z
" style="fill: #ffffff"/>
  </g>
  <g id="axes_1">
   <g id="patch_2">
    <path d="M 45.995 320.40275 
L 482.325 320.40275 
L 482.325 23.68275 
L 45.995 23.68275 
z
" style="fill: #ffffff"/>
   </g>
   <g id="FillBetweenPolyCollection_1">
    <path d="M 142.674977 162.152083 
L 94.758356 162.152083 
L 94.510563 162.002225 
L 94.266165 161.852366 
L 94.025085 161.702508 
L 93.787238 161.552649 
L 93.552528 161.40279 
L 93.320854 161.252932 
L 93.092105 161.103073 
L 92.866163 160.953215 
L 92.642905 160.803356 
L 92.422203 160.653497 
L 92.203925 160.503639 
L 91.987934 160.35378 
L 91.774094 160.203922 
L 91.562264 160.054063 
L 91.352305 159.904205 
L 91.14408 159.754346 
L 90.93745 159.604487 
L 90.732282 159.454629 
L 90.528446 159.30477 
L 90.325815 159.154912 
L 90.124271 159.005053 
L 89.9237 158.855194 
L 89.723997 158.705336 
L 89.525066 158.555477 
L 89.32682 158.405619 
L 89.129182 158.25576 
L 88.932087 158.105902 
L 88.735483 157.956043 
L 88.539328 157.806184 
L 88.343597 157.656326 
L 88.148275 157.506467 
L 87.953365 157.356609 
L 87.758883 157.20675 
L 87.564863 157.056891 
L 87.371352 156.907033 
L 87.178414 156.757174 
L 86.986132 156.607316 
L 86.794602 156.457457 
L 86.603939 156.307598 
L 86.414273 156.15774 
L 86.225752 156.007881 
L 86.038539 155.858023 
L 85.852815 155.708164 
L 85.668775 155.558306 
L 85.486631 155.408447 
L 85.306608 155.258588 
L 85.128949 155.10873 
L 84.953907 154.958871 
L 84.781751 154.809013 
L 84.612762 154.659154 
L 84.44723 154.509295 
L 84.285461 154.359437 
L 84.127768 154.209578 
L 83.974472 154.05972 
L 83.825904 153.909861 
L 83.682402 153.760003 
L 83.544309 153.610144 
L 83.411973 153.460285 
L 83.285747 153.310427 
L 83.165985 153.160568 
L 83.053044 153.01071 
L 82.947278 152.860851 
L 82.849044 152.710992 
L 82.758694 152.561134 
L 82.676577 152.411275 
L 82.603038 152.261417 
L 82.538415 152.111558 
L 82.48304 151.961699 
L 82.437235 151.811841 
L 82.401315 151.661982 
L 82.375583 151.512124 
L 82.36033 151.362265 
L 82.355833 151.212407 
L 82.362359 151.062548 
L 82.380157 150.912689 
L 82.409461 150.762831 
L 82.450488 150.612972 
L 82.50344 150.463114 
L 82.568497 150.313255 
L 82.645822 150.163396 
L 82.73556 150.013538 
L 82.837832 149.863679 
L 82.952742 149.713821 
L 83.08037 149.563962 
L 83.220777 149.414104 
L 83.373998 149.264245 
L 83.540051 149.114386 
L 83.718927 148.964528 
L 83.910598 148.814669 
L 84.115011 148.664811 
L 84.332092 148.514952 
L 84.561744 148.365093 
L 84.803846 148.215235 
L 85.058259 148.065376 
L 85.324819 147.915518 
L 85.603341 147.765659 
L 85.893619 147.615801 
L 86.195429 147.465942 
L 86.508523 147.316083 
L 150.924811 147.316083 
L 150.924811 147.316083 
L 151.237905 147.465942 
L 151.539714 147.615801 
L 151.829993 147.765659 
L 152.108515 147.915518 
L 152.375074 148.065376 
L 152.629487 148.215235 
L 152.87159 148.365093 
L 153.101241 148.514952 
L 153.318322 148.664811 
L 153.522735 148.814669 
L 153.714406 148.964528 
L 153.893283 149.114386 
L 154.059335 149.264245 
L 154.212557 149.414104 
L 154.352963 149.563962 
L 154.480591 149.713821 
L 154.595501 149.863679 
L 154.697774 150.013538 
L 154.787511 150.163396 
L 154.864837 150.313255 
L 154.929894 150.463114 
L 154.982845 150.612972 
L 155.023873 150.762831 
L 155.053176 150.912689 
L 155.070974 151.062548 
L 155.0775 151.212407 
L 155.073004 151.362265 
L 155.05775 151.512124 
L 155.032018 151.661982 
L 154.996098 151.811841 
L 154.950294 151.961699 
L 154.894919 152.111558 
L 154.830296 152.261417 
L 154.756756 152.411275 
L 154.674639 152.561134 
L 154.584289 152.710992 
L 154.486055 152.860851 
L 154.38029 153.01071 
L 154.267348 153.160568 
L 154.147586 153.310427 
L 154.02136 153.460285 
L 153.889025 153.610144 
L 153.750932 153.760003 
L 153.60743 153.909861 
L 153.458862 154.05972 
L 153.305566 154.209578 
L 153.147872 154.359437 
L 152.986103 154.509295 
L 152.820572 154.659154 
L 152.651582 154.809013 
L 152.479426 154.958871 
L 152.304384 155.10873 
L 152.126725 155.258588 
L 151.946703 155.408447 
L 151.764558 155.558306 
L 151.580518 155.708164 
L 151.394794 155.858023 
L 151.207582 156.007881 
L 151.01906 156.15774 
L 150.829395 156.307598 
L 150.638731 156.457457 
L 150.447201 156.607316 
L 150.254919 156.757174 
L 150.061982 156.907033 
L 149.868471 157.056891 
L 149.67445 157.20675 
L 149.479969 157.356609 
L 149.285059 157.506467 
L 149.089737 157.656326 
L 148.894005 157.806184 
L 148.69785 157.956043 
L 148.501246 158.105902 
L 148.304151 158.25576 
L 148.106514 158.405619 
L 147.908268 158.555477 
L 147.709337 158.705336 
L 147.509634 158.855194 
L 147.309063 159.005053 
L 147.107518 159.154912 
L 146.904888 159.30477 
L 146.701051 159.454629 
L 146.495883 159.604487 
L 146.289254 159.754346 
L 146.081028 159.904205 
L 145.87107 160.054063 
L 145.65924 160.203922 
L 145.445399 160.35378 
L 145.229409 160.503639 
L 145.01113 160.653497 
L 144.790428 160.803356 
L 144.56717 160.953215 
L 144.341228 161.103073 
L 144.112479 161.252932 
L 143.880805 161.40279 
L 143.646096 161.552649 
L 143.408249 161.702508 
L 143.167169 161.852366 
L 142.92277 162.002225 
L 142.674977 162.152083 
z
" clip-path="url(#p511699dab1)" style="fill: #5b8db8; fill-opacity: 0.6"/>
   </g>
   <g id="FillBetweenPolyCollection_2">
    <path d="M 292.656961 132.480083 
L 235.663039 132.480083 
L 235.339653 132.380178 
L 235.022547 132.280272 
L 234.711845 132.180366 
L 234.407664 132.08046 
L 234.11011 131.980555 
L 233.819277 131.880649 
L 233.535251 131.780743 
L 233.258105 131.680838 
L 232.987905 131.580932 
L 232.724705 131.481026 
L 232.468552 131.38112 
L 232.219482 131.281215 
L 231.977524 131.181309 
L 231.742696 131.081403 
L 231.515011 130.981497 
L 231.294472 130.881592 
L 231.081077 130.781686 
L 230.874815 130.68178 
L 230.675669 130.581875 
L 230.483618 130.481969 
L 230.298634 130.382063 
L 230.120684 130.282157 
L 229.949731 130.182252 
L 229.785735 130.082346 
L 229.628649 129.98244 
L 229.478428 129.882535 
L 229.33502 129.782629 
L 229.198373 129.682723 
L 229.068434 129.582817 
L 228.945147 129.482912 
L 228.828457 129.383006 
L 228.718309 129.2831 
L 228.614645 129.183194 
L 228.517412 129.083289 
L 228.426556 128.983383 
L 228.342022 128.883477 
L 228.263762 128.783572 
L 228.191726 128.683666 
L 228.125867 128.58376 
L 228.066143 128.483854 
L 228.012513 128.383949 
L 227.964939 128.284043 
L 227.923388 128.184137 
L 227.887829 128.084231 
L 227.858238 127.984326 
L 227.834592 127.88442 
L 227.816872 127.784514 
L 227.805067 127.684609 
L 227.799167 127.584703 
L 227.799167 127.484797 
L 227.805067 127.384891 
L 227.816872 127.284986 
L 227.834592 127.18508 
L 227.858238 127.085174 
L 227.887829 126.985269 
L 227.923388 126.885363 
L 227.964939 126.785457 
L 228.012513 126.685551 
L 228.066143 126.585646 
L 228.125867 126.48574 
L 228.191726 126.385834 
L 228.263762 126.285928 
L 228.342022 126.186023 
L 228.426556 126.086117 
L 228.517412 125.986211 
L 228.614645 125.886306 
L 228.718309 125.7864 
L 228.828457 125.686494 
L 228.945147 125.586588 
L 229.068434 125.486683 
L 229.198373 125.386777 
L 229.33502 125.286871 
L 229.478428 125.186965 
L 229.628649 125.08706 
L 229.785735 124.987154 
L 229.949731 124.887248 
L 230.120684 124.787343 
L 230.298634 124.687437 
L 230.483618 124.587531 
L 230.675669 124.487625 
L 230.874815 124.38772 
L 231.081077 124.287814 
L 231.294472 124.187908 
L 231.515011 124.088003 
L 231.742696 123.988097 
L 231.977524 123.888191 
L 232.219482 123.788285 
L 232.468552 123.68838 
L 232.724705 123.588474 
L 232.987905 123.488568 
L 233.258105 123.388662 
L 233.535251 123.288757 
L 233.819277 123.188851 
L 234.11011 123.088945 
L 234.407664 122.98904 
L 234.711845 122.889134 
L 235.022547 122.789228 
L 235.339653 122.689322 
L 235.663039 122.589417 
L 292.656961 122.589417 
L 292.656961 122.589417 
L 292.980347 122.689322 
L 293.297453 122.789228 
L 293.608155 122.889134 
L 293.912336 122.98904 
L 294.20989 123.088945 
L 294.500723 123.188851 
L 294.784749 123.288757 
L 295.061895 123.388662 
L 295.332095 123.488568 
L 295.595295 123.588474 
L 295.851448 123.68838 
L 296.100518 123.788285 
L 296.342476 123.888191 
L 296.577304 123.988097 
L 296.804989 124.088003 
L 297.025528 124.187908 
L 297.238923 124.287814 
L 297.445185 124.38772 
L 297.644331 124.487625 
L 297.836382 124.587531 
L 298.021366 124.687437 
L 298.199316 124.787343 
L 298.370269 124.887248 
L 298.534265 124.987154 
L 298.691351 125.08706 
L 298.841572 125.186965 
L 298.98498 125.286871 
L 299.121627 125.386777 
L 299.251566 125.486683 
L 299.374853 125.586588 
L 299.491543 125.686494 
L 299.601691 125.7864 
L 299.705355 125.886306 
L 299.802588 125.986211 
L 299.893444 126.086117 
L 299.977978 126.186023 
L 300.056238 126.285928 
L 300.128274 126.385834 
L 300.194133 126.48574 
L 300.253857 126.585646 
L 300.307487 126.685551 
L 300.355061 126.785457 
L 300.396612 126.885363 
L 300.432171 126.985269 
L 300.461762 127.085174 
L 300.485408 127.18508 
L 300.503128 127.284986 
L 300.514933 127.384891 
L 300.520833 127.484797 
L 300.520833 127.584703 
L 300.514933 127.684609 
L 300.503128 127.784514 
L 300.485408 127.88442 
L 300.461762 127.984326 
L 300.432171 128.084231 
L 300.396612 128.184137 
L 300.355061 128.284043 
L 300.307487 128.383949 
L 300.253857 128.483854 
L 300.194133 128.58376 
L 300.128274 128.683666 
L 300.056238 128.783572 
L 299.977978 128.883477 
L 299.893444 128.983383 
L 299.802588 129.083289 
L 299.705355 129.183194 
L 299.601691 129.2831 
L 299.491543 129.383006 
L 299.374853 129.482912 
L 299.251566 129.582817 
L 299.121627 129.682723 
L 298.98498 129.782629 
L 298.841572 129.882535 
L 298.691351 129.98244 
L 298.534265 130.082346 
L 298.370269 130.182252 
L 298.199316 130.282157 
L 298.021366 130.382063 
L 297.836382 130.481969 
L 297.644331 130.581875 
L 297.445185 130.68178 
L 297.238923 130.781686 
L 297.025528 130.881592 
L 296.804989 130.981497 
L 296.577304 131.081403 
L 296.342476 131.181309 
L 296.100518 131.281215 
L 295.851448 131.38112 
L 295.595295 131.481026 
L 295.332095 131.580932 
L 295.061895 131.680838 
L 294.784749 131.780743 
L 294.500723 131.880649 
L 294.20989 131.980555 
L 293.912336 132.08046 
L 293.608155 132.180366 
L 293.297453 132.280272 
L 292.980347 132.380178 
L 292.656961 132.480083 
z
" clip-path="url(#p511699dab1)" style="fill: #6fa8a6; fill-opacity: 0.6"/>
   </g>
   <g id="FillBetweenPolyCollection_3">
    <path d="M 438.100294 102.808083 
L 381.106373 102.808083 
L 380.782987 102.708178 
L 380.46588 102.608272 
L 380.155178 102.508366 
L 379.850997 102.40846 
L 379.553443 102.308555 
L 379.262611 102.208649 
L 378.978584 102.108743 
L 378.701438 102.008838 
L 378.431238 101.908932 
L 378.168038 101.809026 
L 377.911885 101.70912 
L 377.662816 101.609215 
L 377.420857 101.509309 
L 377.18603 101.409403 
L 376.958344 101.309497 
L 376.737806 101.209592 
L 376.52441 101.109686 
L 376.318148 101.00978 
L 376.119002 100.909875 
L 375.926952 100.809969 
L 375.741967 100.710063 
L 375.564018 100.610157 
L 375.393065 100.510252 
L 375.229068 100.410346 
L 375.071983 100.31044 
L 374.921761 100.210535 
L 374.778353 100.110629 
L 374.641706 100.010723 
L 374.511767 99.910817 
L 374.388481 99.810912 
L 374.271791 99.711006 
L 374.161642 99.6111 
L 374.057979 99.511194 
L 373.960746 99.411289 
L 373.869889 99.311383 
L 373.785356 99.211477 
L 373.707095 99.111572 
L 373.635059 99.011666 
L 373.569201 98.91176 
L 373.509477 98.811854 
L 373.455846 98.711949 
L 373.408272 98.612043 
L 373.366721 98.512137 
L 373.331163 98.412231 
L 373.301571 98.312326 
L 373.277925 98.21242 
L 373.260206 98.112514 
L 373.2484 98.012609 
L 373.2425 97.912703 
L 373.2425 97.812797 
L 373.2484 97.712891 
L 373.260206 97.612986 
L 373.277925 97.51308 
L 373.301571 97.413174 
L 373.331163 97.313269 
L 373.366721 97.213363 
L 373.408272 97.113457 
L 373.455846 97.013551 
L 373.509477 96.913646 
L 373.569201 96.81374 
L 373.635059 96.713834 
L 373.707095 96.613928 
L 373.785356 96.514023 
L 373.869889 96.414117 
L 373.960746 96.314211 
L 374.057979 96.214306 
L 374.161642 96.1144 
L 374.271791 96.014494 
L 374.388481 95.914588 
L 374.511767 95.814683 
L 374.641706 95.714777 
L 374.778353 95.614871 
L 374.921761 95.514965 
L 375.071983 95.41506 
L 375.229068 95.315154 
L 375.393065 95.215248 
L 375.564018 95.115343 
L 375.741967 95.015437 
L 375.926952 94.915531 
L 376.119002 94.815625 
L 376.318148 94.71572 
L 376.52441 94.615814 
L 376.737806 94.515908 
L 376.958344 94.416003 
L 377.18603 94.316097 
L 377.420857 94.216191 
L 377.662816 94.116285 
L 377.911885 94.01638 
L 378.168038 93.916474 
L 378.431238 93.816568 
L 378.701438 93.716662 
L 378.978584 93.616757 
L 379.262611 93.516851 
L 379.553443 93.416945 
L 379.850997 93.31704 
L 380.155178 93.217134 
L 380.46588 93.117228 
L 380.782987 93.017322 
L 381.106373 92.917417 
L 438.100294 92.917417 
L 438.100294 92.917417 
L 438.42368 93.017322 
L 438.740787 93.117228 
L 439.051489 93.217134 
L 439.355669 93.31704 
L 439.653223 93.416945 
L 439.944056 93.516851 
L 440.228083 93.616757 
L 440.505229 93.716662 
L 440.775429 93.816568 
L 441.038628 93.916474 
L 441.294781 94.01638 
L 441.543851 94.116285 
L 441.785809 94.216191 
L 442.020637 94.316097 
L 442.248322 94.416003 
L 442.468861 94.515908 
L 442.682256 94.615814 
L 442.888519 94.71572 
L 443.087664 94.815625 
L 443.279715 94.915531 
L 443.464699 95.015437 
L 443.642649 95.115343 
L 443.813602 95.215248 
L 443.977599 95.315154 
L 444.134684 95.41506 
L 444.284906 95.514965 
L 444.428314 95.614871 
L 444.56496 95.714777 
L 444.6949 95.814683 
L 444.818186 95.914588 
L 444.934876 96.014494 
L 445.045025 96.1144 
L 445.148688 96.214306 
L 445.245921 96.314211 
L 445.336778 96.414117 
L 445.421311 96.514023 
L 445.499571 96.613928 
L 445.571607 96.713834 
L 445.637466 96.81374 
L 445.69719 96.913646 
L 445.750821 97.013551 
L 445.798395 97.113457 
L 445.839946 97.213363 
L 445.875504 97.313269 
L 445.905095 97.413174 
L 445.928742 97.51308 
L 445.946461 97.612986 
L 445.958266 97.712891 
L 445.964167 97.812797 
L 445.964167 97.912703 
L 445.958266 98.012609 
L 445.946461 98.112514 
L 445.928742 98.21242 
L 445.905095 98.312326 
L 445.875504 98.412231 
L 445.839946 98.512137 
L 445.798395 98.612043 
L 445.750821 98.711949 
L 445.69719 98.811854 
L 445.637466 98.91176 
L 445.571607 99.011666 
L 445.499571 99.111572 
L 445.421311 99.211477 
L 445.336778 99.311383 
L 445.245921 99.411289 
L 445.148688 99.511194 
L 445.045025 99.6111 
L 444.934876 99.711006 
L 444.818186 99.810912 
L 444.6949 99.910817 
L 444.56496 100.010723 
L 444.428314 100.110629 
L 444.284906 100.210535 
L 444.134684 100.31044 
L 443.977599 100.410346 
L 443.813602 100.510252 
L 443.642649 100.610157 
L 443.464699 100.710063 
L 443.279715 100.809969 
L 443.087664 100.909875 
L 442.888519 101.00978 
L 442.682256 101.109686 
L 442.468861 101.209592 
L 442.248322 101.309497 
L 442.020637 101.409403 
L 441.785809 101.509309 
L 441.543851 101.609215 
L 441.294781 101.70912 
L 441.038628 101.809026 
L 440.775429 101.908932 
L 440.505229 102.008838 
L 440.228083 102.108743 
L 439.944056 102.208649 
L 439.653223 102.308555 
L 439.355669 102.40846 
L 439.051489 102.508366 
L 438.740787 102.608272 
L 438.42368 102.708178 
L 438.100294 102.808083 
z
" clip-path="url(#p511699dab1)" style="fill: #9ccb9e; fill-opacity: 0.6"/>
   </g>
   <g id="PathCollection_1">
    <defs>
     <path id="m87e34c5229" d="M 0 2.236068 
C 0.593012 2.236068 1.161816 2.000462 1.581139 1.581139 
C 2.000462 1.161816 2.236068 0.593012 2.236068 0 
C 2.236068 -0.593012 2.000462 -1.161816 1.581139 -1.581139 
C 1.161816 -2.000462 0.593012 -2.236068 0 -2.236068 
C -0.593012 -2.236068 -1.161816 -2.000462 -1.581139 -1.581139 
C -2.000462 -1.161816 -2.236068 -0.593012 -2.236068 0 
C -2.236068 0.593012 -2.000462 1.161816 -1.581139 1.581139 
C -1.161816 2.000462 -0.593012 2.236068 0 2.236068 
z
" style="stroke: #ffffff; stroke-opacity: 0.5; stroke-width: 0.5"/>
    </defs>
    <g clip-path="url(#p511699dab1)">
     <use xlink:href="#m87e34c5229" x="129.816041" y="162.152083" style="fill: #5b8db8; fill-opacity: 0.5; stroke: #ffffff; stroke-opacity: 0.5; stroke-width: 0.5"/>
     <use xlink:href="#m87e34c5229" x="119.026709" y="147.316083" style="fill: #5b8db8; fill-opacity: 0.5; stroke: #ffffff; stroke-opacity: 0.5; stroke-width: 0.5"/>
     <use xlink:href="#m87e34c5229" x="103.646301" y="152.261417" style="fill: #5b8db8; fill-opacity: 0.5; stroke: #ffffff; stroke-opacity: 0.5; stroke-width: 0.5"/>
    </g>
   </g>
   <g id="PathCollection_2">
    <defs>
     <path id="mb2df2db973" d="M 0 2.236068 
C 0.593012 2.236068 1.161816 2.000462 1.581139 1.581139 
C 2.000462 1.161816 2.236068 0.593012 2.236068 0 
C 2.236068 -0.593012 2.000462 -1.161816 1.581139 -1.581139 
C 1.161816 -2.000462 0.593012 -2.236068 0 -2.236068 
C -0.593012 -2.236068 -1.161816 -2.000462 -1.581139 -1.581139 
C -2.000462 -1.161816 -2.236068 -0.593012 -2.236068 0 
C -2.236068 0.593012 -2.000462 1.161816 -1.581139 1.581139 
C -1.161816 2.000462 -0.593012 2.236068 0 2.236068 
z
" style="stroke: #ffffff; stroke-opacity: 0.5; stroke-width: 0.5"/>
    </defs>
    <g clip-path="url(#p511699dab1)">
     <use xlink:href="#mb2df2db973" x="271.348633" y="132.480083" style="fill: #6fa8a6; fill-opacity: 0.5; stroke: #ffffff; stroke-opacity: 0.5; stroke-width: 0.5"/>
     <use xlink:href="#mb2df2db973" x="268.470387" y="127.53475" style="fill: #6fa8a6; fill-opacity: 0.5; stroke: #ffffff; stroke-opacity: 0.5; stroke-width: 0.5"/>
     <use xlink:href="#mb2df2db973" x="270.103219" y="122.589417" style="fill: #6fa8a6; fill-opacity: 0.5; stroke: #ffffff; stroke-opacity: 0.5; stroke-width: 0.5"/>
    </g>
   </g>
   <g id="PathCollection_3">
    <defs>
     <path id="m5d1c851bee" d="M 0 2.236068 
C 0.593012 2.236068 1.161816 2.000462 1.581139 1.581139 
C 2.000462 1.161816 2.236068 0.593012 2.236068 0 
C 2.236068 -0.593012 2.000462 -1.161816 1.581139 -1.581139 
C 1.161816 -2.000462 0.593012 -2.236068 0 -2.236068 
C -0.593012 -2.236068 -1.161816 -2.000462 -1.581139 -1.581139 
C -2.000462 -1.161816 -2.236068 -0.593012 -2.236068 0 
C -2.236068 0.593012 -2.000462 1.161816 -1.581139 1.581139 
C -1.161816 2.000462 -0.593012 2.236068 0 2.236068 
z
" style="stroke: #ffffff; stroke-opacity: 0.5; stroke-width: 0.5"/>
    </defs>
    <g clip-path="url(#p511699dab1)">
     <use xlink:href="#m5d1c851bee" x="421.514343" y="102.808083" style="fill: #9ccb9e; fill-opacity: 0.5; stroke: #ffffff; stroke-opacity: 0.5; stroke-width: 0.5"/>
     <use xlink:href="#m5d1c851bee" x="405.176764" y="97.86275" style="fill: #9ccb9e; fill-opacity: 0.5; stroke: #ffffff; stroke-opacity: 0.5; stroke-width: 0.5"/>
     <use xlink:href="#m5d1c851bee" x="407.468424" y="92.917417" style="fill: #9ccb9e; fill-opacity: 0.5; stroke: #ffffff; stroke-opacity: 0.5; stroke-width: 0.5"/>
    </g>
   </g>
   <g id="matplotlib.axis_1">
    <g id="xtick_1">
     <g id="line2d_1">
      <defs>
       <path id="m106681fe39" d="M 0 0 
L 0 3.5 
" style="stroke: #000000; stroke-width: 0.8"/>
      </defs>
      <g>
       <use xlink:href="#m106681fe39" x="118.716667" y="320.40275" style="stroke: #000000; stroke-width: 0.8"/>
      </g>
     </g>
     <g id="text_1">
      <text style="font-size: 12px; font-family: 'Arial', 'Helvetica', 'DejaVu Sans', 'Bitstream Vera Sans', 'Computer Modern Sans Serif', 'Lucida Grande', 'Verdana', 'Geneva', 'Lucid', 'Avant Garde', sans-serif; text-anchor: middle" x="118.716667" y="335.992125" transform="rotate(-0 118.716667 335.992125)">Baseline</text>
     </g>
    </g>
    <g id="xtick_2">
     <g id="line2d_2">
      <g>
       <use xlink:href="#m106681fe39" x="264.16" y="320.40275" style="stroke: #000000; stroke-width: 0.8"/>
      </g>
     </g>
     <g id="text_2">
      <text style="font-size: 12px; font-family: 'Arial', 'Helvetica', 'DejaVu Sans', 'Bitstream Vera Sans', 'Computer Modern Sans Serif', 'Lucida Grande', 'Verdana', 'Geneva', 'Lucid', 'Avant Garde', sans-serif; text-anchor: middle" x="264.16" y="335.992125" transform="rotate(-0 264.16 335.992125)">Method A</text>
     </g>
    </g>
    <g id="xtick_3">
     <g id="line2d_3">
      <g>
       <use xlink:href="#m106681fe39" x="409.603333" y="320.40275" style="stroke: #000000; stroke-width: 0.8"/>
      </g>
     </g>
     <g id="text_3">
      <text style="font-size: 12px; font-family: 'Arial', 'Helvetica', 'DejaVu Sans', 'Bitstream Vera Sans', 'Computer Modern Sans Serif', 'Lucida Grande', 'Verdana', 'Geneva', 'Lucid', 'Avant Garde', sans-serif; text-anchor: middle" x="409.603333" y="335.992125" transform="rotate(-0 409.603333 335.992125)">Ours</text>
     </g>
    </g>
   </g>
   <g id="matplotlib.axis_2">
    <g id="ytick_1">
     <g id="line2d_4">
      <path d="M 45.995 320.40275 
L 482.325 320.40275 
" clip-path="url(#p511699dab1)" style="fill: none; stroke-dasharray: 2.22,0.96; stroke-dashoffset: 0; stroke: #b0b0b0; stroke-opacity: 0.35; stroke-width: 0.6"/>
     </g>
     <g id="line2d_5">
      <defs>
       <path id="ma10bfc14cc" d="M 0 0 
L -3.5 0 
" style="stroke: #000000; stroke-width: 0.8"/>
      </defs>
      <g>
       <use xlink:href="#ma10bfc14cc" x="45.995" y="320.40275" style="stroke: #000000; stroke-width: 0.8"/>
      </g>
     </g>
     <g id="text_4">
      <text style="font-size: 12px; font-family: 'Arial', 'Helvetica', 'DejaVu Sans', 'Bitstream Vera Sans', 'Computer Modern Sans Serif', 'Lucida Grande', 'Verdana', 'Geneva', 'Lucid', 'Avant Garde', sans-serif; text-anchor: end" x="38.995" y="324.697437" transform="rotate(-0 38.995 324.697437)">0.4</text>
     </g>
    </g>
    <g id="ytick_2">
     <g id="line2d_6">
      <path d="M 45.995 270.949417 
L 482.325 270.949417 
" clip-path="url(#p511699dab1)" style="fill: none; stroke-dasharray: 2.22,0.96; stroke-dashoffset: 0; stroke: #b0b0b0; stroke-opacity: 0.35; stroke-width: 0.6"/>
     </g>
     <g id="line2d_7">
      <g>
       <use xlink:href="#ma10bfc14cc" x="45.995" y="270.949417" style="stroke: #000000; stroke-width: 0.8"/>
      </g>
     </g>
     <g id="text_5">
      <text style="font-size: 12px; font-family: 'Arial', 'Helvetica', 'DejaVu Sans', 'Bitstream Vera Sans', 'Computer Modern Sans Serif', 'Lucida Grande', 'Verdana', 'Geneva', 'Lucid', 'Avant Garde', sans-serif; text-anchor: end" x="38.995" y="275.244104" transform="rotate(-0 38.995 275.244104)">0.5</text>
     </g>
    </g>
    <g id="ytick_3">
     <g id="line2d_8">
      <path d="M 45.995 221.496083 
L 482.325 221.496083 
" clip-path="url(#p511699dab1)" style="fill: none; stroke-dasharray: 2.22,0.96; stroke-dashoffset: 0; stroke: #b0b0b0; stroke-opacity: 0.35; stroke-width: 0.6"/>
     </g>
     <g id="line2d_9">
      <g>
       <use xlink:href="#ma10bfc14cc" x="45.995" y="221.496083" style="stroke: #000000; stroke-width: 0.8"/>
      </g>
     </g>
     <g id="text_6">
      <text style="font-size: 12px; font-family: 'Arial', 'Helvetica', 'DejaVu Sans', 'Bitstream Vera Sans', 'Computer Modern Sans Serif', 'Lucida Grande', 'Verdana', 'Geneva', 'Lucid', 'Avant Garde', sans-serif; text-anchor: end" x="38.995" y="225.790771" transform="rotate(-0 38.995 225.790771)">0.6</text>
     </g>
    </g>
    <g id="ytick_4">
     <g id="line2d_10">
      <path d="M 45.995 172.04275 
L 482.325 172.04275 
" clip-path="url(#p511699dab1)" style="fill: none; stroke-dasharray: 2.22,0.96; stroke-dashoffset: 0; stroke: #b0b0b0; stroke-opacity: 0.35; stroke-width: 0.6"/>
     </g>
     <g id="line2d_11">
      <g>
       <use xlink:href="#ma10bfc14cc" x="45.995" y="172.04275" style="stroke: #000000; stroke-width: 0.8"/>
      </g>
     </g>
     <g id="text_7">
      <text style="font-size: 12px; font-family: 'Arial', 'Helvetica', 'DejaVu Sans', 'Bitstream Vera Sans', 'Computer Modern Sans Serif', 'Lucida Grande', 'Verdana', 'Geneva', 'Lucid', 'Avant Garde', sans-serif; text-anchor: end" x="38.995" y="176.337437" transform="rotate(-0 38.995 176.337437)">0.7</text>
     </g>
    </g>
    <g id="ytick_5">
     <g id="line2d_12">
      <path d="M 45.995 122.589417 
L 482.325 122.589417 
" clip-path="url(#p511699dab1)" style="fill: none; stroke-dasharray: 2.22,0.96; stroke-dashoffset: 0; stroke: #b0b0b0; stroke-opacity: 0.35; stroke-width: 0.6"/>
     </g>
     <g id="line2d_13">
      <g>
       <use xlink:href="#ma10bfc14cc" x="45.995" y="122.589417" style="stroke: #000000; stroke-width: 0.8"/>
      </g>
     </g>
     <g id="text_8">
      <text style="font-size: 12px; font-family: 'Arial', 'Helvetica', 'DejaVu Sans', 'Bitstream Vera Sans', 'Computer Modern Sans Serif', 'Lucida Grande', 'Verdana', 'Geneva', 'Lucid', 'Avant Garde', sans-serif; text-anchor: end" x="38.995" y="126.884104" transform="rotate(-0 38.995 126.884104)">0.8</text>
     </g>
    </g>
    <g id="ytick_6">
     <g id="line2d_14">
      <path d="M 45.995 73.136083 
L 482.325 73.136083 
" clip-path="url(#p511699dab1)" style="fill: none; stroke-dasharray: 2.22,0.96; stroke-dashoffset: 0; stroke: #b0b0b0; stroke-opacity: 0.35; stroke-width: 0.6"/>
     </g>
     <g id="line2d_15">
      <g>
       <use xlink:href="#ma10bfc14cc" x="45.995" y="73.136083" style="stroke: #000000; stroke-width: 0.8"/>
      </g>
     </g>
     <g id="text_9">
      <text style="font-size: 12px; font-family: 'Arial', 'Helvetica', 'DejaVu Sans', 'Bitstream Vera Sans', 'Computer Modern Sans Serif', 'Lucida Grande', 'Verdana', 'Geneva', 'Lucid', 'Avant Garde', sans-serif; text-anchor: end" x="38.995" y="77.430771" transform="rotate(-0 38.995 77.430771)">0.9</text>
     </g>
    </g>
    <g id="ytick_7">
     <g id="line2d_16">
      <path d="M 45.995 23.68275 
L 482.325 23.68275 
" clip-path="url(#p511699dab1)" style="fill: none; stroke-dasharray: 2.22,0.96; stroke-dashoffset: 0; stroke: #b0b0b0; stroke-opacity: 0.35; stroke-width: 0.6"/>
     </g>
     <g id="line2d_17">
      <g>
       <use xlink:href="#ma10bfc14cc" x="45.995" y="23.68275" style="stroke: #000000; stroke-width: 0.8"/>
      </g>
     </g>
     <g id="text_10">
      <text style="font-size: 12px; font-family: 'Arial', 'Helvetica', 'DejaVu Sans', 'Bitstream Vera Sans', 'Computer Modern Sans Serif', 'Lucida Grande', 'Verdana', 'Geneva', 'Lucid', 'Avant Garde', sans-serif; text-anchor: end" x="38.995" y="27.977437" transform="rotate(-0 38.995 27.977437)">1.0</text>
     </g>
    </g>
    <g id="text_11">
     <text style="font-size: 12px; font-family: 'Arial', 'Helvetica', 'DejaVu Sans', 'Bitstream Vera Sans', 'Computer Modern Sans Serif', 'Lucida Grande', 'Verdana', 'Geneva', 'Lucid', 'Avant Garde', sans-serif; text-anchor: middle" x="15.789375" y="172.04275" transform="rotate(-90 15.789375 172.04275)">Accuracy</text>
    </g>
   </g>
   <g id="patch_3">
    <path d="M 96.900167 157.20675 
L 140.533167 157.20675 
L 140.533167 149.78875 
L 96.900167 149.78875 
L 96.900167 157.20675 
z
" clip-path="url(#p511699dab1)" style="fill: #ffffff; stroke: #808080; stroke-width: 1.2; stroke-linejoin: miter"/>
   </g>
   <g id="line2d_18">
    <path d="M 118.716667 157.20675 
L 118.716667 162.152083 
" clip-path="url(#p511699dab1)" style="fill: none; stroke: #808080; stroke-width: 1.2; stroke-linecap: square"/>
   </g>
   <g id="line2d_19">
    <path d="M 118.716667 149.78875 
L 118.716667 147.316083 
" clip-path="url(#p511699dab1)" style="fill: none; stroke: #808080; stroke-width: 1.2; stroke-linecap: square"/>
   </g>
   <g id="line2d_20">
    <path d="M 107.808417 162.152083 
L 129.624917 162.152083 
" clip-path="url(#p511699dab1)" style="fill: none; stroke: #808080; stroke-width: 1.2; stroke-linecap: square"/>
   </g>
   <g id="line2d_21">
    <path d="M 107.808417 147.316083 
L 129.624917 147.316083 
" clip-path="url(#p511699dab1)" style="fill: none; stroke: #808080; stroke-width: 1.2; stroke-linecap: square"/>
   </g>
   <g id="patch_4">
    <path d="M 242.3435 130.007417 
L 285.9765 130.007417 
L 285.9765 125.062083 
L 242.3435 125.062083 
L 242.3435 130.007417 
z
" clip-path="url(#p511699dab1)" style="fill: #ffffff; stroke: #808080; stroke-width: 1.2; stroke-linejoin: miter"/>
   </g>
   <g id="line2d_22">
    <path d="M 264.16 130.007417 
L 264.16 132.480083 
" clip-path="url(#p511699dab1)" style="fill: none; stroke: #808080; stroke-width: 1.2; stroke-linecap: square"/>
   </g>
   <g id="line2d_23">
    <path d="M 264.16 125.062083 
L 264.16 122.589417 
" clip-path="url(#p511699dab1)" style="fill: none; stroke: #808080; stroke-width: 1.2; stroke-linecap: square"/>
   </g>
   <g id="line2d_24">
    <path d="M 253.25175 132.480083 
L 275.06825 132.480083 
" clip-path="url(#p511699dab1)" style="fill: none; stroke: #808080; stroke-width: 1.2; stroke-linecap: square"/>
   </g>
   <g id="line2d_25">
    <path d="M 253.25175 122.589417 
L 275.06825 122.589417 
" clip-path="url(#p511699dab1)" style="fill: none; stroke: #808080; stroke-width: 1.2; stroke-linecap: square"/>
   </g>
   <g id="patch_5">
    <path d="M 387.786833 100.335417 
L 431.419833 100.335417 
L 431.419833 95.390083 
L 387.786833 95.390083 
L 387.786833 100.335417 
z
" clip-path="url(#p511699dab1)" style="fill: #ffffff; stroke: #808080; stroke-width: 1.2; stroke-linejoin: miter"/>
   </g>
   <g id="line2d_26">
    <path d="M 409.603333 100.335417 
L 409.603333 102.808083 
" clip-path="url(#p511699dab1)" style="fill: none; stroke: #808080; stroke-width: 1.2; stroke-linecap: square"/>
   </g>
   <g id="line2d_27">
    <path d="M 409.603333 95.390083 
L 409.603333 92.917417 
" clip-path="url(#p511699dab1)" style="fill: none; stroke: #808080; stroke-width: 1.2; stroke-linecap: square"/>
   </g>
   <g id="line2d_28">
    <path d="M 398.695083 102.808083 
L 420.511583 102.808083 
" clip-path="url(#p511699dab1)" style="fill: none; stroke: #808080; stroke-width: 1.2; stroke-linecap: square"/>
   </g>
   <g id="line2d_29">
    <path d="M 398.695083 92.917417 
L 420.511583 92.917417 
" clip-path="url(#p511699dab1)" style="fill: none; stroke: #808080; stroke-width: 1.2; stroke-linecap: square"/>
   </g>
   <g id="line2d_30">
    <path d="M 96.900167 152.261417 
L 140.533167 152.261417 
" clip-path="url(#p511699dab1)" style="fill: none; stroke: #000000; stroke-width: 1.5"/>
   </g>
   <g id="line2d_31">
    <path d="M 242.3435 127.53475 
L 285.9765 127.53475 
" clip-path="url(#p511699dab1)" style="fill: none; stroke: #000000; stroke-width: 1.5"/>
   </g>
   <g id="line2d_32">
    <path d="M 387.786833 97.86275 
L 431.419833 97.86275 
" clip-path="url(#p511699dab1)" style="fill: none; stroke: #000000; stroke-width: 1.5"/>
   </g>
   <g id="patch_6">
    <path d="M 45.995 320.40275 
L 45.995 23.68275 
" style="fill: none; stroke: #000000; stroke-width: 1.2; stroke-linejoin: miter; stroke-linecap: square"/>
   </g>
   <g id="patch_7">
    <path d="M 45.995 320.40275 
L 482.325 320.40275 
" style="fill: none; stroke: #000000; stroke-width: 1.2; stroke-linejoin: miter; stroke-linecap: square"/>
   </g>
   <g id="text_12">
    <text style="font-size: 14.4px; font-family: 'Arial', 'Helvetica', 'DejaVu Sans', 'Bitstream Vera Sans', 'Computer Modern Sans Serif', 'Lucida Grande', 'Verdana', 'Geneva', 'Lucid', 'Avant Garde', sans-serif; text-anchor: middle" x="264.16" y="17.68275" transform="rotate(-0 264.16 17.68275)">Distribution Comparison: Violin + Box + Scatter</text>
   </g>
  </g>
 </g>
 <defs>
  <clipPath id="p511699dab1">
   <rect x="45.995" y="23.68275" width="436.33" height="296.72"/>
  </clipPath>
 </defs>
</svg>
