<?xml version="1.0" encoding="utf-8" standalone="no"?>
<!DOCTYPE svg PUBLIC "-//W3C//DTD SVG 1.1//EN"
  "http://www.w3.org/Graphics/SVG/1.1/DTD/svg11.dtd">
<svg xmlns:xlink="http://www.w3.org/1999/xlink" width="506.860929pt" height="395.371068pt" viewBox="0 0 506.860929 395.371068" xmlns="http://www.w3.org/2000/svg" version="1.1">
 <metadata>
  <rdf:RDF xmlns:dc="http://purl.org/dc/elements/1.1/" xmlns:cc="http://creativecommons.org/ns#" xmlns:rdf="http://www.w3.org/1999/02/22-rdf-syntax-ns#">
   <cc:Work>
    <dc:type rdf:resource="http://purl.org/dc/dcmitype/StillImage"/>
    <dc:date>2026-05-20T17:57:48.470130</dc:date>
    <dc:format>image/svg+xml</dc:format>
    <dc:creator>
     <cc:Agent>
      <dc:title>Matplotlib v3.10.9, https://matplotlib.org/</dc:title>
     </cc:Agent>
    </dc:creator>
   </cc:Work>
  </rdf:RDF>
 </metadata>
 <defs>
  <style type="text/css">*{stroke-linejoin: round; stroke-linecap: butt}</style>
 </defs>
 <g id="figure_1">
  <g id="patch_1">
   <path d="M 0 395.371068 
L 506.860929 395.371068 
L 506.860929 0 
L 0 0 
z
" style="fill: #ffffff"/>
  </g>
  <g id="axes_1">
   <g id="line2d_1">
    <path d="M 102.932327 343.083502 
L 403.516102 343.083502 
L 253.224215 82.770316 
L 102.932327 343.083502 
" clip-path="url(#pe3bd977fb5)" style="fill: none; stroke: #000000; stroke-width: 1.5; stroke-linecap: square"/>
   </g>
   <g id="line2d_2">
    <path d="M 117.961516 317.052183 
L 253.224215 82.770316 
" clip-path="url(#pe3bd977fb5)" style="fill: none; stroke-dasharray: 1.85,0.8; stroke-dashoffset: 0; stroke: #000000; stroke-opacity: 0.3; stroke-width: 0.5"/>
   </g>
   <g id="line2d_3">
    <path d="M 132.990705 343.083502 
L 132.990705 108.801635 
" clip-path="url(#pe3bd977fb5)" style="fill: none; stroke-dasharray: 1.85,0.8; stroke-dashoffset: 0; stroke: #000000; stroke-opacity: 0.3; stroke-width: 0.5"/>
   </g>
   <g id="line2d_4">
    <path d="M 102.932327 317.052183 
L 388.486914 343.083502 
" clip-path="url(#pe3bd977fb5)" style="fill: none; stroke-dasharray: 1.85,0.8; stroke-dashoffset: 0; stroke: #000000; stroke-opacity: 0.3; stroke-width: 0.5"/>
   </g>
   <g id="line2d_5">
    <path d="M 132.990705 291.020865 
L 253.224215 82.770316 
" clip-path="url(#pe3bd977fb5)" style="fill: none; stroke-dasharray: 1.85,0.8; stroke-dashoffset: 0; stroke: #000000; stroke-opacity: 0.3; stroke-width: 0.5"/>
   </g>
   <g id="line2d_6">
    <path d="M 163.049082 343.083502 
L 163.049082 134.832953 
" clip-path="url(#pe3bd977fb5)" style="fill: none; stroke-dasharray: 1.85,0.8; stroke-dashoffset: 0; stroke: #000000; stroke-opacity: 0.3; stroke-width: 0.5"/>
   </g>
   <g id="line2d_7">
    <path d="M 102.932327 291.020865 
L 373.457725 343.083502 
" clip-path="url(#pe3bd977fb5)" style="fill: none; stroke-dasharray: 1.85,0.8; stroke-dashoffset: 0; stroke: #000000; stroke-opacity: 0.3; stroke-width: 0.5"/>
   </g>
   <g id="line2d_8">
    <path d="M 148.019893 264.989546 
L 253.224215 82.770316 
" clip-path="url(#pe3bd977fb5)" style="fill: none; stroke-dasharray: 1.85,0.8; stroke-dashoffset: 0; stroke: #000000; stroke-opacity: 0.3; stroke-width: 0.5"/>
   </g>
   <g id="line2d_9">
    <path d="M 193.10746 343.083502 
L 193.10746 160.864272 
" clip-path="url(#pe3bd977fb5)" style="fill: none; stroke-dasharray: 1.85,0.8; stroke-dashoffset: 0; stroke: #000000; stroke-opacity: 0.3; stroke-width: 0.5"/>
   </g>
   <g id="line2d_10">
    <path d="M 102.932327 264.989546 
L 358.428536 343.083502 
" clip-path="url(#pe3bd977fb5)" style="fill: none; stroke-dasharray: 1.85,0.8; stroke-dashoffset: 0; stroke: #000000; stroke-opacity: 0.3; stroke-width: 0.5"/>
   </g>
   <g id="line2d_11">
    <path d="M 163.049082 238.958228 
L 253.224215 82.770316 
" clip-path="url(#pe3bd977fb5)" style="fill: none; stroke-dasharray: 1.85,0.8; stroke-dashoffset: 0; stroke: #000000; stroke-opacity: 0.3; stroke-width: 0.5"/>
   </g>
   <g id="line2d_12">
    <path d="M 223.165837 343.083502 
L 223.165837 186.89559 
" clip-path="url(#pe3bd977fb5)" style="fill: none; stroke-dasharray: 1.85,0.8; stroke-dashoffset: 0; stroke: #000000; stroke-opacity: 0.3; stroke-width: 0.5"/>
   </g>
   <g id="line2d_13">
    <path d="M 102.932327 238.958228 
L 343.399347 343.083502 
" clip-path="url(#pe3bd977fb5)" style="fill: none; stroke-dasharray: 1.85,0.8; stroke-dashoffset: 0; stroke: #000000; stroke-opacity: 0.3; stroke-width: 0.5"/>
   </g>
   <g id="line2d_14">
    <path d="M 178.078271 212.926909 
L 253.224215 82.770316 
" clip-path="url(#pe3bd977fb5)" style="fill: none; stroke-dasharray: 1.85,0.8; stroke-dashoffset: 0; stroke: #000000; stroke-opacity: 0.3; stroke-width: 0.5"/>
   </g>
   <g id="line2d_15">
    <path d="M 253.224215 343.083502 
L 253.224215 212.926909 
" clip-path="url(#pe3bd977fb5)" style="fill: none; stroke-dasharray: 1.85,0.8; stroke-dashoffset: 0; stroke: #000000; stroke-opacity: 0.3; stroke-width: 0.5"/>
   </g>
   <g id="line2d_16">
    <path d="M 102.932327 212.926909 
L 328.370159 343.083502 
" clip-path="url(#pe3bd977fb5)" style="fill: none; stroke-dasharray: 1.85,0.8; stroke-dashoffset: 0; stroke: #000000; stroke-opacity: 0.3; stroke-width: 0.5"/>
   </g>
   <g id="line2d_17">
    <path d="M 193.10746 186.89559 
L 253.224215 82.770316 
" clip-path="url(#pe3bd977fb5)" style="fill: none; stroke-dasharray: 1.85,0.8; stroke-dashoffset: 0; stroke: #000000; stroke-opacity: 0.3; stroke-width: 0.5"/>
   </g>
   <g id="line2d_18">
    <path d="M 283.282592 343.083502 
L 283.282592 238.958228 
" clip-path="url(#pe3bd977fb5)" style="fill: none; stroke-dasharray: 1.85,0.8; stroke-dashoffset: 0; stroke: #000000; stroke-opacity: 0.3; stroke-width: 0.5"/>
   </g>
   <g id="line2d_19">
    <path d="M 102.932327 186.89559 
L 313.34097 343.083502 
" clip-path="url(#pe3bd977fb5)" style="fill: none; stroke-dasharray: 1.85,0.8; stroke-dashoffset: 0; stroke: #000000; stroke-opacity: 0.3; stroke-width: 0.5"/>
   </g>
   <g id="line2d_20">
    <path d="M 208.136648 160.864272 
L 253.224215 82.770316 
" clip-path="url(#pe3bd977fb5)" style="fill: none; stroke-dasharray: 1.85,0.8; stroke-dashoffset: 0; stroke: #000000; stroke-opacity: 0.3; stroke-width: 0.5"/>
   </g>
   <g id="line2d_21">
    <path d="M 313.34097 343.083502 
L 313.34097 264.989546 
" clip-path="url(#pe3bd977fb5)" style="fill: none; stroke-dasharray: 1.85,0.8; stroke-dashoffset: 0; stroke: #000000; stroke-opacity: 0.3; stroke-width: 0.5"/>
   </g>
   <g id="line2d_22">
    <path d="M 102.932327 160.864272 
L 298.311781 343.083502 
" clip-path="url(#pe3bd977fb5)" style="fill: none; stroke-dasharray: 1.85,0.8; stroke-dashoffset: 0; stroke: #000000; stroke-opacity: 0.3; stroke-width: 0.5"/>
   </g>
   <g id="line2d_23">
    <path d="M 223.165837 134.832953 
L 253.224215 82.770316 
" clip-path="url(#pe3bd977fb5)" style="fill: none; stroke-dasharray: 1.85,0.8; stroke-dashoffset: 0; stroke: #000000; stroke-opacity: 0.3; stroke-width: 0.5"/>
   </g>
   <g id="line2d_24">
    <path d="M 343.399347 343.083502 
L 343.399347 291.020865 
" clip-path="url(#pe3bd977fb5)" style="fill: none; stroke-dasharray: 1.85,0.8; stroke-dashoffset: 0; stroke: #000000; stroke-opacity: 0.3; stroke-width: 0.5"/>
   </g>
   <g id="line2d_25">
    <path d="M 102.932327 134.832953 
L 283.282592 343.083502 
" clip-path="url(#pe3bd977fb5)" style="fill: none; stroke-dasharray: 1.85,0.8; stroke-dashoffset: 0; stroke: #000000; stroke-opacity: 0.3; stroke-width: 0.5"/>
   </g>
   <g id="line2d_26">
    <path d="M 238.195026 108.801635 
L 253.224215 82.770316 
" clip-path="url(#pe3bd977fb5)" style="fill: none; stroke-dasharray: 1.85,0.8; stroke-dashoffset: 0; stroke: #000000; stroke-opacity: 0.3; stroke-width: 0.5"/>
   </g>
   <g id="line2d_27">
    <path d="M 373.457725 343.083502 
L 373.457725 317.052183 
" clip-path="url(#pe3bd977fb5)" style="fill: none; stroke-dasharray: 1.85,0.8; stroke-dashoffset: 0; stroke: #000000; stroke-opacity: 0.3; stroke-width: 0.5"/>
   </g>
   <g id="line2d_28">
    <path d="M 102.932327 108.801635 
L 268.253403 343.083502 
" clip-path="url(#pe3bd977fb5)" style="fill: none; stroke-dasharray: 1.85,0.8; stroke-dashoffset: 0; stroke: #000000; stroke-opacity: 0.3; stroke-width: 0.5"/>
   </g>
   <g id="text_1">
    <text style="font-weight: 700; font-size: 11px; font-family: 'Arial', 'Helvetica', 'DejaVu Sans', 'Bitstream Vera Sans', 'Computer Modern Sans Serif', 'Lucida Grande', 'Verdana', 'Geneva', 'Lucid', 'Avant Garde', sans-serif; text-anchor: end" x="78.885625" y="358.11269" transform="rotate(-0 78.885625 358.11269)">Component A</text>
   </g>
   <g id="text_2">
    <text style="font-weight: 700; font-size: 11px; font-family: 'Arial', 'Helvetica', 'DejaVu Sans', 'Bitstream Vera Sans', 'Computer Modern Sans Serif', 'Lucida Grande', 'Verdana', 'Geneva', 'Lucid', 'Avant Garde', sans-serif; text-anchor: start" x="427.562804" y="358.11269" transform="rotate(-0 427.562804 358.11269)">Component B</text>
   </g>
   <g id="text_3">
    <text style="font-weight: 700; font-size: 11px; font-family: 'Arial', 'Helvetica', 'DejaVu Sans', 'Bitstream Vera Sans', 'Computer Modern Sans Serif', 'Lucida Grande', 'Verdana', 'Geneva', 'Lucid', 'Avant Garde', sans-serif; text-anchor: middle" x="253.224215" y="67.741128" transform="rotate(-0 253.224215 67.741128)">Component C</text>
   </g>
   <g id="text_4">
    <text style="font-size: 14.4px; font-family: 'Arial', 'Helvetica', 'DejaVu Sans', 'Bitstream Vera Sans', 'Computer Modern Sans Serif', 'Lucida Grande', 'Verdana', 'Geneva', 'Lucid', 'Avant Garde', sans-serif; text-anchor: middle" x="253.224215" y="17.68275" transform="rotate(-0 253.224215 17.68275)">Ternary Composition Plot</text>
   </g>
   <g id="PathCollection_1">
    <defs>
     <path id="mfaccfae78c" d="M 0 7.071068 
C 1.875269 7.071068 3.673985 6.326016 5 5 
C 6.326016 3.673985 7.071068 1.875269 7.071068 0 
C 7.071068 -1.875269 6.326016 -3.673985 5 -5 
C 3.673985 -6.326016 1.875269 -7.071068 0 -7.071068 
C -1.875269 -7.071068 -3.673985 -6.326016 -5 -5 
C -6.326016 -3.673985 -7.071068 -1.875269 -7.071068 0 
C -7.071068 1.875269 -6.326016 3.673985 -5 5 
C -3.673985 6.326016 -1.875269 7.071068 0 7.071068 
z
" style="stroke: #000000; stroke-width: 1.5"/>
    </defs>
    <g clip-path="url(#pe3bd977fb5)">
     <use xlink:href="#mfaccfae78c" x="208.136648" y="317.052183" style="fill: #5b8db8; stroke: #000000; stroke-width: 1.5"/>
    </g>
   </g>
   <g id="PathCollection_2">
    <defs>
     <path id="m38c21a904c" d="M 0 7.071068 
C 1.875269 7.071068 3.673985 6.326016 5 5 
C 6.326016 3.673985 7.071068 1.875269 7.071068 0 
C 7.071068 -1.875269 6.326016 -3.673985 5 -5 
C 3.673985 -6.326016 1.875269 -7.071068 0 -7.071068 
C -1.875269 -7.071068 -3.673985 -6.326016 -5 -5 
C -6.326016 -3.673985 -7.071068 -1.875269 -7.071068 0 
C -7.071068 1.875269 -6.326016 3.673985 -5 5 
C -3.673985 6.326016 -1.875269 7.071068 0 7.071068 
z
" style="stroke: #000000; stroke-width: 1.5"/>
    </defs>
    <g clip-path="url(#pe3bd977fb5)">
     <use xlink:href="#m38c21a904c" x="298.311781" y="264.989546" style="fill: #6fa8a6; stroke: #000000; stroke-width: 1.5"/>
    </g>
   </g>
   <g id="PathCollection_3">
    <defs>
     <path id="md3a8584574" d="M 0 7.071068 
C 1.875269 7.071068 3.673985 6.326016 5 5 
C 6.326016 3.673985 7.071068 1.875269 7.071068 0 
C 7.071068 -1.875269 6.326016 -3.673985 5 -5 
C 3.673985 -6.326016 1.875269 -7.071068 0 -7.071068 
C -1.875269 -7.071068 -3.673985 -6.326016 -5 -5 
C -6.326016 -3.673985 -7.071068 -1.875269 -7.071068 0 
C -7.071068 1.875269 -6.326016 3.673985 -5 5 
C -3.673985 6.326016 -1.875269 7.071068 0 7.071068 
z
" style="stroke: #000000; stroke-width: 1.5"/>
    </defs>
    <g clip-path="url(#pe3bd977fb5)">
     <use xlink:href="#md3a8584574" x="268.253403" y="186.89559" style="fill: #9ccb9e; stroke: #000000; stroke-width: 1.5"/>
    </g>
   </g>
   <g id="legend_1">
    <g id="patch_2">
     <path d="M 402.381794 88.118687 
L 441.603669 88.118687 
Q 443.603669 88.118687 443.603669 86.118687 
L 443.603669 44.68275 
Q 443.603669 42.68275 441.603669 42.68275 
L 402.381794 42.68275 
Q 400.381794 42.68275 400.381794 44.68275 
L 400.381794 86.118687 
Q 400.381794 88.118687 402.381794 88.118687 
z
" style="fill: #ffffff; opacity: 0.8; stroke: #cccccc; stroke-linejoin: miter"/>
    </g>
    <g id="PathCollection_4">
     <g>
      <use xlink:href="#mfaccfae78c" x="414.381794" y="51.215562" style="fill: #5b8db8; stroke: #000000; stroke-width: 1.5"/>
     </g>
    </g>
    <g id="text_5">
     <text style="font-size: 10px; font-family: 'Arial', 'Helvetica', 'DejaVu Sans', 'Bitstream Vera Sans', 'Computer Modern Sans Serif', 'Lucida Grande', 'Verdana', 'Geneva', 'Lucid', 'Avant Garde', sans-serif; text-anchor: start" x="432.381794" y="53.840562" transform="rotate(-0 432.381794 53.840562)">A</text>
    </g>
    <g id="PathCollection_5">
     <g>
      <use xlink:href="#m38c21a904c" x="414.381794" y="65.360875" style="fill: #6fa8a6; stroke: #000000; stroke-width: 1.5"/>
     </g>
    </g>
    <g id="text_6">
     <text style="font-size: 10px; font-family: 'Arial', 'Helvetica', 'DejaVu Sans', 'Bitstream Vera Sans', 'Computer Modern Sans Serif', 'Lucida Grande', 'Verdana', 'Geneva', 'Lucid', 'Avant Garde', sans-serif; text-anchor: start" x="432.381794" y="67.985875" transform="rotate(-0 432.381794 67.985875)">B</text>
    </g>
    <g id="PathCollection_6">
     <g>
      <use xlink:href="#md3a8584574" x="414.381794" y="79.506187" style="fill: #9ccb9e; stroke: #000000; stroke-width: 1.5"/>
     </g>
    </g>
    <g id="text_7">
     <text style="font-size: 10px; font-family: 'Arial', 'Helvetica', 'DejaVu Sans', 'Bitstream Vera Sans', 'Computer Modern Sans Serif', 'Lucida Grande', 'Verdana', 'Geneva', 'Lucid', 'Avant Garde', sans-serif; text-anchor: start" x="432.381794" y="82.131187" transform="rotate(-0 432.381794 82.131187)">C</text>
    </g>
   </g>
  </g>
 </g>
 <defs>
  <clipPath id="pe3bd977fb5">
   <rect x="57.844761" y="37.68275" width="390.758908" height="350.488318"/>
  </clipPath>
 </defs>
</svg>
